<svg width="208" height="45" viewBox="0 0 208 45" fill="none" xmlns="http://www.w3.org/2000/svg">
<g clip-path="url(#clip0_1100_6797)">
<path d="M207.441 36.8536L205.868 44.9149H147.808L149.381 36.8536H207.441Z" fill="#E03638"/>
<path d="M158.599 38.7449H162.531V43.0272H161.819V41.4975H160.616L158.709 43.0272H157.737V42.8817L159.471 41.4975H158.606C158.378 41.4984 158.158 41.411 157.993 41.2537C157.836 41.092 157.745 40.8774 157.737 40.652V39.61C157.737 39.4958 157.759 39.3826 157.803 39.2772C157.847 39.1718 157.911 39.0763 157.993 38.9965C158.072 38.9158 158.166 38.8519 158.27 38.8086C158.374 38.7654 158.486 38.7437 158.599 38.7449ZM158.599 39.4566C158.579 39.4558 158.559 39.46 158.541 39.469C158.523 39.4779 158.508 39.4912 158.496 39.5077C158.481 39.5203 158.469 39.5359 158.46 39.5535C158.451 39.5711 158.446 39.5903 158.445 39.61V40.6284C158.445 40.65 158.45 40.6713 158.459 40.6909C158.467 40.7106 158.48 40.7281 158.496 40.7425C158.51 40.7559 158.526 40.7663 158.543 40.7731C158.561 40.7799 158.58 40.7828 158.599 40.7818H161.811V39.4566H158.599Z" fill="white"/>
<path d="M188.438 41.4977H187.573C187.344 41.4986 187.125 41.4112 186.959 41.2539C186.802 41.0922 186.711 40.8776 186.704 40.6522V38.7451H187.419V40.6286C187.419 40.6502 187.424 40.6715 187.433 40.6911C187.442 40.7108 187.454 40.7283 187.47 40.7427C187.484 40.7561 187.5 40.7665 187.517 40.7733C187.535 40.7801 187.554 40.783 187.573 40.782H190.785V38.7451H191.497V43.0274H190.785V41.4977H188.426H188.438Z" fill="white"/>
<path d="M169.472 39.2247C169.485 39.2947 169.491 39.3658 169.492 39.437V43.0076H168.776V39.551L167.156 42.6183C166.998 42.8975 166.814 43.0115 166.593 43.0115C166.373 43.0115 166.173 42.9211 166.023 42.6183L164.399 39.551V43.0076H163.687V39.437C163.685 39.361 163.695 39.2851 163.719 39.2129C163.745 39.1091 163.798 39.0141 163.872 38.9376C164.008 38.8061 164.19 38.7327 164.38 38.7331C164.503 38.7297 164.624 38.7655 164.726 38.8354C164.826 38.9032 164.907 38.9951 164.962 39.1028L166.582 42.1621L168.202 39.1028C168.259 38.992 168.343 38.8974 168.446 38.8275C168.545 38.759 168.663 38.7232 168.784 38.7253C168.878 38.7226 168.973 38.7393 169.061 38.7745C169.148 38.8096 169.228 38.8625 169.295 38.9297C169.37 39.007 169.426 39.1015 169.456 39.205L169.472 39.2247Z" fill="white"/>
<path d="M174.977 39.0793C175.082 39.1815 175.165 39.3039 175.221 39.4391C175.277 39.5743 175.305 39.7194 175.303 39.8658V41.9027C175.305 42.0502 175.276 42.1965 175.218 42.332C175.16 42.4675 175.074 42.5892 174.965 42.6892C174.863 42.7944 174.741 42.8776 174.606 42.9337C174.47 42.9898 174.325 43.0177 174.179 43.0156H171.631C171.336 43.0132 171.054 42.8962 170.844 42.6892C170.739 42.5874 170.655 42.4651 170.599 42.3298C170.543 42.1946 170.515 42.0492 170.518 41.9027V39.8658C170.516 39.7194 170.544 39.5743 170.6 39.4391C170.656 39.3039 170.739 39.1815 170.844 39.0793C171.053 38.8709 171.336 38.7536 171.631 38.7529H174.179C174.327 38.7501 174.474 38.7776 174.612 38.8338C174.749 38.8899 174.873 38.9734 174.977 39.0793ZM174.466 39.5787C174.429 39.5399 174.384 39.5091 174.335 39.4881C174.285 39.4671 174.232 39.4565 174.179 39.4568H171.631C171.578 39.456 171.526 39.4657 171.477 39.4853C171.429 39.5048 171.385 39.5339 171.347 39.5709C171.307 39.6084 171.275 39.6541 171.253 39.7049C171.231 39.7557 171.221 39.8105 171.222 39.8658V41.9027C171.22 41.9558 171.23 42.0086 171.249 42.0579C171.269 42.1073 171.298 42.1521 171.336 42.1898C171.374 42.2296 171.419 42.261 171.47 42.282C171.521 42.303 171.576 42.3131 171.631 42.3117H174.179C174.285 42.3107 174.386 42.2716 174.466 42.2016C174.506 42.1632 174.538 42.1168 174.559 42.0652C174.58 42.0137 174.59 41.9583 174.588 41.9027V39.8658C174.588 39.8122 174.577 39.759 174.556 39.7097C174.535 39.6603 174.505 39.6157 174.466 39.5787Z" fill="white"/>
<path d="M185.657 38.7451H184.942V40.782H181.729C181.711 40.783 181.692 40.78 181.675 40.7732C181.658 40.7664 181.643 40.756 181.631 40.7427C181.615 40.7283 181.602 40.7108 181.593 40.6911C181.584 40.6715 181.579 40.6502 181.579 40.6286V38.7451H180.864V40.6522C180.865 40.7646 180.888 40.8757 180.932 40.9791C180.976 41.0825 181.04 41.1762 181.121 41.2547C181.201 41.3333 181.296 41.3952 181.401 41.4369C181.505 41.4786 181.616 41.4992 181.729 41.4977H184.942V41.8909C184.943 41.9459 184.933 42.0005 184.912 42.0513C184.891 42.1021 184.859 42.1479 184.82 42.1858C184.742 42.2559 184.641 42.295 184.537 42.2959H180.864V43.0116H184.537C184.683 43.0137 184.828 42.9859 184.964 42.9298C185.099 42.8736 185.221 42.7904 185.323 42.6853C185.429 42.5884 185.513 42.4705 185.571 42.3391C185.628 42.2077 185.658 42.0658 185.657 41.9224V38.7451Z" fill="white"/>
<path d="M176.971 40.9864V43.0273H176.259V39.8342C176.259 39.6909 176.289 39.549 176.346 39.4177C176.404 39.2863 176.488 39.1684 176.594 39.0714C176.695 38.9658 176.817 38.8824 176.953 38.8262C177.088 38.77 177.234 38.7424 177.38 38.745H180.109V39.4567H177.38C177.275 39.4587 177.174 39.4993 177.097 39.5708C177.056 39.6083 177.024 39.654 177.003 39.7048C176.981 39.7556 176.97 39.8105 176.971 39.8657V40.9864Z" fill="white"/>
<path d="M199.219 38.7449V42.3115L202.574 38.9494C202.708 38.8211 202.887 38.7481 203.073 38.7449C203.168 38.7412 203.264 38.7583 203.352 38.795C203.44 38.8316 203.519 38.887 203.584 38.9573C203.652 39.0218 203.705 39.0993 203.742 39.1851C203.778 39.271 203.797 39.3634 203.796 39.4567V43.0272H203.096V39.4567L199.715 42.807C199.649 42.8728 199.572 42.9248 199.486 42.9599C199.4 42.9951 199.308 43.0126 199.215 43.0115C199.025 43.0109 198.842 42.9378 198.704 42.807C198.636 42.7407 198.582 42.6612 198.545 42.5733C198.509 42.4854 198.491 42.391 198.492 42.2958V38.7292L199.219 38.7449Z" fill="white"/>
<path d="M193.003 38.7449V42.3115L196.357 38.9494C196.492 38.8211 196.67 38.7481 196.857 38.7449C196.952 38.7412 197.047 38.7583 197.135 38.795C197.224 38.8316 197.303 38.887 197.368 38.9573C197.435 39.0218 197.489 39.0993 197.525 39.1851C197.562 39.271 197.58 39.3634 197.58 39.4567V43.0272H196.868V39.4567L193.514 42.807C193.449 42.8732 193.371 42.9254 193.285 42.9606C193.199 42.9957 193.107 43.013 193.015 43.0115C192.825 43.0101 192.642 42.9371 192.503 42.807C192.435 42.7407 192.381 42.6612 192.345 42.5733C192.308 42.4854 192.29 42.391 192.291 42.2958V38.7292L193.003 38.7449Z" fill="white"/>
<path d="M201.901 38.3281L202.338 37.8916L201.874 37.4355L201.425 37.8562C201.393 37.8898 201.354 37.9165 201.311 37.9349C201.28 37.9451 201.249 37.953 201.217 37.9585C201.197 37.9603 201.178 37.9603 201.158 37.9585C201.137 37.9604 201.116 37.9604 201.095 37.9585C201.064 37.9529 201.034 37.9451 201.005 37.9349C200.961 37.9166 200.92 37.8899 200.887 37.8562L200.493 37.4355L200.014 37.9388L200.407 38.3321C200.416 38.342 200.426 38.3501 200.438 38.3557C200.476 38.3917 200.517 38.4246 200.56 38.454C200.597 38.4773 200.635 38.4983 200.674 38.5169C200.691 38.5264 200.708 38.5343 200.725 38.5405C200.84 38.5878 200.963 38.6132 201.087 38.6152H201.178C201.298 38.6132 201.417 38.5878 201.528 38.5405C201.544 38.5342 201.56 38.5263 201.575 38.5169C201.615 38.4983 201.655 38.4773 201.693 38.454C201.736 38.4246 201.777 38.3917 201.815 38.3557L201.846 38.3321L201.901 38.3281Z" fill="white"/>
<path d="M151.139 41.4465H152.287L152.543 40.3219H151.398L151.563 39.6101H152.708L152.908 38.7411H153.766L153.565 39.6101H154.808L155.004 38.7411H155.861L155.665 39.6101H156.809L156.644 40.3219H155.5L155.24 41.4465H156.384L156.223 42.1622H155.075L154.878 43.0273H154.021L154.218 42.1622H152.979L152.779 43.0273H151.921L152.122 42.1622H150.978L151.139 41.4465ZM154.642 40.3219H153.4L153.144 41.4465H154.383L154.642 40.3219Z" fill="white"/>
<path d="M76.6327 7.80939H67.667L64.4976 31.3208H70.9073L71.2297 27.0424H73.3925L73.7071 31.305H80.1836L76.6327 7.80939ZM73.3689 22.7522H71.2297L72.1577 13.0315C72.1577 13.0315 73.4515 22.6972 73.3689 22.7522Z" fill="white"/>
<path d="M143.408 27.0149C143.525 27.845 143.857 28.63 144.372 29.2917C145.012 30.0897 145.858 30.6987 146.818 31.0534C148.019 31.5257 149.302 31.7556 150.593 31.7298C151.738 31.7485 152.877 31.5524 153.951 31.1517C154.846 30.811 155.633 30.235 156.228 29.4844C156.817 28.7451 157.16 27.3492 157.278 26.6492C157.435 25.5438 157.497 24.4268 157.462 23.3107V7.78583H151.249V25.265C151.294 25.9853 151.236 26.7083 151.076 27.4121C151.019 27.5593 150.915 27.6836 150.78 27.7654C150.645 27.8472 150.486 27.8819 150.329 27.8643C150.187 27.88 150.043 27.8505 149.918 27.7799C149.793 27.7093 149.693 27.6013 149.633 27.4711C149.49 26.8461 149.435 26.204 149.472 25.5639V7.79369H143.259V21.5568C143.259 24.1325 143.306 26.2167 143.4 27.007" fill="white"/>
<path d="M205.512 7.78186H199.307V31.309H205.512V7.78186Z" fill="white"/>
<path d="M186.907 21.2776H188.767V31.3051H194.969V7.78583H188.767V16.1617H186.907V7.78583H180.702V31.3051H186.907V21.2776Z" fill="white"/>
<path d="M164.718 30.8017C166.118 31.4722 167.661 31.792 169.212 31.7337C170.759 31.7828 172.288 31.4031 173.632 30.6366C174.668 30.0746 175.482 29.1775 175.94 28.0923C176.29 27.1289 176.463 24.801 176.463 22.4927V21.5725H170.25V25.1116C170.296 25.8965 170.225 26.6837 170.038 27.4474C169.938 27.6 169.801 27.7252 169.641 27.8118C169.48 27.8985 169.3 27.9438 169.118 27.9438C168.935 27.9438 168.756 27.8985 168.595 27.8118C168.434 27.7252 168.298 27.6 168.198 27.4474C168.056 27.1211 168.013 26.4132 168.013 25.3279V14.2899C168.013 13.1574 168.056 12.0288 168.198 11.6827C168.339 11.3367 168.63 11.1873 169.137 11.1873C169.645 11.1873 169.924 11.321 170.046 11.5805C170.168 11.84 170.25 12.9607 170.25 14.0815V17.9705H176.452V15.8589C176.452 13.7708 176.259 11.8518 175.889 10.8687C175.436 9.78841 174.606 8.90944 173.553 8.39531C172.191 7.69216 170.669 7.35477 169.137 7.41616C167.88 7.39121 166.63 7.60608 165.453 8.04927C164.497 8.41055 163.654 9.01997 163.011 9.81488C162.464 10.4826 162.103 11.283 161.965 12.135C161.82 13.4642 161.758 14.8012 161.78 16.1381V22.6421C161.78 24.8324 161.981 27.1447 162.366 28.2378C162.786 29.3687 163.633 30.2895 164.725 30.8017" fill="white"/>
<path d="M88.7884 31.2933L88.7845 15.8156L90.9827 31.2894H94.7262L97.062 15.8746V31.2894H102.52L102.489 7.78583H94.4549L92.9252 18.7413L91.3956 7.78583H83.3618L83.3657 31.2894L88.7884 31.2933Z" fill="white"/>
<path d="M53.3229 31.3129H59.0562V22.7561L63.5941 7.80542H57.8883L56.2996 17.0425L54.6559 7.80542H48.9619L53.3229 22.7561V31.3129Z" fill="white"/>
<path d="M112.559 27.0344H114.722L115.032 31.2971H121.509L117.97 7.79749H108.996L105.827 31.3089H112.236L112.559 27.0344ZM113.483 13.0353C113.483 13.0353 114.777 22.7049 114.698 22.7521H112.559L113.483 13.0353Z" fill="white"/>
<path d="M125.497 29.1698C125.992 29.9447 126.678 30.5786 127.49 31.0102C128.39 31.4822 129.392 31.724 130.408 31.7141C131.285 31.7141 132.213 31.5843 132.807 31.1557C133.513 30.7113 134.079 30.0759 134.439 29.3232L135.009 31.2894H138.941V18.8396H131.765V21.9658H132.866V25.1864C132.912 25.9008 132.828 26.6177 132.618 27.302C132.541 27.478 132.41 27.625 132.244 27.7218C132.078 27.8186 131.885 27.8602 131.694 27.8407C131.522 27.8593 131.348 27.8234 131.197 27.738C131.046 27.6527 130.925 27.5222 130.852 27.3649C130.683 26.7146 130.616 26.0421 130.652 25.3712V13.8849C130.652 12.7366 130.727 12.0131 130.852 11.7418C130.951 11.5993 131.085 11.4856 131.242 11.4123C131.399 11.3391 131.573 11.3089 131.745 11.3249C132.189 11.3249 132.531 11.4154 132.673 11.7418C132.803 12.2292 132.867 12.7316 132.866 13.236C132.866 13.4956 132.866 13.9006 132.866 14.2191V16.1106H138.945V15.5994C138.945 13.759 138.749 12.0603 138.379 11.0733C138.009 10.0862 137.227 9.26833 136.019 8.55264C134.632 7.77615 133.063 7.38384 131.474 7.4162C129.86 7.3764 128.274 7.83652 126.932 8.73353C125.752 9.54359 125.048 10.4402 124.804 11.4114C124.503 13.057 124.371 14.7291 124.411 16.4016V23.2124C124.386 24.4603 124.446 25.7084 124.592 26.9481C124.717 27.7463 125.02 28.5059 125.481 29.1698" fill="white"/>
<circle cx="20" cy="20" r="17" fill="white"/>
<path d="M19.9962 3.85552e-07C23.9521 -0.000776174 27.8193 1.17154 31.1088 3.3687C34.3983 5.56586 36.9624 8.68915 38.4768 12.3436C39.9911 15.9981 40.3878 20.0195 39.6165 23.8994C38.8452 27.7793 36.9407 31.3433 34.1438 34.1407C31.3469 36.9382 27.7832 38.8434 23.9034 39.6154C20.0237 40.3874 16.0021 39.9916 12.3473 38.478C8.69256 36.9643 5.56873 34.4009 3.37091 31.1118C1.17309 27.8227 7.62236e-08 23.9558 0 20C-1.02195e-07 14.6963 2.10662 9.60987 5.85652 5.85925C9.60643 2.10864 14.6925 0.00104154 19.9962 3.85552e-07ZM29.8746 14.04C30.3166 13.598 30.565 12.9985 30.565 12.3734C30.565 11.7483 30.3166 11.1487 29.8746 10.7067C29.4326 10.2647 28.8331 10.0164 28.2079 10.0164C27.5828 10.0164 26.9833 10.2647 26.5412 10.7067L20.33 16.9179H19.851L13.6397 10.7067C13.1977 10.2642 12.5979 10.0153 11.9724 10.015C11.3469 10.0146 10.7469 10.2627 10.3044 10.7047C9.86181 11.1468 9.61298 11.7465 9.61261 12.372C9.61225 12.9975 9.86037 13.5975 10.3024 14.04L17.6837 21.4134V31.967C17.7086 32.5808 17.97 33.1611 18.4131 33.5866C18.8562 34.0121 19.4467 34.2497 20.061 34.2497C20.6753 34.2497 21.2658 34.0121 21.7089 33.5866C22.152 33.1611 22.4134 32.5808 22.4383 31.967V21.4723L29.8746 14.04Z" fill="#E03638"/>
</g>
<defs>
<clipPath id="clip0_1100_6797">
<rect width="207.442" height="44.919" fill="white"/>
</clipPath>
</defs>
</svg>
