<svg width="166" height="39" viewBox="0 0 166 39" fill="none" xmlns="http://www.w3.org/2000/svg">
<path d="M24.1426 12.6494C24.3201 12.8262 24.4609 13.0364 24.557 13.2678C24.653 13.4992 24.7025 13.7473 24.7025 13.9979C24.7025 14.2484 24.653 14.4965 24.557 14.7279C24.4609 14.9593 24.3201 15.1695 24.1426 15.3463L18.1331 21.3527V29.8338C18.1129 30.3299 17.9017 30.7989 17.5436 31.1427C17.1855 31.4865 16.7083 31.6785 16.2119 31.6785C15.7155 31.6785 15.2383 31.4865 14.8802 31.1427C14.5221 30.7989 14.3109 30.3299 14.2907 29.8338V21.3114L8.32565 15.3463C7.96801 14.9887 7.76709 14.5036 7.76709 13.9979C7.76709 13.4921 7.96801 13.007 8.32565 12.6494C8.68329 12.2917 9.16835 12.0908 9.67413 12.0908C10.1799 12.0908 10.665 12.2917 11.0226 12.6494L16.0422 17.6721H16.4292L21.4488 12.6494C21.6256 12.4724 21.8355 12.332 22.0667 12.2362C22.2978 12.1404 22.5455 12.091 22.7957 12.091C23.0459 12.091 23.2936 12.1404 23.5247 12.2362C23.7558 12.332 23.9658 12.4724 24.1426 12.6494Z" fill="white"/>
<path d="M16.1596 4C19.3555 4 22.4797 4.94766 25.1371 6.72316C27.7944 8.49866 29.8656 11.0223 31.0888 13.9749C32.312 16.9275 32.6322 20.1764 32.0089 23.311C31.3857 26.4456 29.8469 29.325 27.5873 31.585C25.3276 33.8451 22.4486 35.3844 19.3141 36.0083C16.1797 36.6322 12.9306 36.3126 9.97779 35.09C7.02495 33.8674 4.50095 31.7967 2.72493 29.1397C0.948905 26.4827 0.000627515 23.3587 0 20.1628C-8.25872e-08 15.8767 1.70242 11.7661 4.73284 8.73509C7.76327 5.70407 11.8735 4.00084 16.1596 4ZM24.1426 15.3463C24.4998 14.9891 24.7005 14.5046 24.7005 13.9994C24.7005 13.4942 24.4998 13.0097 24.1426 12.6525C23.7854 12.2953 23.3009 12.0946 22.7957 12.0946C22.2905 12.0946 21.806 12.2953 21.4488 12.6525L16.4293 17.6689H16.0422L11.0227 12.6525C10.8458 12.4754 10.6358 12.3349 10.4046 12.239C10.1734 12.1431 9.9256 12.0936 9.67531 12.0935C9.42502 12.0933 9.17715 12.1425 8.94586 12.2381C8.71456 12.3338 8.50437 12.474 8.32729 12.6509C8.1502 12.8278 8.00969 13.0378 7.91377 13.269C7.81785 13.5002 7.76841 13.748 7.76826 13.9983C7.76811 14.2486 7.81727 14.4964 7.91291 14.7277C8.00856 14.959 8.14882 15.1692 8.3257 15.3463L14.2908 21.3114V29.8338C14.3109 30.3298 14.5222 30.7988 14.8802 31.1426C15.2383 31.4865 15.7155 31.6785 16.212 31.6785C16.7084 31.6785 17.1856 31.4865 17.5437 31.1426C17.9018 30.7988 18.113 30.3298 18.1331 29.8338V21.3526L24.1426 15.3463Z" fill="#E03638"/>
<path d="M61.8336 6.29492H54.5994L52.042 25.2689H57.2138L57.474 21.8136H59.2191L59.4729 25.253H64.6987L61.8336 6.29492ZM59.2001 18.352H57.474L58.2228 10.5085C58.2228 10.5085 59.2667 18.3075 59.2001 18.352Z" fill="#181818"/>
<path d="M115.713 21.7977C115.807 22.4665 116.075 23.0989 116.49 23.6317C117.007 24.2766 117.689 24.769 118.464 25.0563C119.433 25.4374 120.468 25.6229 121.51 25.602C122.434 25.6177 123.354 25.4584 124.219 25.1325C124.942 24.8598 125.577 24.3959 126.056 23.7903C126.532 23.1938 126.808 22.0643 126.903 21.5026C127.031 20.6107 127.081 19.7094 127.053 18.8089V6.28223H122.039V20.3826C122.076 20.9648 122.029 21.5493 121.9 22.1182C121.855 22.2385 121.77 22.3402 121.66 22.4069C121.55 22.4736 121.421 22.5016 121.294 22.4862C121.179 22.4999 121.062 22.4765 120.961 22.4195C120.86 22.3624 120.78 22.2747 120.732 22.169C120.616 21.6658 120.572 21.1487 120.602 20.6333V6.29492H115.592V17.4001C115.592 19.4815 115.63 21.16 115.706 21.8009" fill="#181818"/>
<path d="M165.822 6.2793H160.815V25.2628H165.822V6.2793Z" fill="#181818"/>
<path d="M150.811 17.1685H152.312V25.2594H157.316V6.28223H152.312V13.0405H150.811V6.28223H145.804V25.2594H150.811V17.1685Z" fill="#181818"/>
<path d="M132.907 24.85C134.036 25.3925 135.281 25.6507 136.533 25.602C137.781 25.6411 139.015 25.336 140.1 24.72C140.935 24.2665 141.592 23.5427 141.962 22.6671C142.245 21.8897 142.384 20.0114 142.384 18.1489V17.4159H137.371V20.2715C137.408 20.9048 137.35 21.54 137.2 22.1563C137.118 22.278 137.007 22.3777 136.878 22.4466C136.748 22.5156 136.604 22.5517 136.457 22.5517C136.311 22.5517 136.166 22.5156 136.037 22.4466C135.907 22.3777 135.797 22.278 135.715 22.1563C135.601 21.8929 135.566 21.3218 135.566 20.4461V11.527C135.566 10.6164 135.601 9.70578 135.715 9.42656C135.829 9.14735 136.064 9.02677 136.473 9.02677C136.882 9.02677 137.108 9.13465 137.206 9.34406C137.304 9.55348 137.371 10.4609 137.371 11.3652V14.5H142.375V12.7867C142.375 11.1019 142.219 9.55348 141.921 8.76025C141.555 7.88817 140.885 7.17811 140.036 6.76132C138.937 6.19327 137.71 5.91894 136.473 5.96492C135.459 5.94479 134.45 6.11816 133.5 6.47576C132.728 6.76727 132.048 7.25899 131.53 7.90039C131.089 8.43925 130.797 9.085 130.686 9.77241C130.569 10.846 130.519 11.9258 130.537 13.0056V18.2631C130.537 20.0272 130.698 21.8961 131.009 22.7781C131.347 23.6904 132.031 24.4325 132.913 24.8437" fill="#181818"/>
<path d="M71.6411 25.2498L71.6379 12.7613L73.4115 25.2467H76.4321L78.3168 12.8089V25.2467H82.7208L82.6955 6.28223H76.2132L74.979 15.1219L73.7447 6.28223H67.2625L67.2656 25.2467L71.6411 25.2498Z" fill="#181818"/>
<path d="M43.0246 25.2655H47.6507V18.3612L51.3122 6.29785H46.7084L45.4265 13.751L44.1002 6.29785H39.5059L43.0246 18.3612V25.2655Z" fill="#181818"/>
<path d="M90.8212 21.8136H92.5663L92.8169 25.2435H98.0427L95.1871 6.28223H87.9465L85.3892 25.2562H90.561L90.8212 21.8136ZM91.5668 10.5181C91.5668 10.5181 92.6107 18.3171 92.5472 18.3615H90.8212L91.5668 10.5181Z" fill="#181818"/>
<path d="M101.26 23.5365C101.663 24.1556 102.216 24.6622 102.869 25.0088C103.595 25.3881 104.404 25.5832 105.223 25.5767C105.931 25.5767 106.679 25.472 107.158 25.1262C107.726 24.7686 108.182 24.2598 108.475 23.6571L108.935 25.2436H112.108V15.2013H106.318V17.7206H107.206V20.3192C107.244 20.8956 107.176 21.4741 107.006 22.0262C106.943 22.168 106.838 22.2863 106.704 22.3643C106.57 22.4424 106.415 22.4762 106.261 22.4609C106.122 22.4733 105.984 22.4424 105.864 22.3725C105.744 22.3026 105.648 22.1971 105.591 22.0707C105.457 21.5531 105.403 21.0182 105.429 20.4842V11.2161C105.429 10.2897 105.49 9.70584 105.591 9.48374C105.671 9.36962 105.78 9.27868 105.906 9.22017C106.033 9.16166 106.173 9.13765 106.311 9.15059C106.67 9.15059 106.946 9.22356 107.06 9.48374C107.158 9.87899 107.204 10.2854 107.197 10.6926C107.197 10.9052 107.197 11.2288 107.197 11.489V13.0152H112.102V12.6027C112.102 11.1146 111.943 9.74709 111.645 8.95069C111.347 8.15429 110.715 7.49116 109.741 6.91369C108.622 6.28638 107.356 5.96773 106.073 5.99037C104.771 5.9568 103.491 6.32819 102.409 7.0533C101.457 7.70374 100.889 8.43034 100.692 9.21404C100.449 10.5418 100.343 11.891 100.375 13.2405V18.7264C100.361 19.7381 100.417 20.7494 100.543 21.7534C100.643 22.3974 100.889 23.0104 101.26 23.5461" fill="#181818"/>
<path d="M160.635 27.7402V34.2447H164.731L166 27.7402H160.635Z" fill="#E03638"/>
<path d="M161.355 27.7402H131.272V34.2479H161.355V27.7402Z" fill="#E03638"/>
<path d="M131.272 27.7402H130.149L128.871 34.2447H131.272V27.7402Z" fill="#E03638"/>
<path d="M135.128 30.5396L134.887 31.317H135.55L135.413 32.0118H134.658L134.404 32.8177H133.655L133.909 32.0118H133.275L133.021 32.8177H132.272L132.526 32.0118H131.85L131.99 31.317H132.751L132.992 30.5396H132.329L132.472 29.8447H133.221L133.475 29.042H134.223L133.97 29.8447H134.604L134.858 29.042H135.607L135.353 29.8447H136.029L135.896 30.5396H135.128ZM134.379 30.5396H133.744L133.5 31.317H134.135L134.379 30.5396Z" fill="white"/>
<path d="M139.852 29.0511L139.097 32.8237H138.047L138.24 31.8718H137.685L136.876 32.8237H135.711L136.72 31.6941C136.541 31.6052 136.392 31.4649 136.292 31.2912C136.192 31.1016 136.142 30.8899 136.146 30.6756C136.14 30.3726 136.226 30.0749 136.394 29.8221C136.565 29.5704 136.805 29.3732 137.085 29.2542C137.411 29.1146 137.762 29.0454 138.116 29.0511H139.852ZM137.444 30.0664C137.377 30.1327 137.324 30.2125 137.29 30.3006C137.256 30.3887 137.242 30.483 137.247 30.5773C137.247 30.8946 137.422 31.0405 137.767 31.0405H138.402L138.634 29.8856H137.999C137.798 29.8737 137.599 29.9383 137.444 30.0664Z" fill="white"/>
<path d="M140.928 32.681C140.665 32.5491 140.445 32.3456 140.293 32.094C140.139 31.8329 140.06 31.5342 140.065 31.2309C140.058 30.8231 140.161 30.4208 140.363 30.0665C140.56 29.724 140.849 29.4436 141.198 29.2574C141.573 29.0575 141.994 28.957 142.419 28.9655C142.763 28.9572 143.104 29.0289 143.415 29.1749C143.685 29.3034 143.912 29.5072 144.069 29.7619C144.223 30.0229 144.303 30.3217 144.297 30.6249C144.304 31.0338 144.201 31.4369 143.999 31.7925C143.8 32.1344 143.51 32.4145 143.162 32.6016C142.785 32.7986 142.365 32.8979 141.94 32.8904C141.591 32.9011 141.244 32.8294 140.928 32.681ZM142.641 31.8274C142.822 31.711 142.966 31.5461 143.057 31.3515C143.156 31.1459 143.206 30.9199 143.203 30.6915C143.208 30.5788 143.19 30.4662 143.149 30.3608C143.109 30.2554 143.047 30.1595 142.968 30.0792C142.88 29.9996 142.776 29.9384 142.664 29.8992C142.552 29.8599 142.433 29.8435 142.314 29.8507C142.09 29.844 141.868 29.906 141.68 30.0284C141.501 30.1467 141.357 30.3111 141.264 30.5043C141.167 30.7108 141.119 30.9364 141.121 31.1643C141.115 31.2771 141.133 31.39 141.174 31.4955C141.214 31.601 141.276 31.6968 141.356 31.7767C141.444 31.8567 141.547 31.9184 141.66 31.9581C141.772 31.9979 141.891 32.0149 142.01 32.0083C142.234 32.0145 142.454 31.9513 142.641 31.8274Z" fill="white"/>
<path d="M148.067 31.9706H148.587L148.27 33.5761H147.292L147.445 32.8177H145.027L144.875 33.5761H143.894L144.212 31.9706H144.31C144.535 31.9706 144.732 31.8056 144.897 31.4851C145.097 31.0651 145.247 30.6232 145.344 30.1684L145.614 29.042H148.657L148.067 31.9706ZM145.957 31.355C145.889 31.5779 145.782 31.7865 145.639 31.9706H147.026L147.448 29.886H146.363L146.255 30.3397C146.144 30.7554 146.049 31.0917 145.957 31.355Z" fill="white"/>
<path d="M154.06 29.0508L153.311 32.8265H152.328L152.718 30.8308L151.449 32.4521H150.992L150.307 30.8308L149.913 32.8265H148.933L149.682 29.0508H150.548L151.433 31.2337L153.15 29.0508H154.06Z" fill="white"/>
<path d="M154.876 29.0508H155.926L155.469 31.2718L157.471 29.0508H158.49L157.735 32.8265H156.681L157.141 30.6055L155.139 32.8265H154.121L154.876 29.0508Z" fill="white"/>
<path d="M162.884 29.0508L162.129 32.8265H161.063L161.355 31.3575H159.902L159.61 32.8265H158.544L159.299 29.0508H160.365L160.086 30.4627H161.536L161.818 29.0508H162.884Z" fill="white"/>
<path d="M45.0339 33.0429C45.5917 33.1399 45.8706 33.4527 45.8706 33.9814C45.8706 34.3112 45.7494 34.5635 45.5068 34.7381C45.2692 34.9127 44.9102 35 44.43 35H42.7858V31.2021H44.3864C44.8084 31.2021 45.1382 31.287 45.3759 31.4568C45.6184 31.6217 45.7397 31.8594 45.7397 32.1698C45.7397 32.3929 45.6766 32.5797 45.5505 32.73C45.4292 32.8755 45.257 32.9798 45.0339 33.0429ZM43.1423 32.9337H44.3646C44.6895 32.9337 44.9393 32.8731 45.114 32.7518C45.2886 32.6257 45.3759 32.4463 45.3759 32.2134C45.3759 31.9758 45.2886 31.7987 45.114 31.6823C44.9442 31.5611 44.6944 31.5004 44.3646 31.5004H43.1423V32.9337ZM44.4228 34.7017C45.1455 34.7017 45.5068 34.4568 45.5068 33.9669C45.5068 33.7098 45.4244 33.5206 45.2595 33.3994C45.0946 33.2781 44.8351 33.2175 44.481 33.2175H43.1423V34.7017H44.4228ZM50.4001 33.1884H47.1334C47.1431 33.4843 47.2183 33.7486 47.3589 33.9814C47.4996 34.2094 47.6888 34.3864 47.9264 34.5125C48.1689 34.6386 48.4406 34.7017 48.7413 34.7017C48.9887 34.7017 49.2166 34.658 49.4252 34.5707C49.6386 34.4786 49.8157 34.3452 49.9563 34.1706L50.1673 34.4107C50.0024 34.6095 49.7938 34.7623 49.5416 34.869C49.2942 34.9757 49.025 35.0291 48.734 35.0291C48.3557 35.0291 48.0186 34.9466 47.7227 34.7817C47.4268 34.6168 47.194 34.3889 47.0242 34.0978C46.8593 33.8068 46.7769 33.4746 46.7769 33.1011C46.7769 32.7324 46.8545 32.4026 47.0097 32.1116C47.1698 31.8157 47.388 31.5853 47.6645 31.4204C47.941 31.2555 48.2514 31.173 48.5958 31.173C48.9402 31.173 49.2482 31.2555 49.5198 31.4204C49.7962 31.5805 50.0121 31.806 50.1673 32.097C50.3274 32.3881 50.4074 32.7179 50.4074 33.0865L50.4001 33.1884ZM48.5958 31.4932C48.329 31.4932 48.0889 31.5538 47.8755 31.6751C47.6621 31.7915 47.4899 31.9588 47.3589 32.1771C47.2328 32.3905 47.1601 32.633 47.1407 32.9046H50.0509C50.0363 32.633 49.9636 32.3905 49.8326 32.1771C49.7017 31.9637 49.5295 31.7963 49.3161 31.6751C49.1026 31.5538 48.8625 31.4932 48.5958 31.4932ZM53.5095 31.173C53.8636 31.173 54.1837 31.2555 54.4699 31.4204C54.7561 31.5853 54.9792 31.8133 55.1393 32.1043C55.3042 32.3953 55.3866 32.7276 55.3866 33.1011C55.3866 33.4746 55.3042 33.8092 55.1393 34.1051C54.9792 34.3961 54.7561 34.6241 54.4699 34.789C54.1837 34.9491 53.8636 35.0291 53.5095 35.0291C53.1749 35.0291 52.8717 34.9515 52.6001 34.7963C52.3285 34.6362 52.1175 34.4155 51.9671 34.1342V36.4115H51.6033V31.2021H51.9526V32.097C52.1029 31.806 52.3139 31.5805 52.5855 31.4204C52.862 31.2555 53.17 31.173 53.5095 31.173ZM53.4877 34.7017C53.7787 34.7017 54.0406 34.6338 54.2735 34.498C54.5063 34.3622 54.6882 34.173 54.8191 33.9305C54.9549 33.688 55.0229 33.4115 55.0229 33.1011C55.0229 32.7906 54.9549 32.5142 54.8191 32.2717C54.6882 32.0291 54.5063 31.84 54.2735 31.7042C54.0406 31.5683 53.7787 31.5004 53.4877 31.5004C53.1967 31.5004 52.9348 31.5683 52.7019 31.7042C52.474 31.84 52.2921 32.0291 52.1563 32.2717C52.0253 32.5142 51.9598 32.7906 51.9598 33.1011C51.9598 33.4115 52.0253 33.688 52.1563 33.9305C52.2921 34.173 52.474 34.3622 52.7019 34.498C52.9348 34.6338 53.1967 34.7017 53.4877 34.7017ZM58.1047 35.0291C57.7361 35.0291 57.4063 34.9466 57.1153 34.7817C56.8242 34.6168 56.5963 34.3889 56.4314 34.0978C56.2664 33.802 56.184 33.4697 56.184 33.1011C56.184 32.7276 56.2664 32.3953 56.4314 32.1043C56.5963 31.8084 56.8242 31.5805 57.1153 31.4204C57.4063 31.2555 57.7361 31.173 58.1047 31.173C58.4103 31.173 58.6868 31.2337 58.9342 31.3549C59.1864 31.4713 59.3901 31.6435 59.5453 31.8715L59.2761 32.0679C59.1403 31.8788 58.9705 31.7381 58.7668 31.646C58.568 31.5489 58.3473 31.5004 58.1047 31.5004C57.8089 31.5004 57.5421 31.5683 57.3044 31.7042C57.0716 31.8351 56.8873 32.0219 56.7515 32.2644C56.6205 32.5069 56.555 32.7858 56.555 33.1011C56.555 33.4163 56.6205 33.6952 56.7515 33.9378C56.8873 34.1803 57.0716 34.3694 57.3044 34.5053C57.5421 34.6362 57.8089 34.7017 58.1047 34.7017C58.3473 34.7017 58.568 34.6556 58.7668 34.5635C58.9705 34.4665 59.1403 34.3234 59.2761 34.1342L59.5453 34.3306C59.3901 34.5586 59.1864 34.7332 58.9342 34.8545C58.6868 34.9709 58.4103 35.0291 58.1047 35.0291ZM60.6195 31.2021H60.9833V34.4398L63.6898 31.2021H64.0099V35H63.6461V31.7624L60.9396 35H60.6195V31.2021ZM68.3799 31.2021V35H68.0452V33.6904H66.7793C66.692 33.6904 66.6289 33.688 66.5901 33.6831L65.6516 35H65.2514L66.2336 33.6395C65.9232 33.5716 65.6855 33.4382 65.5206 33.2393C65.3557 33.0404 65.2732 32.7834 65.2732 32.4681C65.2732 32.051 65.4115 31.7357 65.688 31.5223C65.9693 31.3089 66.3525 31.2021 66.8375 31.2021H68.3799ZM65.637 32.4826C65.637 33.1035 66.0299 33.4139 66.8157 33.4139H68.0452V31.5223H66.8593C66.0445 31.5223 65.637 31.8424 65.637 32.4826ZM72.712 29.9071V35H72.3409V30.2418H71.0968V29.9071H72.712ZM75.9899 35.0364C75.6019 35.0364 75.2551 34.9321 74.9495 34.7235C74.6488 34.5101 74.4135 34.2094 74.2438 33.8214C74.0789 33.4333 73.9964 32.9774 73.9964 32.4535C73.9964 31.9297 74.0789 31.4738 74.2438 31.0857C74.4135 30.6977 74.6488 30.3994 74.9495 30.1908C75.2551 29.9774 75.6019 29.8707 75.9899 29.8707C76.3779 29.8707 76.7223 29.9774 77.023 30.1908C77.3286 30.3994 77.5639 30.6977 77.7288 31.0857C77.8985 31.4738 77.9834 31.9297 77.9834 32.4535C77.9834 32.9774 77.8985 33.4333 77.7288 33.8214C77.5639 34.2094 77.3286 34.5101 77.023 34.7235C76.7223 34.9321 76.3779 35.0364 75.9899 35.0364ZM75.9899 34.6944C76.31 34.6944 76.5914 34.6071 76.8339 34.4325C77.0812 34.253 77.2728 33.996 77.4087 33.6613C77.5445 33.3218 77.6124 32.9192 77.6124 32.4535C77.6124 31.9879 77.5445 31.5877 77.4087 31.2531C77.2728 30.9135 77.0812 30.6565 76.8339 30.4819C76.5914 30.3024 76.31 30.2127 75.9899 30.2127C75.6698 30.2127 75.386 30.3024 75.1387 30.4819C74.8961 30.6565 74.707 30.9135 74.5712 31.2531C74.4354 31.5877 74.3675 31.9879 74.3675 32.4535C74.3675 32.9192 74.4354 33.3218 74.5712 33.6613C74.707 33.996 74.8961 34.253 75.1387 34.4325C75.386 34.6071 75.6698 34.6944 75.9899 34.6944ZM80.4766 28.874H80.8112L78.4103 35.7276H78.0756L80.4766 28.874ZM84.3713 34.6653V35H80.8717V34.7381L83.0253 32.5991C83.3066 32.3177 83.4958 32.0776 83.5928 31.8788C83.6946 31.6751 83.7456 31.4665 83.7456 31.2531C83.7456 30.9281 83.634 30.6734 83.4109 30.4891C83.1926 30.3048 82.8749 30.2127 82.4578 30.2127C82.1377 30.2127 81.8563 30.2612 81.6138 30.3582C81.3762 30.4552 81.17 30.6031 80.9954 30.802L80.7335 30.5692C80.9275 30.346 81.1724 30.1739 81.4683 30.0526C81.769 29.9313 82.1086 29.8707 82.4869 29.8707C82.9865 29.8707 83.3842 29.992 83.6801 30.2345C83.976 30.477 84.1239 30.8044 84.1239 31.2167C84.1239 31.4786 84.0657 31.7284 83.9493 31.9661C83.8329 32.2037 83.6146 32.4802 83.2945 32.7955L81.4174 34.6653H84.3713ZM86.6229 32.1261C87.1855 32.1407 87.6124 32.2789 87.9034 32.5409C88.1993 32.7979 88.3472 33.1399 88.3472 33.5667C88.3472 33.8529 88.2793 34.1075 88.1435 34.3306C88.0077 34.5489 87.804 34.7211 87.5323 34.8472C87.2656 34.9733 86.943 35.0364 86.5647 35.0364C86.1961 35.0364 85.8493 34.9757 85.5243 34.8545C85.1993 34.7284 84.9471 34.561 84.7676 34.3525L84.9568 34.0687C85.1217 34.253 85.3448 34.4034 85.6261 34.5198C85.9123 34.6362 86.2252 34.6944 86.5647 34.6944C87.0158 34.6944 87.3626 34.595 87.6051 34.3961C87.8476 34.1924 87.9689 33.9159 87.9689 33.5667C87.9689 33.2126 87.8452 32.9362 87.5978 32.7373C87.3505 32.5384 86.9794 32.439 86.4847 32.439H86.1645V32.1698L87.6706 30.2418H84.9568V29.9071H88.1508V30.169L86.6229 32.1261ZM89.1811 32.8828H91.051V33.2102H89.1811V32.8828ZM93.9586 35.0364C93.5706 35.0364 93.2238 34.9321 92.9182 34.7235C92.6175 34.5101 92.3823 34.2094 92.2125 33.8214C92.0476 33.4333 91.9651 32.9774 91.9651 32.4535C91.9651 31.9297 92.0476 31.4738 92.2125 31.0857C92.3823 30.6977 92.6175 30.3994 92.9182 30.1908C93.2238 29.9774 93.5706 29.8707 93.9586 29.8707C94.3467 29.8707 94.691 29.9774 94.9918 30.1908C95.2973 30.3994 95.5326 30.6977 95.6975 31.0857C95.8673 31.4738 95.9521 31.9297 95.9521 32.4535C95.9521 32.9774 95.8673 33.4333 95.6975 33.8214C95.5326 34.2094 95.2973 34.5101 94.9918 34.7235C94.691 34.9321 94.3467 35.0364 93.9586 35.0364ZM93.9586 34.6944C94.2788 34.6944 94.5601 34.6071 94.8026 34.4325C95.05 34.253 95.2416 33.996 95.3774 33.6613C95.5132 33.3218 95.5811 32.9192 95.5811 32.4535C95.5811 31.9879 95.5132 31.5877 95.3774 31.2531C95.2416 30.9135 95.05 30.6565 94.8026 30.4819C94.5601 30.3024 94.2788 30.2127 93.9586 30.2127C93.6385 30.2127 93.3548 30.3024 93.1074 30.4819C92.8649 30.6565 92.6757 30.9135 92.5399 31.2531C92.4041 31.5877 92.3362 31.9879 92.3362 32.4535C92.3362 32.9192 92.4041 33.3218 92.5399 33.6613C92.6757 33.996 92.8649 34.253 93.1074 34.4325C93.3548 34.6071 93.6385 34.6944 93.9586 34.6944ZM97.0032 35.0291C96.9207 35.0291 96.848 35 96.7849 34.9418C96.7267 34.8787 96.6976 34.8036 96.6976 34.7163C96.6976 34.6289 96.7267 34.5562 96.7849 34.498C96.848 34.4398 96.9207 34.4107 97.0032 34.4107C97.0856 34.4107 97.156 34.4398 97.2142 34.498C97.2772 34.5562 97.3088 34.6289 97.3088 34.7163C97.3088 34.8036 97.2772 34.8787 97.2142 34.9418C97.156 35 97.0856 35.0291 97.0032 35.0291ZM100.932 32.3371C101.281 32.4293 101.55 32.5845 101.739 32.8028C101.933 33.021 102.03 33.2878 102.03 33.6031C102.03 34.0493 101.858 34.401 101.514 34.658C101.169 34.9103 100.696 35.0364 100.095 35.0364C99.4984 35.0364 99.0279 34.9103 98.6836 34.658C98.344 34.401 98.1743 34.0493 98.1743 33.6031C98.1743 33.283 98.2664 33.0162 98.4507 32.8028C98.6399 32.5845 98.9091 32.4293 99.2583 32.3371C98.9673 32.2401 98.7442 32.0946 98.589 31.9006C98.4338 31.7066 98.3562 31.4689 98.3562 31.1876C98.3562 30.7802 98.5138 30.46 98.8291 30.2272C99.1443 29.9895 99.5663 29.8707 100.095 29.8707C100.624 29.8707 101.048 29.9895 101.368 30.2272C101.688 30.4649 101.848 30.785 101.848 31.1876C101.848 31.4641 101.768 31.7017 101.608 31.9006C101.453 32.0946 101.228 32.2401 100.932 32.3371ZM98.7272 31.1949C98.7272 31.5004 98.846 31.743 99.0837 31.9224C99.3262 32.1019 99.6633 32.1916 100.095 32.1916C100.527 32.1916 100.864 32.1043 101.106 31.9297C101.354 31.7502 101.477 31.5077 101.477 31.2021C101.477 30.8917 101.351 30.6468 101.099 30.4673C100.852 30.283 100.517 30.1908 100.095 30.1908C99.673 30.1908 99.3384 30.2806 99.091 30.46C98.8485 30.6395 98.7272 30.8844 98.7272 31.1949ZM100.095 34.7163C100.585 34.7163 100.968 34.6168 101.245 34.418C101.521 34.2191 101.659 33.9475 101.659 33.6031C101.659 33.2636 101.521 32.9944 101.245 32.7955C100.968 32.5966 100.585 32.4972 100.095 32.4972C99.61 32.4972 99.2292 32.5966 98.9528 32.7955C98.6811 32.9944 98.5453 33.2636 98.5453 33.6031C98.5453 33.9475 98.6811 34.2191 98.9528 34.418C99.2244 34.6168 99.6051 34.7163 100.095 34.7163ZM103.199 35.0291C103.116 35.0291 103.044 35 102.981 34.9418C102.922 34.8787 102.893 34.8036 102.893 34.7163C102.893 34.6289 102.922 34.5562 102.981 34.498C103.044 34.4398 103.116 34.4107 103.199 34.4107C103.281 34.4107 103.352 34.4398 103.41 34.498C103.473 34.5562 103.504 34.6289 103.504 34.7163C103.504 34.8036 103.473 34.8787 103.41 34.9418C103.352 35 103.281 35.0291 103.199 35.0291ZM106.243 35.0364C105.855 35.0364 105.508 34.9321 105.203 34.7235C104.902 34.5101 104.667 34.2094 104.497 33.8214C104.332 33.4333 104.25 32.9774 104.25 32.4535C104.25 31.9297 104.332 31.4738 104.497 31.0857C104.667 30.6977 104.902 30.3994 105.203 30.1908C105.508 29.9774 105.855 29.8707 106.243 29.8707C106.631 29.8707 106.976 29.9774 107.276 30.1908C107.582 30.3994 107.817 30.6977 107.982 31.0857C108.152 31.4738 108.237 31.9297 108.237 32.4535C108.237 32.9774 108.152 33.4333 107.982 33.8214C107.817 34.2094 107.582 34.5101 107.276 34.7235C106.976 34.9321 106.631 35.0364 106.243 35.0364ZM106.243 34.6944C106.563 34.6944 106.845 34.6071 107.087 34.4325C107.335 34.253 107.526 33.996 107.662 33.6613C107.798 33.3218 107.866 32.9192 107.866 32.4535C107.866 31.9879 107.798 31.5877 107.662 31.2531C107.526 30.9135 107.335 30.6565 107.087 30.4819C106.845 30.3024 106.563 30.2127 106.243 30.2127C105.923 30.2127 105.639 30.3024 105.392 30.4819C105.15 30.6565 104.96 30.9135 104.825 31.2531C104.689 31.5877 104.621 31.9879 104.621 32.4535C104.621 32.9192 104.689 33.3218 104.825 33.6613C104.96 33.996 105.15 34.253 105.392 34.4325C105.639 34.6071 105.923 34.6944 106.243 34.6944Z" fill="#181818"/>
</svg>
