<svg width="208" height="45" viewBox="0 0 208 45" fill="none" xmlns="http://www.w3.org/2000/svg">
<g clip-path="url(#clip0_8684_104338)">
<path d="M207.442 36.8555L205.869 44.9167H147.809L149.382 36.8555H207.442Z" fill="#E03638"/>
<path d="M158.598 38.7461H162.53V43.0284H161.818V41.4988H160.615L158.708 43.0284H157.736V42.8829L159.471 41.4988H158.605C158.377 41.4997 158.157 41.4123 157.992 41.255C157.835 41.0933 157.744 40.8787 157.736 40.6533V39.6113C157.736 39.4971 157.758 39.3839 157.802 39.2785C157.846 39.1731 157.91 39.0776 157.992 38.9978C158.071 38.9171 158.165 38.8532 158.269 38.8099C158.373 38.7667 158.485 38.745 158.598 38.7461ZM158.598 39.4579C158.578 39.4571 158.558 39.4613 158.54 39.4702C158.522 39.4792 158.507 39.4925 158.495 39.509C158.48 39.5216 158.468 39.5371 158.459 39.5547C158.45 39.5723 158.445 39.5916 158.444 39.6113V40.6297C158.444 40.6513 158.449 40.6725 158.458 40.6922C158.466 40.7118 158.479 40.7294 158.495 40.7438C158.509 40.7572 158.525 40.7676 158.542 40.7744C158.56 40.7812 158.579 40.7841 158.598 40.7831H161.81V39.4579H158.598Z" fill="white"/>
<path d="M188.437 41.4987H187.572C187.344 41.4996 187.124 41.4123 186.959 41.2549C186.801 41.0933 186.71 40.8787 186.703 40.6533V38.7461H187.419V40.6297C187.419 40.6512 187.423 40.6725 187.432 40.6921C187.441 40.7118 187.454 40.7294 187.47 40.7437C187.483 40.7571 187.499 40.7676 187.517 40.7743C187.534 40.7811 187.553 40.7841 187.572 40.783H190.785V38.7461H191.497V43.0284H190.785V41.4987H188.425H188.437Z" fill="white"/>
<path d="M169.472 39.2262C169.485 39.2963 169.492 39.3674 169.492 39.4386V43.0092H168.776V39.5526L167.156 42.6198C166.999 42.899 166.814 43.0131 166.594 43.0131C166.374 43.0131 166.173 42.9226 166.024 42.6198L164.4 39.5526V43.0092H163.688V39.4386C163.685 39.3626 163.696 39.2867 163.719 39.2145C163.745 39.1107 163.798 39.0157 163.873 38.9392C164.009 38.8076 164.191 38.7343 164.38 38.7347C164.503 38.7313 164.624 38.7671 164.726 38.8369C164.826 38.9047 164.907 38.9967 164.962 39.1043L166.582 42.1637L168.202 39.1043C168.259 38.9936 168.343 38.899 168.446 38.8291C168.545 38.7605 168.664 38.7248 168.784 38.7268C168.879 38.7241 168.973 38.7409 169.061 38.7761C169.149 38.8112 169.229 38.8641 169.295 38.9313C169.371 39.0086 169.426 39.1031 169.457 39.2066L169.472 39.2262Z" fill="white"/>
<path d="M174.977 39.0805C175.082 39.1827 175.165 39.3051 175.221 39.4402C175.277 39.5754 175.305 39.7206 175.303 39.8669V41.9039C175.305 42.0514 175.276 42.1977 175.218 42.3332C175.16 42.4687 175.074 42.5904 174.965 42.6904C174.863 42.7955 174.741 42.8787 174.606 42.9349C174.47 42.991 174.325 43.0189 174.179 43.0167H171.631C171.336 43.0144 171.054 42.8973 170.844 42.6904C170.739 42.5886 170.655 42.4663 170.599 42.331C170.543 42.1957 170.515 42.0503 170.518 41.9039V39.8669C170.516 39.7206 170.544 39.5754 170.6 39.4402C170.656 39.3051 170.739 39.1827 170.844 39.0805C171.053 38.8721 171.336 38.7548 171.631 38.7541H174.179C174.327 38.7513 174.474 38.7788 174.612 38.8349C174.749 38.891 174.873 38.9746 174.977 39.0805ZM174.466 39.5799C174.429 39.5411 174.384 39.5102 174.335 39.4893C174.285 39.4683 174.232 39.4577 174.179 39.458H171.631C171.578 39.4572 171.526 39.4668 171.477 39.4864C171.429 39.506 171.385 39.5351 171.347 39.572C171.307 39.6096 171.275 39.6553 171.253 39.7061C171.231 39.7569 171.221 39.8117 171.222 39.8669V41.9039C171.22 41.957 171.23 42.0098 171.249 42.0591C171.269 42.1084 171.298 42.1533 171.336 42.191C171.374 42.2308 171.419 42.2622 171.47 42.2832C171.521 42.3042 171.576 42.3143 171.631 42.3129H174.179C174.285 42.3118 174.386 42.2727 174.466 42.2028C174.506 42.1644 174.538 42.1179 174.559 42.0664C174.58 42.0149 174.59 41.9595 174.588 41.9039V39.8669C174.588 39.8133 174.577 39.7602 174.556 39.7108C174.535 39.6615 174.505 39.6169 174.466 39.5799Z" fill="white"/>
<path d="M185.657 38.7461H184.941V40.783H181.728C181.71 40.784 181.692 40.781 181.675 40.7742C181.658 40.7674 181.643 40.757 181.63 40.7437C181.614 40.7294 181.601 40.7118 181.592 40.6921C181.584 40.6725 181.579 40.6512 181.579 40.6297V38.7461H180.863V40.6533C180.864 40.7657 180.888 40.8768 180.932 40.9801C180.976 41.0835 181.04 41.1772 181.12 41.2558C181.201 41.3343 181.296 41.3962 181.4 41.4379C181.504 41.4796 181.616 41.5003 181.728 41.4987H184.941V41.892C184.943 41.9469 184.932 42.0015 184.911 42.0523C184.89 42.1031 184.859 42.149 184.819 42.1869C184.741 42.2569 184.641 42.2961 184.536 42.297H180.863V43.0127H184.536C184.682 43.0148 184.828 42.9869 184.963 42.9308C185.098 42.8747 185.221 42.7915 185.323 42.6863C185.428 42.5894 185.513 42.4715 185.57 42.3401C185.628 42.2088 185.657 42.0668 185.657 41.9234V38.7461Z" fill="white"/>
<path d="M176.972 40.9877V43.0286H176.26V39.8355C176.26 39.6921 176.289 39.5503 176.347 39.4189C176.404 39.2876 176.488 39.1697 176.594 39.0726C176.696 38.9671 176.818 38.8836 176.953 38.8275C177.089 38.7713 177.234 38.7437 177.38 38.7463H180.11V39.458H177.38C177.275 39.46 177.175 39.5006 177.097 39.572C177.057 39.6096 177.025 39.6553 177.003 39.7061C176.981 39.7569 176.971 39.8117 176.972 39.867V40.9877Z" fill="white"/>
<path d="M199.22 38.7462V42.3128L202.574 38.9507C202.709 38.8224 202.887 38.7494 203.073 38.7462C203.169 38.7425 203.264 38.7596 203.352 38.7962C203.441 38.8329 203.52 38.8883 203.585 38.9585C203.652 39.023 203.706 39.1006 203.742 39.1864C203.779 39.2723 203.797 39.3647 203.797 39.458V43.0285H203.097V39.458L199.715 42.8083C199.65 42.8741 199.572 42.9261 199.486 42.9612C199.4 42.9963 199.308 43.0139 199.216 43.0128C199.026 43.0122 198.843 42.939 198.705 42.8083C198.636 42.742 198.582 42.6625 198.546 42.5746C198.509 42.4867 198.491 42.3923 198.492 42.2971V38.7305L199.22 38.7462Z" fill="white"/>
<path d="M193.003 38.7462V42.3128L196.357 38.9507C196.492 38.8224 196.67 38.7494 196.857 38.7462C196.952 38.7425 197.047 38.7596 197.135 38.7962C197.224 38.8329 197.303 38.8883 197.368 38.9585C197.435 39.023 197.489 39.1006 197.525 39.1864C197.562 39.2723 197.58 39.3647 197.58 39.458V43.0285H196.868V39.458L193.514 42.8083C193.449 42.8745 193.371 42.9267 193.285 42.9619C193.199 42.997 193.107 43.0143 193.015 43.0128C192.825 43.0114 192.642 42.9384 192.503 42.8083C192.435 42.742 192.381 42.6625 192.345 42.5746C192.308 42.4867 192.29 42.3923 192.291 42.2971V38.7305L193.003 38.7462Z" fill="white"/>
<path d="M201.901 38.3262L202.338 37.8897L201.874 37.4336L201.425 37.8544C201.393 37.8879 201.354 37.9146 201.311 37.933C201.28 37.9432 201.249 37.9511 201.217 37.9566C201.197 37.9584 201.178 37.9584 201.158 37.9566C201.137 37.9585 201.116 37.9585 201.095 37.9566C201.064 37.9511 201.034 37.9432 201.005 37.933C200.961 37.9147 200.92 37.888 200.887 37.8544L200.493 37.4336L200.014 37.9369L200.407 38.3302C200.416 38.3402 200.426 38.3482 200.438 38.3538C200.476 38.3898 200.517 38.4227 200.56 38.4521C200.597 38.4754 200.635 38.4964 200.674 38.515C200.691 38.5245 200.708 38.5324 200.725 38.5386C200.84 38.5859 200.963 38.6113 201.087 38.6133H201.178C201.298 38.6113 201.417 38.586 201.528 38.5386C201.544 38.5323 201.56 38.5244 201.575 38.515C201.615 38.4964 201.655 38.4754 201.693 38.4521C201.736 38.4227 201.777 38.3898 201.815 38.3538L201.846 38.3302L201.901 38.3262Z" fill="white"/>
<path d="M151.14 41.4476H152.288L152.544 40.323H151.399L151.564 39.6112H152.709L152.909 38.7422H153.767L153.566 39.6112H154.809L155.005 38.7422H155.862L155.666 39.6112H156.81L156.645 40.323H155.501L155.241 41.4476H156.385L156.224 42.1633H155.076L154.879 43.0284H154.022L154.219 42.1633H152.98L152.78 43.0284H151.922L152.123 42.1633H150.979L151.14 41.4476ZM154.643 40.323H153.401L153.145 41.4476H154.384L154.643 40.323Z" fill="white"/>
<path d="M76.6332 7.80859H67.6675L64.498 31.32H70.9077L71.2302 27.0416H73.393L73.7076 31.3043H80.1841L76.6332 7.80859ZM73.3694 22.7514H71.2302L72.1582 13.0307C72.1582 13.0307 73.452 22.6964 73.3694 22.7514Z" fill="white"/>
<path d="M143.409 27.0142C143.526 27.8443 143.858 28.6293 144.373 29.2911C145.013 30.0891 145.859 30.698 146.819 31.0527C148.02 31.525 149.303 31.7549 150.594 31.7291C151.739 31.7478 152.878 31.5518 153.952 31.1511C154.847 30.8104 155.634 30.2343 156.229 29.4837C156.818 28.7445 157.161 27.3485 157.279 26.6485C157.436 25.5431 157.498 24.4261 157.463 23.31V7.78516H151.25V25.2644C151.295 25.9846 151.237 26.7077 151.077 27.4114C151.02 27.5587 150.916 27.6829 150.781 27.7647C150.645 27.8465 150.487 27.8813 150.33 27.8636C150.188 27.8793 150.044 27.8498 149.919 27.7792C149.794 27.7087 149.694 27.6006 149.634 27.4704C149.491 26.8455 149.436 26.2034 149.473 25.5632V7.79302H143.26V21.5562C143.26 24.1318 143.307 26.216 143.401 27.0064" fill="white"/>
<path d="M205.512 7.78125H199.307V31.3084H205.512V7.78125Z" fill="white"/>
<path d="M186.906 21.277H188.766V31.3044H194.968V7.78516H188.766V16.161H186.906V7.78516H180.701V31.3044H186.906V21.277Z" fill="white"/>
<path d="M164.717 30.8028C166.118 31.4733 167.66 31.7931 169.212 31.7348C170.758 31.7839 172.288 31.4042 173.632 30.6377C174.667 30.0757 175.481 29.1786 175.94 28.0934C176.29 27.13 176.463 24.8021 176.463 22.4938V21.5736H170.25V25.1127C170.296 25.8976 170.224 26.6848 170.038 27.4485C169.937 27.6011 169.801 27.7263 169.64 27.8129C169.479 27.8996 169.3 27.9449 169.117 27.9449C168.935 27.9449 168.755 27.8996 168.595 27.8129C168.434 27.7263 168.297 27.6011 168.197 27.4485C168.056 27.1222 168.012 26.4143 168.012 25.329V14.291C168.012 13.1585 168.056 12.0299 168.197 11.6838C168.339 11.3378 168.63 11.1884 169.137 11.1884C169.644 11.1884 169.923 11.3221 170.045 11.5816C170.167 11.8411 170.25 12.9618 170.25 14.0826V17.9716H176.451V15.86C176.451 13.7719 176.258 11.8529 175.889 10.8698C175.436 9.78951 174.606 8.91053 173.553 8.39641C172.191 7.69326 170.669 7.35587 169.137 7.41726C167.88 7.39231 166.629 7.60718 165.452 8.05036C164.496 8.41165 163.653 9.02106 163.01 9.81598C162.464 10.4837 162.103 11.2841 161.964 12.1361C161.82 13.4653 161.758 14.8022 161.78 16.1392V22.6432C161.78 24.8335 161.98 27.1458 162.366 28.2389C162.785 29.3698 163.633 30.2906 164.725 30.8028" fill="white"/>
<path d="M88.7879 31.2926L88.784 15.815L90.9822 31.2887H94.7258L97.0616 15.874V31.2887H102.52L102.488 7.78516H94.4544L92.9247 18.7406L91.3951 7.78516H83.3613L83.3653 31.2887L88.7879 31.2926Z" fill="white"/>
<path d="M53.3219 31.3121H59.0552V22.7554L63.5931 7.80469H57.8873L56.2987 17.0417L54.655 7.80469H48.9609L53.3219 22.7554V31.3121Z" fill="white"/>
<path d="M112.558 27.0338H114.721L115.032 31.2965H121.508L117.969 7.79688H108.996L105.826 31.3083H112.236L112.558 27.0338ZM113.482 13.0347C113.482 13.0347 114.776 22.7043 114.698 22.7515H112.558L113.482 13.0347Z" fill="white"/>
<path d="M125.497 29.1701C125.992 29.9449 126.678 30.5788 127.49 31.0104C128.39 31.4824 129.392 31.7242 130.408 31.7143C131.285 31.7143 132.213 31.5845 132.807 31.1559C133.513 30.7115 134.079 30.0762 134.439 29.3234L135.009 31.2896H138.941V18.8399H131.765V21.9661H132.866V25.1866C132.912 25.901 132.828 26.6179 132.618 27.3022C132.541 27.4782 132.41 27.6252 132.244 27.722C132.078 27.8188 131.885 27.8605 131.694 27.841C131.522 27.8595 131.348 27.8236 131.197 27.7383C131.046 27.6529 130.925 27.5224 130.852 27.3651C130.683 26.7148 130.616 26.0424 130.652 25.3715V13.8851C130.652 12.7369 130.727 12.0133 130.852 11.742C130.951 11.5995 131.085 11.4858 131.242 11.4126C131.399 11.3393 131.573 11.3092 131.745 11.3252C132.189 11.3252 132.531 11.4156 132.673 11.742C132.803 12.2295 132.867 12.7319 132.866 13.2363C132.866 13.4958 132.866 13.9009 132.866 14.2194V16.1108H138.945V15.5996C138.945 13.7593 138.749 12.0605 138.379 11.0735C138.009 10.0865 137.227 9.26857 136.019 8.55289C134.632 7.77639 133.063 7.38409 131.474 7.41644C129.86 7.37664 128.274 7.83677 126.932 8.73377C125.752 9.54383 125.048 10.4404 124.804 11.4117C124.503 13.0572 124.371 14.7294 124.411 16.4018V23.2126C124.386 24.4605 124.446 25.7087 124.592 26.9483C124.717 27.7466 125.02 28.5062 125.481 29.1701" fill="white"/>
<circle cx="20" cy="20" r="17" fill="white"/>
<path d="M19.9962 3.85552e-07C23.9521 -0.000776174 27.8193 1.17154 31.1088 3.3687C34.3983 5.56586 36.9624 8.68915 38.4768 12.3436C39.9911 15.9981 40.3878 20.0195 39.6165 23.8994C38.8452 27.7793 36.9407 31.3433 34.1438 34.1407C31.3469 36.9382 27.7832 38.8434 23.9034 39.6154C20.0237 40.3874 16.0021 39.9916 12.3473 38.478C8.69256 36.9643 5.56873 34.4009 3.37091 31.1118C1.17309 27.8227 7.62236e-08 23.9558 0 20C-1.02195e-07 14.6964 2.10662 9.60987 5.85652 5.85925C9.60643 2.10864 14.6925 0.00104154 19.9962 3.85552e-07ZM29.8746 14.04C30.3166 13.598 30.565 12.9985 30.565 12.3734C30.565 11.7483 30.3166 11.1487 29.8746 10.7067C29.4326 10.2647 28.833 10.0164 28.2079 10.0164C27.5828 10.0164 26.9833 10.2647 26.5412 10.7067L20.33 16.9179H19.851L13.6397 10.7067C13.1977 10.2642 12.5979 10.0153 11.9724 10.015C11.3469 10.0146 10.7469 10.2627 10.3044 10.7047C9.86181 11.1468 9.61298 11.7465 9.61261 12.372C9.61225 12.9975 9.86037 13.5975 10.3024 14.04L17.6837 21.4134V31.967C17.7086 32.5808 17.97 33.1611 18.4131 33.5866C18.8562 34.0121 19.4467 34.2497 20.061 34.2497C20.6753 34.2497 21.2658 34.0121 21.7089 33.5866C22.152 33.1611 22.4134 32.5808 22.4383 31.967V21.4723L29.8746 14.04Z" fill="#E03638"/>
</g>
<defs>
<clipPath id="clip0_8684_104338">
<rect width="207.442" height="44.919" fill="white"/>
</clipPath>
</defs>
</svg>
