<svg width="33" height="33" viewBox="0 0 33 33" fill="none" xmlns="http://www.w3.org/2000/svg">
<path d="M16.1596 0C19.3555 6.16056e-08 22.4797 0.947664 25.1371 2.72316C27.7944 4.49866 29.8656 7.02226 31.0888 9.97486C32.312 12.9275 32.6322 16.1764 32.0089 19.311C31.3857 22.4456 29.8469 25.325 27.5873 27.585C25.3276 29.8451 22.4486 31.3844 19.3141 32.0083C16.1797 32.6322 12.9306 32.3126 9.97779 31.09C7.02495 29.8674 4.50095 27.7967 2.72493 25.1397C0.948905 22.4827 0.000627515 19.3587 0 16.1628C-8.25872e-08 11.8767 1.70242 7.76611 4.73284 4.73509C7.76327 1.70407 11.8735 0.000841399 16.1596 0ZM24.1426 11.3463C24.4998 10.9891 24.7005 10.5046 24.7005 9.99941C24.7005 9.49422 24.4998 9.00973 24.1426 8.65251C23.7854 8.29529 23.3009 8.09461 22.7957 8.09461C22.2905 8.09461 21.806 8.29529 21.4488 8.65251L16.4293 13.6689H16.0422L11.0227 8.65251C10.8458 8.47542 10.6358 8.33491 10.4046 8.23899C10.1734 8.14308 9.9256 8.09363 9.67531 8.09348C9.42502 8.09334 9.17715 8.14249 8.94586 8.23814C8.71456 8.33378 8.50437 8.47405 8.32729 8.65092C8.1502 8.8278 8.00969 9.03783 7.91377 9.26901C7.81785 9.50019 7.76841 9.748 7.76826 9.99829C7.76811 10.2486 7.81727 10.4964 7.91291 10.7277C8.00856 10.959 8.14882 11.1692 8.3257 11.3463L14.2908 17.3114V25.8338C14.3109 26.3298 14.5222 26.7988 14.8802 27.1426C15.2383 27.4865 15.7155 27.6785 16.212 27.6785C16.7084 27.6785 17.1856 27.4865 17.5437 27.1426C17.9018 26.7988 18.113 26.3298 18.1331 25.8338V17.3526L24.1426 11.3463Z" fill="#E03638"/>
</svg>
