<svg width="14" height="15" viewBox="0 0 14 15" fill="none" xmlns="http://www.w3.org/2000/svg">
<path d="M13.7109 6.84375L13.1172 6.21875C12.9609 6.0625 12.7109 6.0625 12.5859 6.21875L7.74219 11.0625V0.375C7.74219 0.1875 7.55469 0 7.36719 0H6.49219C6.27344 0 6.11719 0.1875 6.11719 0.375V11.0625L1.24219 6.21875C1.11719 6.0625 0.867188 6.0625 0.710938 6.21875L0.117188 6.84375C-0.0390625 6.96875 -0.0390625 7.21875 0.117188 7.375L6.64844 13.9062C6.80469 14.0625 7.02344 14.0625 7.17969 13.9062L13.7109 7.375C13.8672 7.21875 13.8672 6.96875 13.7109 6.84375Z" fill="#333333"/>
</svg>
