<svg width="465" height="184" viewBox="0 0 465 184" fill="none" xmlns="http://www.w3.org/2000/svg">
<g clip-path="url(#clip0_1324_422)">
<path d="M158.507 165.883C148.104 160.548 147.728 149.474 153.206 141.18C155.796 137.262 158.605 133.489 160.791 130.396C154.278 128.42 147.149 126.257 140.029 124.092C140.002 123.531 139.976 122.981 139.958 122.419C140.906 121.761 141.758 120.883 142.805 120.464C155.901 115.292 166.448 106.186 177.554 97.9595C178.895 96.9621 179.123 94.5072 179.941 92.767C182.945 86.4325 185.939 80.0991 189.042 73.8233C189.527 72.8382 190.471 71.9792 191.388 71.3148C193.908 69.4905 196.921 66.9019 199.564 69.7866C200.551 70.8665 199.362 75.1291 197.938 77.0229C192.836 83.8416 186.699 89.9188 181.999 96.9812C179.338 100.978 178.568 106.298 177.233 111.102C176.634 113.239 176.744 115.573 176.54 117.732C178.526 118.078 180.675 118.443 183.627 118.954C191.858 108.677 200.579 97.7055 209.389 86.8043C211.458 84.2486 213.536 81.5912 216.069 79.5437C221.338 75.2834 221.065 69.5852 219.584 64.3144C217.807 58.0016 213.755 52.9598 206.777 51.302C195.836 48.691 185.604 51.7157 175.576 55.5116C157.975 62.1631 142.694 72.6951 128.341 84.6565C127.087 85.7039 125.82 86.7227 124.656 87.6787C125.931 89.6504 128.566 91.8814 128.328 93.7533C127.948 96.7805 125.665 99.5734 124.211 102.468C123.243 104.387 121.814 106.241 121.446 108.28C118.971 122.196 113.016 134.727 105.564 146.452C102.881 150.683 98.2164 153.853 93.9819 156.831C89.9515 159.663 85.429 157.236 84.3449 152.331C82.7233 145.052 84.7493 138.372 87.7024 131.863C88.9115 129.189 90.3756 126.625 91.6971 124.049C82.8042 127.487 74.1034 131.516 65.0093 134.202C49.438 138.806 33.5482 141.434 17.6583 135.36C14.6629 134.24 12.0131 132.142 9.20382 130.476C8.96476 128.49 8.7257 126.504 8.48664 124.519C14.6378 112.447 24.9129 104.26 35.5206 96.5769C47.4337 87.941 60.1007 80.4633 74.1712 75.8584C86.2554 71.9056 98.5755 70.0799 110.246 77.0851C113.46 79.0148 115.783 82.4115 118.527 85.123C119.555 86.1373 120.639 87.1048 121.567 87.9599C134.726 76.0315 148.296 65.9271 163.745 58.5575C173.508 53.8972 183.442 50.0723 194.377 48.6149C209.624 46.5879 223.702 54.2602 222.434 73.3485C230.125 67.3763 237.924 61.5423 245.497 55.4233C255.769 47.126 267.34 41.1702 279.591 36.5931C288.12 33.4006 296.845 30.4063 305.73 28.5811C311.332 27.4233 317.469 28.1147 323.258 28.848C327.585 29.4047 330.622 32.2924 330.41 37.3037C330.119 38.064 329.818 38.8254 329.526 39.5857C326.478 43.4678 323.431 47.35 320.373 51.2333C319.864 50.8514 319.354 50.4696 318.845 50.0877C321.24 47.1403 323.724 44.2628 325.999 41.2392C329.983 35.9349 327.91 31.4304 321.363 30.4258C308.195 28.3852 296.176 32.8034 284.182 36.9972C260.965 45.1104 241.424 59.1569 223.607 75.7254C221.65 77.5423 220.992 80.6936 219.451 83.0346C214.102 91.152 208.642 99.1722 202.995 107.567C205.59 111.304 205.343 118.535 201.656 124.056C200.546 125.71 199.38 127.402 197.918 128.726C196.646 129.876 194.539 131.53 193.503 131.131C192.025 130.564 190.655 128.472 190.189 126.776C189.393 123.84 189.337 120.704 189.001 117.914C186.129 119.489 182.573 121.488 178.966 123.403C174.942 125.539 175.193 129.468 174.689 133.144C173.727 140.21 173.288 147.444 171.411 154.268C170.317 158.237 166.85 161.565 164.455 165.177C162.478 165.405 160.492 165.644 158.507 165.883ZM116.289 86.1982C115.76 85.1539 115.458 84.3946 115.025 83.7316C110.44 76.7697 95.109 71.9074 85.452 75.1046C74.9912 78.5698 64.1708 81.7258 54.6159 87.0259C39.2276 95.5766 24.2873 105.171 13.5155 119.773C9.16105 125.686 9.86384 129.349 16.5098 132.597C24.3439 136.429 32.7892 137.054 41.3012 136.643C54.7695 135.989 67.3758 131.772 79.7697 126.794C88.3973 123.328 96.8397 119.663 101.061 110.382C101.698 108.986 103.352 108.081 104.413 106.856C109.125 101.403 113.803 95.915 118.493 90.4452C118.215 89.8945 117.937 89.3438 117.659 88.793C102.997 88.564 89.6427 93.5157 77.0062 100.829C64.4444 108.092 51.966 115.547 43.5789 128.623C45.1328 113.922 84.1802 91.3128 116.289 86.1982ZM119.804 107.199C114.216 110.812 109.797 114.85 104.6 116.775C93.8094 120.763 90.1155 129.819 87.0424 139.264C85.7858 143.132 86.1211 147.675 86.4321 151.848C86.7179 155.56 89.2138 157.133 92.7282 155.119C95.5176 153.524 98.5885 151.925 100.598 149.538C110.703 137.514 116.143 123.302 119.804 107.199ZM173.423 126.891C163.697 128.092 159.655 134.763 155.496 141.297C152.101 146.641 150.11 152.027 153.433 158.295C156.627 164.327 162.087 165.341 166.156 160.067C173.702 150.295 171.495 138.484 173.423 126.891ZM144.633 123.185C145.707 123.741 147.397 124.726 149.175 125.519C158.31 129.617 167.763 127.32 173.729 119.562C174.208 118.94 174.647 118.152 174.756 117.383C175.484 112.139 176.12 106.875 176.74 101.905C165.949 109.066 155.156 116.218 144.633 123.185ZM98.1496 116.907C98.336 117.116 98.5322 117.324 98.7186 117.533C100.038 117.032 101.481 116.717 102.651 115.982C106.491 113.576 110.105 110.794 114.036 108.558C120.447 104.925 121.225 101.014 118.956 92.9578C111.818 101.18 104.979 109.044 98.1496 116.907ZM201.555 108.657C191.529 113.057 188.021 122.655 194.046 129.192C201.628 123.656 203.848 117.577 201.555 108.657ZM182.248 92.9424C189.159 86.7621 195.233 79.9875 199.151 69.8666C186.94 73.9354 186.189 84.6015 182.248 92.9424ZM216.223 84.2491C215.567 83.7438 214.922 83.2373 214.267 82.732C208.705 90.1601 203.132 97.5794 197.57 105.007C197.994 105.349 198.418 105.691 198.853 106.042C207.15 100.832 212.049 92.8395 216.223 84.2491ZM122.928 99.7619C127.144 96.2125 127.027 92.7315 121.729 89.8038C122.167 93.4375 122.556 96.6742 122.928 99.7619Z" fill="white"/>
<path d="M329.526 39.5857C329.817 38.8254 330.119 38.0639 330.41 37.3037C335.91 31.9579 340.85 25.8033 347.068 21.4791C353.564 16.9602 361.29 14.2069 368.458 10.6647C369.124 10.3329 369.71 9.8493 370.326 9.44277C378.934 8.40645 387.532 7.37132 396.139 6.33499C398.127 6.78062 400.206 6.98355 402.068 7.72629C403.74 8.39127 406.098 9.40666 406.458 10.7231C406.804 12.0109 405.379 14.3983 404.059 15.3933C395.473 21.8861 386.783 28.2605 377.96 34.4496C365.682 43.0689 353.317 51.5478 340.891 59.9432C336.857 62.6648 332.517 64.9299 328.21 67.4729C329.28 76.3587 330.368 85.3935 331.551 95.2225C333.905 93.8614 335.918 92.9241 337.687 91.6434C343.597 87.3562 349.717 83.7287 357.327 83.5176C370.166 83.1604 381.263 77.3624 392.471 71.9942C393.366 71.5641 394.599 70.4286 394.568 69.6668C394.175 60.629 400.73 55.4282 405.93 49.8466C413.54 41.6886 422.513 35.0685 433.705 32.4923C439.998 31.0497 446.46 27.8343 452.724 32.7609C452.883 34.0814 453.043 35.4118 453.202 36.7322C449.13 44.0716 442.22 48.2475 435.272 52.1157C424.058 58.3608 412.586 64.1335 401.202 70.0567C400.349 70.5018 399.284 70.5193 398.245 70.7552C402.195 74.5401 405.991 74.6069 410.357 71.4725C413.119 69.4782 416.085 67.6807 419.177 66.2609C420.589 65.6074 422.509 66.0713 424.817 66.0049C417.379 74.6661 406.819 77.3072 397.511 73.6134C396.231 73.1027 394.224 73.2536 393.017 73.9328C381.425 80.3847 369.396 85.046 355.905 85.9348C351.588 86.2129 347.329 88.7401 343.225 90.6241C340.16 92.0205 337.133 93.7346 334.573 95.8961C332.937 97.2816 331.303 99.6842 331.213 101.699C330.395 120.008 314.554 136.007 299.762 137.717C297.12 138.025 294.132 137.549 291.656 136.558C284.82 133.825 283.912 129.462 288.343 123.601C295.276 114.426 305.288 109.403 314.845 103.791C318.91 101.408 323.253 99.505 327.293 97.0848C328.223 96.5296 329.009 94.6925 328.876 93.5805C327.908 85.881 326.673 78.2136 325.537 70.5344C325.494 70.2576 325.53 69.9712 325.513 69.248C318.194 72.5365 311.08 75.8606 303.858 78.956C295.947 82.346 288.035 85.8166 279.91 88.6077C277.289 89.5075 276.032 90.6963 274.577 92.8355C269.092 100.899 261.1 106.051 252.438 110.065C250.854 110.8 247.081 110.328 246.664 109.371C245.545 106.856 245.717 103.764 245.346 100.686C243.867 101.619 241.845 102.981 239.747 104.21C234.564 107.252 233.606 106.994 229.756 100.619C228.946 102.59 228.371 104.009 227.788 105.439C227.369 105.136 226.95 104.834 226.531 104.532C227.649 103.028 228.597 101.282 230.024 100.164C230.401 99.8663 232.208 101.905 233.511 102.191C235.147 102.558 237.22 102.792 238.617 102.1C242.589 100.121 246.32 97.6476 251.097 96.0853C249.983 98.6267 248.701 101.108 247.818 103.732C247.402 104.961 247.235 107.005 247.929 107.667C248.691 108.391 250.77 108.423 251.919 107.932C260.808 104.122 268.335 98.5426 273.472 91.0146C269.897 89.6017 266.18 88.5082 262.903 86.6365C261.8 86.0138 261.259 83.3595 261.436 81.7366C262.077 75.5961 268.518 70.9529 275.271 72.4967C285.38 74.805 277.485 81.8492 278.803 87.6129C293.071 81.3022 307.336 75.1329 321.435 68.5907C323.39 67.6805 325.403 65.1519 325.834 63.0452C327.408 55.2914 328.343 47.4132 329.526 39.5857ZM327.759 64.7272C340.597 59.6764 402.46 16.17 404.562 10.7901C402.869 10.1982 401.18 9.13255 399.472 9.08635C380.524 8.56747 362.581 11.9566 346.85 23.3486C338.15 29.6436 331.289 37.3288 329.462 48.3361C328.603 53.5864 328.341 58.9361 327.759 64.7272ZM328.804 98.6756C315.033 106.105 301.474 112.028 291.42 123.22C289.723 125.106 287.249 128.567 287.913 129.817C289.189 132.211 292.218 134.284 294.955 135.183C301.949 137.474 307.678 133.692 312.964 129.822C323.134 122.353 329.118 112.578 328.804 98.6756ZM450.962 33.7688C440.619 30.9347 431.419 34.4193 422.897 39.3433C410.937 46.2524 400.401 54.783 396.854 69.2406C412.099 61.9259 426.955 54.3155 441.366 45.9229C445.441 43.5488 450.117 40.4778 450.962 33.7688ZM272.682 74.5812C266.187 75.353 262.741 78.8501 263.42 83.3209C263.92 86.5543 267.629 88.3337 272.538 87.6924C275.83 87.2658 278.22 82.8485 277.92 78.2715C277.647 73.9935 274.806 74.406 272.682 74.5812Z" fill="white"/>
</g>
<defs>
<clipPath id="clip0_1324_422">
<rect width="452" height="130" fill="white" transform="translate(0 54.0276) rotate(-6.86499)"/>
</clipPath>
</defs>
</svg>
