<svg width="1795" height="617" viewBox="0 0 1795 617" fill="none" xmlns="http://www.w3.org/2000/svg">
<path d="M3.8053 301.184C9.20626 313.133 24.7387 322.104 38.7066 318.605C49.732 315.85 57.5169 308.48 58.7088 298.429C58.7833 297.684 58.5598 297.014 58.1501 296.493C57.6659 292.92 55.878 289.681 52.7864 287.708C46.9012 283.949 38.7439 286.145 34.6093 292.659C30.4376 299.136 31.853 307.475 37.7382 311.234C37.8499 311.309 37.9989 311.346 38.1107 311.42C28.3144 312.5 16.1716 308.033 12.7821 298.615C8.23782 286.033 11.8508 271.888 22.1685 261.651C41.4257 242.592 80.1636 237.157 120.652 256.179C150.376 270.138 181.776 295.786 216.677 323.928C230.832 335.319 245.694 347.379 261.599 359.366C254.298 366.476 248.934 375.298 246.997 384.939C243.384 402.919 246.997 420.898 260.742 432.029C270.128 439.622 283.277 442.675 296.127 440.032C307.302 437.761 313.038 429.721 314.789 423.057C317.508 417.139 315.757 410.513 310.803 408.279C305.886 406.008 299.666 408.949 296.947 414.868C294.228 420.787 296.016 427.375 300.932 429.646C301.975 430.13 303.093 430.316 304.21 430.353C301.826 432.438 298.809 434.15 295.01 434.932C283.947 437.203 273.89 434.448 266.59 427.189C257.241 417.883 253.628 402.621 256.868 386.354C258.805 376.713 262.977 369.565 268.043 364.28C317.657 401.02 377.738 436.682 459.125 451.236C573.439 471.71 681.905 428.194 747.014 392.831C727.906 407.274 709.059 422.722 693.899 438.878C670.73 459.835 641.64 483.994 633.557 473.906C628.305 467.355 624.394 467.355 623.09 475.209C621.787 483.064 629.646 501.378 645.327 494.827C645.327 494.827 625.698 539.273 667.564 565.442C696.431 583.459 691.813 573.743 681.979 560.193C678.329 555.168 672.63 546.681 668.384 535.848C664.696 523.341 664.324 508.749 667.527 492.705C674.79 456.373 718.035 420.563 759.641 389.89C736.734 408.875 717.03 431.842 710.362 461.734C706.153 480.681 707.531 501.713 718.669 518.129C725.857 528.776 735.169 537.337 746.977 543.144C751.372 575.455 771.039 597.046 788.434 605.347C808.585 614.951 834.1 616.403 852.091 603.337C866.469 592.877 871.013 571.547 861.254 557.55C852.091 544.484 836.149 539.496 826.39 541.953C824.974 542.288 824.118 543.703 824.49 545.117C824.863 546.495 826.278 547.351 827.656 547.016C835.031 545.192 844.828 551.297 849.968 560.975C852.836 566.335 857.902 580.257 843.598 593.1C828.662 606.501 808.809 608.064 790.632 599.428C774.913 591.909 758.896 575.009 755.283 546.681C757.667 547.5 760.163 548.244 762.733 548.84C765.936 549.584 789.626 554.014 788.173 544.894C788.062 544.261 787.726 543.554 787.205 542.772C782.4 535.699 768.097 535.96 760.759 534.545C758.561 534.136 756.55 533.466 754.538 532.833C754.576 531.53 754.538 530.302 754.613 528.962C757.332 475.879 805.531 419.037 852.091 386.242C852.091 386.242 852.165 386.205 852.203 386.205L884.087 407.572C872.503 416.766 858.982 431.47 852.165 445.132C844.306 460.84 843.002 477.815 849.558 493.524C856.486 510.089 874.402 520.996 894.032 522.298C894.218 522.298 895.336 522.298 895.336 522.298C915.152 520.996 933.291 505.101 937.985 487.791C942.305 471.859 937.538 458.346 932.286 447.216C925.842 433.517 911.725 420.6 900.327 411.741L938.394 386.205C938.432 386.205 938.543 386.279 938.543 386.279C984.396 416.99 1033.38 478.746 1035.98 528.962C1036.02 530.041 1036.02 531.084 1036.02 532.163C1033.27 533.131 1030.4 533.95 1027.31 534.545C1019.97 535.96 1005.66 535.699 1000.86 542.772C1000.3 543.554 1000 544.261 999.891 544.894C998.438 554.051 1022.17 549.621 1025.37 548.84C1028.91 547.984 1032.26 546.867 1035.46 545.638C1032.11 574.897 1015.83 593.063 999.891 600.657C981.714 609.33 961.972 606.501 946.999 593.137C932.696 580.295 937.761 566.41 940.629 561.012C945.77 551.334 955.566 545.192 962.941 547.053C964.319 547.388 965.772 546.569 966.107 545.154C966.442 543.74 965.623 542.325 964.207 541.99C954.448 539.534 942.305 546.681 936.011 558.593C928.859 572.068 931.429 589.303 942.454 600.768C958.173 617.11 984.88 620.274 1005.25 611.228C1026.86 601.624 1047.38 575.418 1048.54 538.975C1056.88 533.503 1063.77 526.542 1069.4 518.241C1080.5 501.825 1081.87 480.756 1077.66 461.845C1070.89 431.247 1050.4 407.907 1026.82 388.662C1068.99 419.633 1113.35 455.927 1120.72 492.779C1123.59 507.111 1123.67 520.363 1120.98 531.94C1116.7 544.671 1110.03 554.647 1105.94 560.268C1096.1 573.818 1091.48 583.533 1120.35 565.516C1162.22 539.347 1142.59 494.901 1142.59 494.901C1158.31 501.453 1166.13 483.138 1164.82 475.284C1163.52 467.429 1159.57 467.429 1154.36 473.981C1146.5 483.771 1118.86 461.25 1096.07 440.776C1079.9 423.206 1059.23 406.381 1038.48 390.821C1101.8 426.631 1210.38 472.641 1327.11 451.758C1409.02 437.091 1471.64 401.392 1522.7 364.503C1527.69 369.789 1531.79 376.899 1533.73 386.465C1537.01 402.733 1533.39 417.995 1524.01 427.301C1516.74 434.56 1506.65 437.314 1495.59 435.044C1491.79 434.262 1488.7 432.512 1486.31 430.391C1487.91 430.614 1489.52 430.428 1491.04 429.758C1495.96 427.487 1497.75 420.861 1495.03 414.98C1492.31 409.061 1486.09 406.12 1481.17 408.391C1479.72 409.061 1478.56 410.14 1477.71 411.443C1475.55 413.974 1474.69 417.771 1475.62 422.164C1477.04 428.939 1482.89 440.181 1494.66 442.6C1507.47 445.206 1520.99 442.302 1530.41 434.746C1543.49 424.286 1547.99 403.03 1544.38 385.051C1542.44 375.41 1536.82 366.736 1529.26 359.738C1545.24 347.938 1560.1 336.137 1574.03 324.896C1608.93 296.791 1639.4 268.053 1670.06 256.29C1704.88 242.927 1749.28 242.666 1768.54 261.762C1778.86 271.999 1782.43 286.145 1777.93 298.727C1774.54 308.144 1762.43 312.611 1752.64 311.532C1752.75 311.457 1752.86 311.42 1753.01 311.346C1758.89 307.586 1760.31 299.248 1756.14 292.771C1752 286.294 1743.84 284.06 1737.96 287.82C1734.87 289.793 1733.08 293.068 1732.6 296.605C1732.19 297.126 1731.93 297.833 1732.04 298.54C1733.3 311.755 1744.25 320.056 1755.54 321.322C1767.2 322.662 1786.08 316.073 1792.19 298.652C1799.42 278.03 1791.75 261.502 1779.98 249.813C1770.03 239.949 1732 217.577 1668.31 244.602C1637.32 257.779 1606.4 285.586 1571.01 315.887C1556.26 328.506 1540.4 341.647 1523.08 354.564C1522.96 354.489 1522.89 354.452 1522.82 354.378C1563.23 316.557 1601.37 264.666 1592.43 223.682C1586.58 196.88 1570.64 187.052 1556.67 187.052C1538.35 187.052 1529.63 197.513 1529.59 206.223C1529.59 209.089 1529.41 211.435 1530.86 213.184C1531.35 214.115 1531.98 215.008 1532.83 215.715C1536.71 219.028 1542.82 218.21 1546.47 213.966C1550.08 209.685 1549.89 203.543 1546.02 200.267C1545.65 199.932 1545.24 199.672 1544.83 199.448C1548.29 197.922 1552.35 196.991 1556.67 197.289C1568.3 198.108 1576.45 207.898 1580.29 225.543C1588.86 264.889 1553.69 314.659 1516.97 350.692C1512.65 348.236 1508.1 346.263 1503.45 344.848C1482.07 338.297 1454.91 343.359 1435.39 354.973C1440.72 344.215 1445.45 328.879 1444.97 313.058C1444.45 294.52 1437.44 276.02 1423.18 265.522C1414.42 259.008 1402.65 254.839 1390.47 253.61C1386.04 243.857 1379.71 234.216 1371.33 224.91C1333.52 182.92 1264.13 156.751 1194.51 158.278C1115.4 159.99 1047.31 187.276 1009.87 205.776C1023.66 193.306 1035.05 181.357 1044.4 170.041C1054.57 159.469 1074.01 143.053 1088.76 144.318C1103.81 145.621 1100.53 163.266 1106.42 155.411C1112.31 147.557 1118.86 131.215 1105.79 121.425C1093.83 112.454 1078.07 123.138 1067.94 135.533C1082.54 108.248 1084.74 85.9128 1081.58 69.7573C1075.8 40.2381 1060.64 21.3651 1030.55 18.7594C1021.83 18.0149 1013.71 19.3178 1006.48 21.9607C1000.82 17.531 994.9 13.8457 988.828 10.905C980.261 6.02854 971.657 2.38052 964.468 1.07765C942.864 -2.83094 935.675 4.98628 938.953 12.2079C941.709 18.2755 954.188 16.9726 971.657 20.6951C980.634 22.6308 987.413 25.1621 993.596 28.6612C983.874 35.5478 977.319 45.0401 975.568 54.0484C972.886 67.9333 978.436 84.3494 988.642 93.2834C996.389 100.058 1008.57 104.116 1015.31 101.882C1016.69 101.436 1017.43 99.9466 1016.99 98.5693C1016.54 97.1919 1015.05 96.4474 1013.67 96.9314C1009.46 98.3459 1001.57 96.5219 994.527 90.3798C985.774 82.7115 982.049 71.3952 984.358 59.3716C986.184 49.8421 994.08 41.4293 1004.66 36.255C1007.27 38.3024 1009.95 40.4986 1012.85 42.9927L1013.04 43.0672C1023.36 54.3835 1031.96 68.1567 1036.84 84.4983C1049.65 127.679 1030.1 176.406 984.06 219.736C983.241 220.22 982.496 220.666 981.863 221.076L939.661 192.748C941.598 190.142 943.46 187.536 945.136 184.893C954.486 170.19 968.677 140.41 956.907 111.635C946.85 87.1413 926.81 69.7946 898.018 69.7946C897.831 69.7946 895.41 69.7946 895.41 69.7946C870.38 71.693 848.776 92.7622 842.891 117.889C837.49 140.931 843.487 160.548 850.079 176.704C851.793 180.91 853.953 185.08 856.449 189.174L804.19 224.24C754.65 179.794 733.195 129.168 746.493 84.4611C751.335 68.1194 759.977 54.3463 770.294 43.03L770.48 42.9555C773.386 40.4614 776.068 38.2652 778.675 36.2178C789.253 41.3921 797.15 49.8421 798.975 59.3344C801.285 71.358 797.597 82.6371 788.807 90.3426C781.767 96.4847 773.87 98.3087 769.661 96.8942C768.283 96.4475 766.793 97.192 766.346 98.5321C765.899 99.9094 766.644 101.398 768.022 101.845C774.764 104.079 786.944 100.058 794.692 93.2461C804.898 84.3122 810.448 67.9333 807.766 54.0113C806.052 45.0029 799.459 35.5105 789.738 28.624C795.921 25.1248 802.7 22.5563 811.677 20.6579C829.146 16.9354 841.624 18.2383 844.38 12.1706C847.658 4.98625 840.469 -2.86814 818.866 1.04046C811.714 2.34333 803.11 5.99135 794.505 10.8678C788.434 13.8086 782.512 17.4938 776.85 21.9235C769.624 19.2806 761.467 17.9405 752.75 18.7222C722.654 21.328 707.494 40.2009 701.721 69.7201C698.555 85.8757 700.715 108.21 715.353 135.496C705.222 123.1 689.466 112.417 677.51 121.388C664.435 131.215 670.954 147.557 676.876 155.374C682.761 163.229 679.484 145.584 694.532 144.281C709.282 143.016 728.726 159.394 738.894 170.004C748.579 181.767 760.498 194.2 774.988 207.191C738.559 184.484 672.146 151.242 593.18 149.53C523.564 148.004 459.497 171.976 420.834 213.184C409.771 224.947 402.284 237.231 397.479 249.218C386.081 250.707 374.907 255.099 365.856 262.842C352.409 274.382 346.04 291.431 344.922 309.931C343.842 327.65 348.945 343.508 354.681 354.527C335.126 343.024 308.047 337.887 286.927 344.364C282.234 345.816 277.727 347.826 273.481 350.32C236.866 314.287 201.965 264.703 210.494 225.468C214.331 207.824 222.488 198.034 234.147 197.215C238.393 196.917 242.416 197.848 245.88 199.337C245.433 199.597 244.986 199.858 244.613 200.193C240.74 203.469 240.553 209.611 244.167 213.892C247.817 218.172 253.888 218.954 257.762 215.641C258.395 215.12 258.879 214.487 259.326 213.817C261.636 212.03 261.524 209.35 261.226 206.112C260.332 196.545 248.078 187.499 235.897 186.941C216.715 186.085 200.251 197.215 196.638 224.426C191.163 265.224 223.866 312.053 260.705 347.975C246.252 337.031 232.62 326.124 219.769 315.776C184.495 287.373 153.281 256.365 122.477 242.741C61.3906 215.716 21.2746 239.242 10.8079 254.057C1.23521 267.644 -4.05402 283.762 3.8053 301.184ZM1042.28 76.2716C1036.88 57.8081 1028.01 43.2161 1017.36 31.937C1020.68 31.2669 1024.06 30.8946 1027.53 30.8946C1038.78 30.8946 1065.78 34.9894 1073.38 73.7404C1078.41 99.3882 1071.15 139.591 1015.83 193.008C1043.66 156.379 1054.05 116.66 1042.28 76.2716ZM709.841 73.7031C717.439 34.9522 744.444 30.8202 755.693 30.8575C759.157 30.8575 762.547 31.2669 765.862 31.8998C755.209 43.1789 746.344 57.771 740.943 76.2344C729.172 116.623 739.565 156.342 767.352 192.971C712.076 139.591 704.812 99.3882 709.841 73.7031ZM746.195 526.133C746.158 527.287 746.195 528.403 746.195 529.557C728.167 520.996 719.004 504.766 716.322 486.749C712.634 461.994 720.754 443.01 734.722 422.834C745.673 407.013 757.406 394.096 772.045 381.663C776.664 377.755 784.299 373.66 788.62 368.858C794.915 364.317 801.061 359.85 806.723 355.569L841.214 378.685C793.761 412.299 748.132 467.615 746.195 526.133ZM809.628 299.62C818.456 305.539 827.768 311.793 837.303 318.195L798.454 344.364L772.082 326.422C784.821 317.6 797.448 308.368 809.628 299.62ZM760.572 318.195C760.498 318.27 760.386 318.344 760.312 318.381L733.121 299.881L723.958 293.366L762.174 267.793C769.512 272.707 782.251 281.268 797.82 291.728C785.976 299.955 773.945 308.48 760.572 318.195ZM898.278 235.221C906.1 241.773 913.177 247.059 918.094 250.595C921.335 252.903 924.501 255.136 927.667 257.37L887.737 284.246C877.866 277.583 868.145 270.994 858.982 264.815C864.494 260.832 870.082 256.849 875.706 252.829C881.405 248.771 889.451 242.666 898.278 235.221ZM891.946 222.751C883.64 215.12 875.147 206.335 868.07 196.991L901.929 174.359L909.788 178.267L923.644 187.722C914.593 199.56 902.86 212.216 891.946 222.751ZM1014.23 317.339L975.68 343.582C968.528 338.743 958.061 331.671 945.695 323.332C959.291 314.212 972.812 305.129 985.103 296.903C994.676 303.529 1004.29 310.229 1014.23 317.339ZM989.759 293.813C1014.45 277.248 1033 264.815 1035.02 263.475L1064.22 283.353L1018.85 314.249C1008.87 307.065 999.183 300.327 989.759 293.813ZM933.44 315.068C922.862 307.921 911.464 300.216 899.954 292.473C913.662 283.204 927.295 273.972 939.586 265.671C948.973 272.185 958.099 278.439 967.001 284.507C968.826 285.772 970.577 286.964 972.365 288.192C960.073 296.717 946.775 305.874 933.44 315.068ZM928.822 318.27C914.705 328.023 900.811 337.589 888.37 346.188C877.643 338.967 866.059 331.187 854.326 323.369C866.953 314.808 881.07 305.278 895.298 295.637L928.822 318.27ZM883.081 287.373L841.997 315.031C832.461 308.628 823.075 302.337 814.21 296.382C818.195 293.552 822.143 290.723 826.017 288.08C835.106 281.864 844.678 275.052 854.437 268.016L883.081 287.373ZM845.014 376.08L810.783 352.777C816.668 348.794 831.195 338.967 849.632 326.496C861.328 334.351 872.912 342.131 883.714 349.352C865.5 361.934 851.16 371.836 845.014 376.08ZM927.592 449.338C934.446 463.893 936.048 474.949 932.956 486.339C928.896 501.304 913.513 512.992 896.341 514.146C896.49 514.146 895.932 514.146 895.932 514.146C878.947 513.03 863.526 501.304 859.466 486.339C856.412 474.949 858.013 463.893 864.83 449.338C869.746 438.878 880.623 427.04 896.23 415.054C911.837 427.04 922.676 438.878 927.592 449.338ZM886.21 404.482L884.906 403.179L856.039 383.525C862.632 379.095 877.159 369.342 895.336 357.132C907.553 365.322 918.094 372.432 925.767 377.569L886.21 404.482ZM930.423 374.405C923.048 369.454 912.47 362.344 900.066 354.005C912.731 345.518 926.848 336.063 941.039 326.496L971.024 346.747L930.423 374.405ZM1053.45 422.834C1067.42 443.01 1075.54 462.032 1071.85 486.749C1069.51 502.569 1062.13 517.05 1048.16 526.17C1042.91 467.727 989.052 414.086 943.162 382.966L982.757 356.388C988.009 360.296 993.559 364.391 999.332 368.523C1003.62 373.437 1011.47 377.643 1016.21 381.663C1030.77 394.096 1042.5 407.013 1053.45 422.834ZM1501.58 351.735C1504.75 352.703 1508.14 354.043 1511.49 355.829C1472.87 392.198 1424.74 416.096 1374.2 431.172C1359.15 435.676 1343.91 439.25 1328.46 442.042C1164.9 471.301 1015.16 371.427 988.567 352.442L1027.12 326.608C1061.16 351.288 1095.43 370.347 1128.92 383.599C1129.18 384.046 1129.55 384.455 1130.11 384.679C1170.6 402.025 1304.91 450.306 1408.24 381.663C1410.29 383.636 1413.05 384.865 1416.14 384.865C1422.39 384.865 1427.5 379.765 1427.5 373.511C1427.5 371.65 1427.01 369.9 1426.19 368.337C1443.25 351.66 1477.04 344.215 1501.58 351.735ZM1394.16 263.251C1403.32 264.257 1412 267.458 1419.23 272.781C1432.34 282.459 1439.23 296.046 1439.72 313.133C1440.39 336.808 1428.32 359.515 1422.8 364.354C1420.94 363.014 1418.67 362.195 1416.17 362.195C1409.92 362.195 1404.85 367.257 1404.85 373.511C1404.85 374.814 1405.11 376.042 1405.52 377.196C1342.42 419.149 1267.33 416.469 1210.01 404.333C1249.08 408.614 1285.84 403.775 1318.51 389.406C1337.32 381.142 1358.66 368.114 1374.61 348.273C1378.55 347.938 1382.43 347.082 1386.12 345.742C1400.19 342.428 1411.11 330.703 1413.49 320.056C1415.35 311.793 1407.72 309.596 1403.14 313.542C1398.7 317.339 1402.24 327.725 1389.28 337.403C1386.45 338.78 1383.51 339.748 1380.42 340.269C1388.83 327.576 1395.09 312.5 1397.4 294.446C1398.67 284.172 1397.48 273.674 1394.16 263.251ZM1380.38 293.366C1377.96 312.202 1371.48 327.055 1362.61 338.929C1362.28 338.818 1361.94 338.743 1361.61 338.632C1344.06 332.527 1331.81 316.334 1334.34 302.561C1337.21 286.74 1348.46 273.861 1365.18 267.235C1369.09 265.708 1373.08 264.666 1377.1 263.922C1380.27 273.6 1381.65 283.651 1380.38 293.366ZM1194.59 163.452C1262.75 161.963 1320.86 189.695 1357.69 230.568C1363.95 237.529 1369.24 245.495 1373.19 253.908C1368.91 254.541 1364.66 255.509 1360.67 257.109C1342.24 264.405 1326.93 280.04 1323.69 297.684C1320.78 313.691 1328.75 337.143 1356.61 346.114C1342.42 361.674 1324.1 371.501 1307.11 378.76C1237.91 408.167 1133.91 396.814 1031.78 323.481L1077.81 292.585C1088.02 299.471 1134.58 328.209 1200.21 328.209C1226.28 328.209 1256.68 310.676 1257.8 288.974C1259.1 263.251 1227.55 248.064 1201.55 246.277C1133.65 241.587 1080.87 273.228 1070.1 280.226L1040.16 260.125C1099.34 222.677 1197.34 187.015 1218.95 212.216C1222 215.753 1221.26 219.55 1220.06 222.081C1219.91 222.379 1219.77 222.677 1219.58 222.974C1217.75 218.954 1212.61 216.944 1207.47 218.433C1201.92 220.071 1198.5 225.171 1199.88 229.824C1201.22 234.514 1206.84 236.971 1212.39 235.37C1213.92 234.923 1215.22 234.216 1216.38 233.36C1219.91 231.424 1223.04 228.186 1224.83 224.314C1227.36 218.842 1226.77 213.11 1222.93 208.829C1189.74 171.753 1079.56 215.902 1027.49 250.186C1027.49 250.186 1027.04 250.483 1026.41 250.93L993.782 229.005C1012.85 215.79 1091.63 165.685 1194.59 163.452ZM1082.54 288.527C1095.25 280.226 1140.09 254.02 1200.25 254.95C1227.74 255.397 1252.58 270.659 1252.58 288.974C1252.58 307.288 1223.79 322.96 1200.25 322.96C1139.12 322.96 1095.1 297.535 1082.54 289.42L1083.18 288.974L1082.54 288.527ZM987.785 233.062L988.94 232.467L989.163 232.355L989.201 232.318L1021.53 254.318C1013.19 260.087 996.762 271.404 976.983 285.028C974.637 283.427 972.253 281.789 969.943 280.189C961.563 274.456 952.996 268.612 944.205 262.507C968.677 245.979 986.817 233.695 987.785 233.062ZM977.095 224.091L932.323 254.243C928.635 251.675 924.911 249.032 921.149 246.314C916.455 242.964 909.713 237.939 902.301 231.759C913.96 221.634 926.55 209.425 936.681 196.545L977.095 224.091ZM854.847 174.657C845.945 152.806 843.896 136.166 847.919 119.006C853.283 96.0752 872.801 78.8774 895.373 77.1278C895.187 77.1278 895.932 77.1278 895.932 77.1278C918.28 78.8402 937.798 96.0752 943.199 119.006C947.222 136.166 944.95 154.518 932.025 175.662C930.423 178.305 928.524 181.059 926.512 183.888L896.826 163.973L895.373 163.005L893.92 163.973L860.732 186.234C858.423 182.399 856.449 178.528 854.847 174.657ZM863.712 199.895C870.976 209.536 879.654 218.507 888.147 226.362C880.884 233.174 874.179 238.795 869.188 242.368C862.148 247.394 854.959 252.382 847.845 257.296C842.183 253.461 836.894 249.925 832.089 246.649C831.977 246.538 831.902 246.426 831.791 246.314C825.645 241.922 819.909 237.455 814.321 232.913L863.712 199.895ZM808.324 236.934L843.226 260.497C834.51 266.49 825.98 272.297 818.158 277.657C812.869 281.306 807.654 284.879 802.402 288.527C787.354 278.439 774.689 269.952 766.867 264.666L808.324 236.934ZM423.739 228.335C460.54 187.425 528.369 161.963 596.532 163.415C699.188 165.648 777.744 215.418 797.113 228.856L755.283 256.923C701.832 222.639 589.157 172.535 562.525 203.58C558.8 207.898 556.938 212.812 557.757 218.805C558.614 224.873 565.654 231.983 574.556 234.44C575.264 234.812 576.009 235.11 576.828 235.37C582.378 237.008 588.003 234.514 589.344 229.824C590.722 225.171 587.295 220.071 581.745 218.433C577.238 217.13 572.731 218.545 570.459 221.597C569.416 219.066 568.932 215.529 571.762 212.216C593.366 187.015 691.366 222.677 750.553 260.125L712.858 285.4C702.577 278.588 655.086 249.739 590.461 249.739C564.387 249.739 527.996 267.793 530.268 289.421C532.876 314.287 560.365 333.867 595.713 333.867C664.324 333.867 711.852 301.779 719.004 296.679L755.954 321.471C647.972 398.489 553.139 419.112 474.769 384.641C456.853 376.75 436.552 364.428 421.281 345.779C424.409 345.369 427.576 344.662 430.816 343.545C450.707 336.622 465.308 316.781 465.308 300.29C465.308 280.226 449.738 260.497 431.263 253.201C424.41 250.483 416.811 248.92 409.063 248.659C412.937 241.81 417.742 234.998 423.739 228.335ZM708.165 289.421C695.612 297.536 651.585 322.96 590.461 322.96C566.92 322.96 538.128 307.288 538.128 288.974C538.128 270.659 566.92 254.95 590.461 254.95C650.542 254.95 695.351 280.412 708.127 288.564L707.531 288.974L708.165 289.421ZM402.545 262.917C410.181 262.842 418.003 264.219 425.527 267.197C442.251 273.823 453.463 286.666 456.368 302.524C458.901 316.297 446.647 332.49 429.103 338.594C425.154 339.972 421.243 340.679 417.444 340.828C408.244 328.097 401.39 312.612 399.006 293.888C397.665 283.651 398.932 273.265 402.545 262.917ZM350.994 313.133C351.478 296.047 358.369 282.46 371.48 272.781C377.701 268.165 385.076 265.262 392.86 263.847C390.29 275.015 389.918 285.661 391.147 295.079C393.419 312.723 399.751 327.501 408.281 339.935C405.003 339.153 401.837 337.85 398.857 336.063L398.783 335.84C398.112 335.505 397.442 335.133 396.846 334.76C396.25 334.351 395.654 333.867 395.058 333.42C387.981 327.241 388.651 316.595 384.368 312.947C379.786 309.038 368.016 312.314 371.294 320.131C374.572 327.985 387.646 339.748 402.023 343.694L401.949 343.545C405.376 344.885 408.989 345.742 412.714 346.039C429.587 367.22 452.979 380.845 472.646 389.481C497.527 400.425 522.036 407.646 547.849 409.88C496.484 416.022 436.813 411.555 385.262 377.271C385.672 376.117 385.932 374.889 385.932 373.586C385.932 367.332 380.867 362.269 374.609 362.269C372.113 362.269 369.841 363.088 367.979 364.428C362.429 359.515 350.323 336.845 350.994 313.133ZM289.125 351.735C313.709 344.215 347.492 351.66 364.552 368.374C363.733 369.938 363.248 371.687 363.248 373.548C363.248 379.802 368.314 384.902 374.572 384.902C377.626 384.902 380.42 383.674 382.468 381.701C456.033 430.651 546.285 421.792 606.962 406.269C650.952 397.41 700.976 374.442 763.217 332.564C764.744 331.559 766.271 330.442 767.799 329.4L794.319 347.193C775.881 360.78 631.546 472.343 462.253 442.042C404.631 431.731 357.177 410.662 316.502 386.13C305.402 378.648 292.365 368.225 279.217 355.867C282.569 354.043 285.959 352.703 289.125 351.735Z" fill="white" fill-opacity="0.31"/>
</svg>
