<svg width="141" height="141" viewBox="0 0 141 141" fill="none" xmlns="http://www.w3.org/2000/svg">
<g clip-path="url(#clip0_223_1871)">
<path d="M70.4922 138.715C61.0564 138.733 51.7195 136.793 43.0717 133.018C34.4238 129.243 26.653 123.715 20.2505 116.784C13.8479 109.852 8.95286 101.668 5.87461 92.7486C2.79636 83.829 1.6019 74.3678 2.36667 64.963C3.13144 55.5581 5.8388 46.4142 10.3177 38.1091C14.7966 29.804 20.9497 22.5183 28.3879 16.7125C35.8262 10.9066 44.388 6.70693 53.5321 4.37878C62.6763 2.05064 72.204 1.64467 81.513 3.18654L81.7928 3.37308L82.2902 3.87048C83.6853 5.18469 84.659 6.88333 85.0881 8.7513C86.114 12.4352 85.8808 16.4145 87.1865 20.2383C87.8882 22.1645 89.1426 23.8407 90.7928 25.057C91.6436 25.6028 92.5503 26.0562 93.4974 26.4093L96.3109 27.3109C98.1048 27.7982 99.7602 28.6977 101.145 29.9378C102.465 31.2035 103.393 32.8223 103.819 34.6011C104.159 35.6987 104.265 36.8555 104.131 37.9967C103.996 39.138 103.624 40.2384 103.038 41.227C102.452 42.2156 101.666 43.0704 100.729 43.7364C99.7929 44.4023 98.7272 44.8646 97.6011 45.0933C96.6802 45.2295 95.7494 45.2867 94.8187 45.2643C93.0787 45.16 91.3516 44.8999 89.6581 44.4871L89.8756 43.772C89.9821 43.433 90.0081 43.0738 89.9514 42.7231C89.8948 42.3723 89.757 42.0395 89.5493 41.7513L88.9119 40.8342C88.8146 40.6971 88.6682 40.6029 88.5032 40.571C88.3381 40.5392 88.1673 40.5722 88.026 40.6632L87.2332 41.1606C86.8003 41.3586 86.3534 41.5248 85.8963 41.658C85.8043 41.6887 85.7202 41.7396 85.6502 41.8069C85.5803 41.8742 85.5262 41.9562 85.492 42.0471C85.4578 42.1379 85.4441 42.2352 85.4522 42.3319C85.4604 42.4287 85.49 42.5224 85.5389 42.6062L86.627 44.4093C87.0622 45.1088 87.6528 46.2435 88.057 47.0518C88.0893 47.1326 88.1451 47.2019 88.2171 47.2507C88.2892 47.2994 88.3742 47.3255 88.4612 47.3255C88.5482 47.3255 88.6331 47.2994 88.7052 47.2507C88.7772 47.2019 88.833 47.1326 88.8653 47.0518L89.3627 45.4974C91.131 45.9951 92.9519 46.2821 94.7876 46.3523C95.7953 46.3843 96.804 46.3323 97.8031 46.1969C98.8137 45.9904 99.7846 45.6231 100.679 45.1088C102.437 44.0133 103.799 42.3854 104.568 40.462C105.337 38.5386 105.472 36.42 104.953 34.4145C104.44 32.4024 103.361 30.5794 101.845 29.1606C100.323 27.8165 98.5077 26.8476 96.5441 26.3316L93.7927 25.4922C92.9271 25.1618 92.0944 24.7506 91.3057 24.2643C89.8052 23.1796 88.65 21.6844 87.9793 19.9586C86.627 16.4301 86.7358 12.4197 85.57 8.62695C85.0415 6.71856 83.9598 5.0094 82.4612 3.71503L82.0415 3.34198C98.8124 6.30568 113.868 15.4363 124.247 28.9384C134.627 42.4406 139.58 59.3374 138.132 76.3065C136.685 93.2756 128.941 109.089 116.424 120.638C103.907 132.187 87.5228 138.635 70.4922 138.715ZM70.4922 1.7142e-06C56.5465 -0.00307275 42.913 4.12953 31.316 11.8751C19.719 19.6208 10.6794 30.6315 5.34047 43.5149C0.0015227 56.3982 -1.39697 70.5754 1.32183 84.2536C4.04063 97.9318 10.7546 110.497 20.6147 120.359C30.4748 130.221 43.038 136.938 56.7156 139.66C70.3932 142.381 84.5707 140.986 97.4552 135.65C110.34 130.314 121.353 121.277 129.101 109.681C136.849 98.0861 140.984 84.4536 140.984 70.5078C140.968 51.8157 133.536 33.8937 120.321 20.6749C107.105 7.45617 89.1843 0.0205805 70.4922 1.7142e-06Z" fill="#675393"/>
<path d="M37.6942 89.8604H32.9067L29.487 95.5806L26.0828 89.8604H21.2953L27.4041 99.1712L20.9378 108.917H25.7098L29.487 102.731L33.2953 108.917H38.0828L31.5854 99.1712L37.6942 89.8604Z" fill="#675393"/>
<path d="M47.7202 100.104H38.2539V103.663H47.7202V100.104Z" fill="#675393"/>
<path d="M62.2228 98.9534C61.6671 98.503 61.0354 98.1555 60.3575 97.9275C59.6111 97.6508 58.8411 97.4427 58.057 97.3057C57.2798 97.1814 56.6269 97.057 56.114 96.9482C55.6873 96.869 55.2704 96.7439 54.8705 96.5751C54.6199 96.4575 54.4052 96.275 54.2487 96.0466C54.1214 95.8138 54.0621 95.5499 54.0777 95.285C54.0796 95.0846 54.111 94.8856 54.171 94.6943C54.2452 94.4699 54.3732 94.2671 54.544 94.1036C54.7684 93.9038 55.0336 93.7553 55.3212 93.6684C55.7341 93.543 56.1645 93.4852 56.5958 93.4974H57.4974C57.8394 93.4974 58.2124 93.5907 58.6321 93.6684C59.0685 93.7758 59.4992 93.9055 59.9223 94.057C60.3954 94.2379 60.8485 94.4671 61.2746 94.741L63.2176 91.3679C62.2236 90.7104 61.117 90.2415 59.9533 89.9845C58.8163 89.724 57.6535 89.5936 56.487 89.5959C55.6871 89.595 54.8912 89.7102 54.1243 89.9378C53.3548 90.1619 52.6329 90.5255 51.9948 91.0104C51.3499 91.5019 50.8195 92.1278 50.4404 92.8446C50.0309 93.6529 49.8279 94.5501 49.8497 95.456C49.8152 96.373 50.0187 97.2834 50.4404 98.0984C50.8131 98.7728 51.3472 99.3442 51.9948 99.7617C52.6859 100.205 53.4484 100.526 54.2487 100.71C55.1135 100.914 55.9912 101.059 56.8756 101.145C57.3426 101.183 57.8026 101.282 58.2435 101.44C58.5407 101.547 58.8112 101.716 59.0363 101.938C59.212 102.101 59.3363 102.311 59.3938 102.544C59.451 102.767 59.4772 102.998 59.4715 103.228C59.465 103.493 59.3953 103.752 59.2682 103.985C59.1412 104.217 58.9604 104.416 58.7409 104.565C58.1046 104.977 57.3524 105.173 56.5958 105.124C55.6334 105.124 54.6757 104.988 53.7513 104.72C52.7424 104.416 51.8171 103.884 51.0466 103.166L48.7306 106.461C49.3131 106.98 49.9548 107.429 50.6424 107.798C51.2564 108.142 51.9085 108.413 52.5855 108.606C53.2289 108.801 53.8902 108.932 54.5596 108.995C55.228 108.995 55.8653 109.088 56.5026 109.088C57.4323 109.088 58.3578 108.963 59.2539 108.715C60.1192 108.478 60.9351 108.089 61.6632 107.565C62.3689 107.071 62.9578 106.429 63.3886 105.684C63.8327 104.886 64.0579 103.985 64.0414 103.073C64.0704 102.228 63.9056 101.388 63.5595 100.617C63.2619 99.9711 62.8206 99.4022 62.2695 98.9534" fill="#675393"/>
<path d="M74.0517 103.321C74.0154 103.695 73.9264 104.061 73.7875 104.41C73.6543 104.724 73.4462 105.002 73.1813 105.218C72.8681 105.437 72.4908 105.547 72.1087 105.529C71.7283 105.553 71.3521 105.437 71.0518 105.202C70.7957 104.979 70.5982 104.696 70.4766 104.378C70.3305 104.038 70.2412 103.675 70.2124 103.306C70.2124 102.902 70.2124 102.529 70.2124 102.187C70.2124 101.845 70.2124 101.503 70.2124 101.114C70.2362 100.735 70.3201 100.363 70.4611 100.011C70.588 99.687 70.7843 99.3952 71.0362 99.1557C71.3487 98.9213 71.7344 98.8056 72.1243 98.8292C72.5238 98.8062 72.9191 98.9215 73.2435 99.1557C73.5134 99.3733 73.7222 99.6571 73.8497 99.9795C73.98 100.334 74.0535 100.706 74.0673 101.083C74.0673 101.472 74.0673 101.845 74.0673 102.187C74.0673 102.529 74.0673 102.933 74.0673 103.321M77.4093 97.6945C77.0506 96.9895 76.515 96.3896 75.8549 95.9536C75.0372 95.4433 74.0814 95.1989 73.1191 95.2541C72.5926 95.2587 72.0694 95.3372 71.5647 95.4873C71.0358 95.6426 70.5616 95.9444 70.1969 96.3577H70.1036V95.394H66.1865V114.404H70.1036V107.845H70.1969C70.4846 108.283 70.9118 108.612 71.4093 108.777C71.9038 108.974 72.4315 109.075 72.9637 109.073C73.8943 109.118 74.8178 108.891 75.6217 108.42C76.2756 108.003 76.811 107.425 77.1761 106.741C77.5416 106.057 77.7887 105.316 77.9067 104.549C78.0261 103.809 78.0885 103.061 78.0933 102.311C78.0933 101.581 78.0932 100.757 77.9844 99.964C77.9208 99.1739 77.721 98.4009 77.3938 97.679" fill="#675393"/>
<path d="M87.886 104.005C87.903 104.285 87.8441 104.564 87.7155 104.813C87.5869 105.062 87.3933 105.272 87.1554 105.42C86.6619 105.713 86.097 105.863 85.5233 105.855C85.1949 105.868 84.8671 105.815 84.5595 105.7C84.347 105.627 84.1551 105.504 84 105.342C83.8794 105.226 83.7888 105.082 83.7358 104.922C83.716 104.809 83.716 104.694 83.7358 104.58C83.7216 104.467 83.7216 104.352 83.7358 104.238C83.773 104.106 83.8554 103.99 83.9689 103.912C84.1218 103.793 84.2959 103.703 84.4818 103.648C84.7561 103.579 85.0384 103.547 85.3212 103.555H87.9015L87.886 104.005ZM90.1088 96.2333C89.5481 95.8638 88.9192 95.6101 88.259 95.4872C87.5231 95.3333 86.7725 95.2604 86.0207 95.2696C85.057 95.2672 84.0966 95.3821 83.1606 95.6115C82.1694 95.8647 81.2596 96.3678 80.5181 97.0727L82.4145 99.7307C82.86 99.3334 83.3923 99.046 83.9689 98.8913C84.5299 98.7314 85.111 98.6529 85.6943 98.6582C86.1067 98.6416 86.5184 98.705 86.9067 98.8447C87.1675 98.9223 87.4033 99.067 87.5906 99.2644C87.7368 99.4118 87.8437 99.5935 87.9015 99.7929C87.9132 99.9637 87.9132 100.135 87.9015 100.306V100.741H84.7927C84.0797 100.729 83.3698 100.839 82.6942 101.067C82.1225 101.264 81.5946 101.571 81.1398 101.969C80.7401 102.355 80.4182 102.814 80.1917 103.321C79.9815 103.813 79.8706 104.341 79.8653 104.876C79.8546 105.514 79.9708 106.148 80.2072 106.741C80.4188 107.239 80.7434 107.681 81.1554 108.031C81.5799 108.382 82.0719 108.641 82.601 108.793C83.1934 108.955 83.8056 109.033 84.4197 109.026C84.6732 109.046 84.9278 109.046 85.1813 109.026C85.4836 108.978 85.7804 108.899 86.0674 108.793C86.3799 108.686 86.6777 108.54 86.9534 108.358C87.2538 108.175 87.526 107.95 87.7616 107.689H87.8393V108.948H91.7564V99.8862C91.7812 99.1152 91.6269 98.3491 91.3057 97.6478C91.0124 97.0779 90.5858 96.5873 90.0622 96.2178" fill="#675393"/>
<path d="M101.456 105.264C101.097 105.437 100.704 105.527 100.306 105.529C99.9687 105.559 99.6296 105.504 99.3197 105.368C99.0099 105.232 98.7394 105.02 98.5336 104.751C98.0934 103.961 97.8986 103.057 97.9741 102.156C97.9019 101.237 98.1194 100.318 98.5959 99.5287C98.8088 99.2633 99.0823 99.0529 99.3933 98.915C99.7043 98.7771 100.044 98.7157 100.383 98.7359C100.761 98.7438 101.132 98.834 101.471 99.0002C101.916 99.2227 102.32 99.5167 102.668 99.8706L105.187 97.2126C104.563 96.5439 103.806 96.0142 102.964 95.6582C102.141 95.3412 101.265 95.1829 100.383 95.1919C99.5592 95.1869 98.7399 95.3182 97.9585 95.5805C97.1812 95.8368 96.4701 96.2614 95.8757 96.824C95.2469 97.4343 94.7543 98.1706 94.4301 98.9846C94.0546 99.977 93.8751 101.033 93.9015 102.093C93.8784 103.153 94.0524 104.207 94.4145 105.202C94.7021 106.016 95.1697 106.755 95.7824 107.363C96.3397 107.93 97.0206 108.361 97.772 108.622C98.5423 108.885 99.3517 109.017 100.166 109.011C101.093 109.014 102.013 108.835 102.87 108.482C103.765 108.112 104.586 107.586 105.295 106.928L102.715 104.301C102.353 104.67 101.926 104.97 101.456 105.187" fill="#675393"/>
<path d="M110.611 100.664C110.666 100.118 110.914 99.6109 111.311 99.2335C111.671 98.9022 112.143 98.719 112.632 98.7205C113.116 98.7092 113.584 98.8878 113.938 99.2179C114.345 99.5926 114.59 100.111 114.622 100.664H110.611ZM118.477 99.4045C118.261 98.5958 117.874 97.8429 117.342 97.1972C116.813 96.5735 116.148 96.079 115.399 95.7516C113.783 95.1187 111.996 95.0692 110.347 95.6117C109.604 95.8513 108.924 96.255 108.357 96.793C107.742 97.4018 107.26 98.1324 106.943 98.9381C106.57 99.9797 106.391 101.081 106.414 102.187C106.381 103.341 106.565 104.49 106.959 105.575C107.273 106.377 107.767 107.095 108.404 107.674C108.977 108.186 109.656 108.563 110.394 108.778C111.123 108.98 111.875 109.084 112.632 109.088C113.581 109.073 114.524 108.921 115.43 108.638C116.473 108.298 117.425 107.724 118.212 106.959L115.803 104.27C115.325 104.734 114.745 105.081 114.109 105.28C113.667 105.427 113.206 105.511 112.741 105.529C112.173 105.564 111.615 105.374 111.186 105C110.736 104.5 110.482 103.854 110.471 103.182H118.85V102.218C118.86 101.267 118.734 100.32 118.477 99.4045Z" fill="#675393"/>
<path d="M72.3419 20.3629C72.3995 20.3694 72.4579 20.3639 72.5133 20.3467C72.5686 20.3295 72.6198 20.301 72.6636 20.263C72.7074 20.2251 72.7429 20.1784 72.7678 20.1261C72.7927 20.0737 72.8064 20.0168 72.8082 19.9588C72.8125 19.8459 72.7728 19.7358 72.6974 19.6516C72.622 19.5675 72.5168 19.516 72.4041 19.508C72.3469 19.5038 72.2894 19.5109 72.235 19.5289C72.1806 19.547 72.1302 19.5756 72.0869 19.6132C72.0436 19.6507 72.0081 19.6965 71.9825 19.7478C71.9569 19.7991 71.9417 19.855 71.9378 19.9122C71.9335 19.9686 71.9408 20.0252 71.959 20.0787C71.9772 20.1323 72.0061 20.1816 72.0438 20.2237C72.0816 20.2658 72.1274 20.2998 72.1786 20.3237C72.2299 20.3477 72.2854 20.361 72.3419 20.3629Z" fill="#675393"/>
<path d="M60.4042 7.15054C60.4605 7.15476 60.5172 7.14756 60.5708 7.12934C60.6243 7.11112 60.6735 7.08227 60.7156 7.04452C60.7577 7.00678 60.7918 6.96091 60.8157 6.90968C60.8397 6.85845 60.853 6.80292 60.8549 6.74641C60.8591 6.69002 60.852 6.63336 60.8337 6.57983C60.8155 6.5263 60.7867 6.47701 60.7489 6.43491C60.7112 6.39281 60.6653 6.35876 60.614 6.33482C60.5628 6.31089 60.5073 6.29755 60.4507 6.29562C60.3878 6.28356 60.323 6.28555 60.2609 6.30145C60.1988 6.31735 60.141 6.34678 60.0916 6.38762C60.0422 6.42846 60.0024 6.4797 59.9751 6.53768C59.9478 6.59567 59.9337 6.659 59.9337 6.72309C59.9337 6.78719 59.9478 6.85048 59.9751 6.90847C60.0024 6.96646 60.0422 7.0177 60.0916 7.05854C60.141 7.09938 60.1988 7.1288 60.2609 7.14471C60.323 7.16061 60.3878 7.1626 60.4507 7.15054" fill="#675393"/>
<path d="M37.5543 56.4717C37.6672 56.4761 37.7774 56.4363 37.8615 56.3609C37.9457 56.2855 37.9971 56.1803 38.0051 56.0676C38.0093 56.0112 38.0021 55.9546 37.9839 55.901C37.9657 55.8475 37.9368 55.7982 37.8991 55.7561C37.8614 55.714 37.8155 55.68 37.7643 55.656C37.7131 55.6321 37.6575 55.6188 37.601 55.6168C37.5016 55.6359 37.4119 55.689 37.3474 55.767C37.2829 55.845 37.2476 55.9431 37.2476 56.0443C37.2476 56.1455 37.2829 56.2436 37.3474 56.3216C37.4119 56.3996 37.5016 56.4527 37.601 56.4717" fill="#675393"/>
<path d="M50.3783 80.6893C50.374 80.8022 50.4137 80.9123 50.4891 80.9964C50.5645 81.0806 50.6697 81.1321 50.7824 81.14C50.8396 81.1443 50.8971 81.1372 50.9515 81.1191C51.0059 81.1011 51.0563 81.0725 51.0996 81.0349C51.1429 80.9974 51.1784 80.9516 51.204 80.9003C51.2296 80.849 51.2448 80.7931 51.2487 80.7359C51.2531 80.623 51.2133 80.5128 51.1379 80.4287C51.0625 80.3446 50.9573 80.2931 50.8446 80.2851C50.7874 80.2809 50.7299 80.288 50.6755 80.306C50.6211 80.3241 50.5708 80.3527 50.5274 80.3903C50.4841 80.4278 50.4487 80.4736 50.4231 80.5249C50.3975 80.5762 50.3822 80.6321 50.3783 80.6893Z" fill="#675393"/>
<path d="M47.1761 60.0003C47.1805 59.8874 47.1407 59.7772 47.0653 59.6931C46.9899 59.609 46.8847 59.5575 46.772 59.5495C46.7148 59.5453 46.6573 59.5524 46.6029 59.5704C46.5485 59.5885 46.4982 59.6171 46.4548 59.6547C46.4115 59.6922 46.3761 59.738 46.3505 59.7893C46.3249 59.8406 46.3096 59.8965 46.3057 59.9537C46.3014 60.0666 46.3411 60.1767 46.4165 60.2608C46.4919 60.345 46.5971 60.3964 46.7098 60.4044C46.7675 60.4109 46.8258 60.4054 46.8812 60.3882C46.9365 60.371 46.9877 60.3425 47.0316 60.3045C47.0754 60.2666 47.1108 60.2199 47.1357 60.1676C47.1606 60.1152 47.1744 60.0582 47.1761 60.0003Z" fill="#675393"/>
<path d="M49.8963 35.674C50.0092 35.6783 50.1194 35.6385 50.2035 35.5631C50.2876 35.4877 50.339 35.3825 50.347 35.2698C50.3591 35.2068 50.3572 35.142 50.3412 35.0799C50.3253 35.0178 50.2959 34.96 50.2551 34.9106C50.2143 34.8612 50.163 34.8214 50.105 34.7941C50.047 34.7668 49.9837 34.7527 49.9196 34.7527C49.8555 34.7527 49.7922 34.7668 49.7342 34.7941C49.6763 34.8214 49.625 34.8612 49.5842 34.9106C49.5433 34.96 49.5139 35.0178 49.498 35.0799C49.4821 35.142 49.4801 35.2068 49.4921 35.2698C49.4857 35.3274 49.4913 35.3857 49.5084 35.4411C49.5256 35.4965 49.5541 35.5477 49.592 35.5915C49.63 35.6353 49.6767 35.6708 49.729 35.6957C49.7814 35.7206 49.8383 35.7343 49.8963 35.7361" fill="#675393"/>
<path d="M53.145 30.5441C53.2579 30.5484 53.368 30.5087 53.4521 30.4333C53.5363 30.3578 53.5878 30.2527 53.5958 30.14C53.6022 30.0823 53.5967 30.024 53.5795 29.9687C53.5623 29.9133 53.5338 29.8621 53.4959 29.8183C53.4579 29.7745 53.4112 29.739 53.3589 29.7141C53.3065 29.6892 53.2496 29.6754 53.1916 29.6737C53.0787 29.6693 52.9685 29.7091 52.8844 29.7845C52.8003 29.8599 52.7489 29.9651 52.7409 30.0778C52.7366 30.135 52.7437 30.1924 52.7617 30.2469C52.7798 30.3013 52.8084 30.3516 52.846 30.395C52.8836 30.4383 52.9293 30.4738 52.9806 30.4994C53.0319 30.525 53.0878 30.5402 53.145 30.5441Z" fill="#675393"/>
<path d="M100.244 40.5858C100.3 40.59 100.356 40.5828 100.41 40.5646C100.464 40.5464 100.513 40.5175 100.555 40.4798C100.597 40.442 100.631 40.3962 100.655 40.345C100.679 40.2937 100.692 40.2382 100.694 40.1817C100.698 40.1253 100.691 40.0686 100.673 40.0151C100.655 39.9616 100.626 39.9123 100.588 39.8702C100.551 39.8281 100.505 39.7941 100.453 39.7701C100.402 39.7462 100.347 39.7328 100.29 39.7309C100.177 39.7266 100.067 39.7663 99.983 39.8417C99.8989 39.9172 99.8474 40.0223 99.8394 40.135C99.8351 40.1914 99.8424 40.2481 99.8606 40.3016C99.8788 40.3551 99.9077 40.4044 99.9454 40.4465C99.9832 40.4886 100.029 40.5227 100.08 40.5466C100.131 40.5705 100.187 40.5839 100.244 40.5858Z" fill="#675393"/>
<path d="M56.2228 45.5911C56.2137 45.7112 56.2406 45.8313 56.3 45.9361C56.3595 46.0408 56.4488 46.1255 56.5566 46.1793C56.6643 46.2331 56.7857 46.2535 56.9051 46.2381C57.0246 46.2226 57.1367 46.1719 57.2272 46.0924C57.3177 46.0129 57.3826 45.9083 57.4134 45.7918C57.4442 45.6754 57.4396 45.5524 57.4002 45.4386C57.3608 45.3248 57.2883 45.2253 57.1921 45.1528C57.0959 45.0803 56.9803 45.038 56.8601 45.0315C56.7027 45.0268 56.5495 45.0819 56.4312 45.1858C56.313 45.2896 56.2385 45.4345 56.2228 45.5911Z" fill="#675393"/>
<path d="M109.259 55.8029L109.85 54.3262L111.326 53.7511L109.85 53.1604L109.259 51.6837L108.684 53.1604L107.207 53.7511L108.684 54.3262L109.259 55.8029Z" fill="#675393"/>
<path d="M44.7824 12.5907L43.741 15.2176L41.114 16.2591L43.741 17.3005L44.7824 19.943L45.8239 17.3005L48.4664 16.2591L45.8239 15.2176L44.7824 12.5907Z" fill="#675393"/>
<path d="M101.145 79.5854L101.503 78.6683L102.42 78.3108L101.503 77.9533L101.145 77.0206L100.772 77.9533L99.8705 78.3108L100.772 78.6683L101.145 79.5854Z" fill="#675393"/>
<path d="M96.0622 74.3786C96.1252 74.3906 96.19 74.3886 96.2521 74.3727C96.3141 74.3568 96.372 74.3274 96.4214 74.2866C96.4708 74.2457 96.5105 74.1945 96.5378 74.1365C96.5651 74.0785 96.5793 74.0152 96.5793 73.9511C96.5793 73.887 96.5651 73.8237 96.5378 73.7657C96.5105 73.7077 96.4708 73.6565 96.4214 73.6156C96.372 73.5748 96.3141 73.5454 96.2521 73.5295C96.19 73.5136 96.1252 73.5116 96.0622 73.5236C96.0058 73.5194 95.9491 73.5267 95.8956 73.5449C95.8421 73.5631 95.7928 73.5919 95.7507 73.6297C95.7086 73.6674 95.6746 73.7133 95.6506 73.7645C95.6267 73.8158 95.6133 73.8713 95.6114 73.9278C95.6071 74.0407 95.6469 74.1508 95.7223 74.235C95.7977 74.3191 95.9028 74.3706 96.0155 74.3786" fill="#675393"/>
<path d="M101.114 68.596C101.17 68.6002 101.227 68.593 101.281 68.5748C101.334 68.5566 101.383 68.5277 101.425 68.49C101.467 68.4522 101.502 68.4063 101.525 68.3551C101.549 68.3039 101.563 68.2484 101.565 68.1918C101.569 68.0789 101.529 67.9688 101.454 67.8847C101.378 67.8005 101.273 67.749 101.16 67.7411C101.098 67.729 101.033 67.731 100.971 67.7469C100.909 67.7628 100.851 67.7922 100.801 67.8331C100.752 67.8739 100.712 67.9251 100.685 67.9831C100.658 68.0411 100.643 68.1044 100.643 68.1685C100.643 68.2326 100.658 68.2959 100.685 68.3539C100.712 68.4119 100.752 68.4631 100.801 68.504C100.851 68.5448 100.909 68.5742 100.971 68.5901C101.033 68.606 101.098 68.608 101.16 68.596" fill="#675393"/>
<path d="M41.0829 46.7566C41.1459 46.7687 41.2107 46.7667 41.2728 46.7508C41.3349 46.7349 41.3927 46.7054 41.4421 46.6646C41.4915 46.6238 41.5312 46.5725 41.5585 46.5145C41.5858 46.4566 41.6 46.3933 41.6 46.3292C41.6 46.2651 41.5858 46.2018 41.5585 46.1438C41.5312 46.0858 41.4915 46.0345 41.4421 45.9937C41.3927 45.9529 41.3349 45.9234 41.2728 45.9075C41.2107 45.8916 41.1459 45.8896 41.0829 45.9017C41.0265 45.8975 40.9699 45.9047 40.9163 45.9229C40.8628 45.9411 40.8135 45.97 40.7714 46.0077C40.7293 46.0455 40.6953 46.0913 40.6714 46.1426C40.6474 46.1938 40.634 46.2493 40.6321 46.3058C40.6278 46.4187 40.6676 46.5289 40.743 46.613C40.8184 46.6971 40.9236 46.7486 41.0363 46.7566" fill="#675393"/>
<path d="M42.0311 50.7666L42.3887 51.6837L42.7462 50.7666L43.6633 50.4091L42.7462 50.0516L42.3887 49.1345L42.0311 50.0516L41.114 50.4091L42.0311 50.7666Z" fill="#675393"/>
<path d="M51.9483 77.5488C53.7669 78.0618 55.3523 77.8908 56.0674 75.8701C56.3005 75.1706 56.7358 73.6317 57.1866 71.9219C55.4213 71.582 53.711 71.0014 52.1037 70.1965C51.7928 70.0411 51.4975 69.8701 51.2022 69.6991C50.596 71.5177 50.0985 73.0255 49.9897 73.5229C49.7336 74.317 49.7944 75.1794 50.1594 75.9297C50.5244 76.68 51.1654 77.2602 51.9483 77.5488Z" fill="#675393"/>
<path d="M87.9949 60.9012C86.9679 60.7193 85.9287 60.6153 84.8861 60.5903C84.8302 60.5911 84.776 60.6096 84.7313 60.6432C84.6866 60.6767 84.6537 60.7235 84.6373 60.7769C84.6321 60.8752 84.6321 60.9738 84.6373 61.0722C84.1865 62.5178 84.6373 64.8183 86.5959 65.1914C86.9361 65.3012 87.296 65.3365 87.6511 65.2946C88.0061 65.2528 88.3479 65.135 88.6533 64.9491C88.9587 64.7632 89.2204 64.5137 89.4206 64.2175C89.6208 63.9213 89.7548 63.5855 89.8135 63.2328C89.8135 62.9375 89.9845 62.3623 90.1244 61.6784C90.134 61.6169 90.1201 61.554 90.0856 61.5022C90.0511 61.4504 89.9983 61.4134 89.9379 61.3986C89.3088 61.2155 88.6706 61.0651 88.026 60.9478" fill="#675393"/>
<path d="M68.3939 54.1084C68.4411 54.2241 68.4415 54.3536 68.3951 54.4696C68.3487 54.5856 68.2591 54.679 68.1451 54.7302L67.1348 55.1654C67.0188 55.2088 66.8908 55.2074 66.7758 55.1614C66.6608 55.1154 66.5671 55.0281 66.513 54.9167L64.9586 51.3882C64.9114 51.2726 64.9109 51.1431 64.9573 51.0271C65.0037 50.9111 65.0933 50.8176 65.2073 50.7665L66.2177 50.3312C66.2747 50.3057 66.3362 50.292 66.3987 50.2907C66.4611 50.2895 66.5232 50.3008 66.5812 50.324C66.6392 50.3472 66.6919 50.3818 66.7363 50.4257C66.7806 50.4697 66.8158 50.5221 66.8395 50.5799L68.3939 54.1084ZM72.5286 56.4089L76.4301 55.8649C76.5557 55.8471 76.6834 55.8795 76.7852 55.9552C76.8871 56.0308 76.9549 56.1436 76.9741 56.2691L77.1296 57.3571C77.1428 57.4826 77.1062 57.6083 77.0277 57.7071C76.9493 57.8059 76.8351 57.87 76.7099 57.8856L72.8083 58.4297C72.6827 58.4475 72.5552 58.4151 72.4533 58.3394C72.3515 58.2637 72.2835 58.1509 72.2643 58.0255L72.1088 56.9374C72.0957 56.8119 72.1322 56.6863 72.2107 56.5875C72.2892 56.4886 72.4033 56.4245 72.5286 56.4089ZM74.5027 41.5488C74.5437 41.3823 74.6329 41.2316 74.7592 41.1157C74.8855 40.9997 75.0433 40.9236 75.2127 40.897C75.3821 40.8704 75.5555 40.8943 75.7114 40.9659C75.8672 41.0375 75.9984 41.1536 76.0885 41.2995C76.1786 41.4454 76.2236 41.6146 76.2179 41.786C76.2122 41.9574 76.1559 42.1232 76.0562 42.2628C75.9566 42.4023 75.8179 42.5093 75.6577 42.5704C75.4974 42.6314 75.3227 42.6437 75.1555 42.6058C74.9298 42.5505 74.7349 42.4086 74.6128 42.2109C74.4907 42.0132 74.4511 41.7754 74.5027 41.5488ZM79.0259 44.2224C79.0677 44.0524 79.1589 43.8985 79.288 43.7803C79.4171 43.662 79.5783 43.5846 79.7514 43.558C79.9244 43.5313 80.1014 43.5564 80.2602 43.6303C80.4189 43.7042 80.5522 43.8234 80.6433 43.9729C80.7343 44.1225 80.779 44.2957 80.7717 44.4706C80.7644 44.6455 80.7054 44.8144 80.6022 44.9558C80.499 45.0972 80.3563 45.2049 80.1919 45.2653C80.0276 45.3257 79.849 45.336 79.6788 45.2949C79.4519 45.2361 79.2568 45.0912 79.135 44.891C79.0131 44.6908 78.974 44.451 79.0259 44.2224ZM58.1814 37.896L62.0363 42.4348C62.2989 42.7483 62.6609 42.9623 63.0622 43.0411L67.8342 43.9426C67.9383 43.9611 68.0361 44.0052 68.1188 44.0709C68.2016 44.1366 68.2667 44.2219 68.3083 44.319C68.3499 44.4161 68.3668 44.5221 68.3573 44.6273C68.3478 44.7326 68.3123 44.8338 68.2539 44.9219C66.5187 47.5981 64.624 50.1675 62.5803 52.6162C61.5544 53.6887 59.4715 55.8027 57.5596 57.6525C58.5053 58.1845 59.4095 58.7872 60.2643 59.4556C61.242 60.2267 62.1426 61.0909 62.9535 62.0359C64.0058 61.2325 65.0126 60.371 65.969 59.4556L68.7979 61.01C68.7979 61.01 68.2384 62.0514 66.4819 64.9271C67.8489 65.4808 69.1476 66.1902 70.3523 67.0411C71.025 67.5207 71.6687 68.0397 72.2799 68.5955C72.5131 68.269 72.7306 67.9426 72.9327 67.6317C75.1555 64.2898 80.4716 55.383 82.2591 52.2742C82.331 52.1543 82.4311 52.0537 82.5508 51.9815C82.6705 51.9092 82.8061 51.8674 82.9457 51.8597C83.0854 51.8521 83.2247 51.8788 83.3516 51.9375C83.4785 51.9962 83.5891 52.0851 83.6736 52.1965L85.6166 54.7457C85.7398 54.9135 85.8258 55.1058 85.8687 55.3095C85.9116 55.5132 85.9105 55.7238 85.8654 55.9271C85.6788 56.6887 85.3679 57.9944 85.0726 59.1447C86.1155 59.1659 87.155 59.2698 88.1814 59.4556C88.912 59.5955 89.6115 59.7664 90.3109 59.9685C90.8116 57.9318 91.093 55.8474 91.1503 53.7509C90.3303 52.1794 89.3456 50.6996 88.2125 49.3364C88.162 49.2678 88.0918 49.2162 88.0113 49.1884C87.9308 49.1607 87.8437 49.1581 87.7617 49.181L85.9119 49.6784C85.7986 49.7125 85.6763 49.7006 85.5716 49.6454C85.4669 49.5901 85.3882 49.4959 85.3524 49.383L84.9016 47.9841C84.8765 47.9078 84.8819 47.8246 84.9166 47.7522C84.9514 47.6797 85.0129 47.6236 85.0882 47.5955L86.3161 47.1292C86.3747 47.1045 86.4275 47.0677 86.4708 47.0212C86.5142 46.9747 86.5473 46.9195 86.5679 46.8593C86.5885 46.7991 86.596 46.7353 86.5901 46.6719C86.5842 46.6086 86.565 46.5472 86.5337 46.4918L84.311 42.8234C82.126 42.6132 79.9923 42.0351 78.0001 41.1136C76.4371 40.196 75.2439 38.7609 74.627 37.0566C73.2333 36.9562 71.8334 36.9874 70.4456 37.1499C70.3864 37.159 70.3298 37.1803 70.2792 37.2123C70.2286 37.2444 70.1852 37.2865 70.1516 37.3361C70.118 37.3857 70.0951 37.4417 70.0841 37.5006C70.0732 37.5595 70.0746 37.62 70.0881 37.6784C70.1814 38.0825 70.3057 38.6732 70.3679 38.9685C70.3776 38.993 70.3816 39.0193 70.3795 39.0456C70.3774 39.0718 70.3692 39.0972 70.3557 39.1197C70.3421 39.1423 70.3236 39.1614 70.3015 39.1756C70.2794 39.1899 70.2542 39.1988 70.2281 39.2017L68.6737 39.5281C68.5858 39.5408 68.4962 39.5231 68.4199 39.4778C68.3435 39.4326 68.285 39.3626 68.2539 39.2794L67.8653 38.0048C67.8302 37.9051 67.7612 37.8208 67.6703 37.7668C67.5794 37.7128 67.4723 37.6925 67.3679 37.7095L65.2384 38.1291C65.0864 38.1595 64.9294 38.1527 64.7805 38.1095C64.6317 38.0662 64.4955 37.9876 64.3835 37.8805C63.9483 37.4608 62.8291 36.2328 61.9897 35.1292C61.3003 35.7642 60.5679 36.351 59.798 36.8856C59.2384 37.2758 58.6572 37.6339 58.0571 37.9582" fill="#675393"/>
<path d="M83.7668 55.0723L82.9742 54.0775C82.9517 54.0422 82.9206 54.0131 82.8839 53.993C82.8473 53.9728 82.8061 53.9623 82.7643 53.9623C82.7225 53.9623 82.6813 53.9728 82.6446 53.993C82.6079 54.0131 82.5769 54.0422 82.5544 54.0775L76.6477 64.3987C76.626 64.4316 76.6142 64.4701 76.614 64.5095C76.6139 64.5489 76.6252 64.5875 76.6467 64.6205C76.6682 64.6535 76.6988 64.6796 76.7349 64.6954C76.771 64.7112 76.811 64.7162 76.8498 64.7096L78.9948 64.5231C79.1057 64.5123 79.2122 64.4739 79.3045 64.4115C79.3968 64.349 79.472 64.2645 79.5233 64.1656L83.8291 55.5231C83.8786 55.4525 83.9051 55.3684 83.9051 55.2822C83.9051 55.1959 83.8786 55.1118 83.8291 55.0412" fill="#675393"/>
<path d="M77.3782 36.5594C77.0674 35.0303 77.2023 33.4441 77.7668 31.9894L76.5699 30.7615C76.4019 31.0677 76.2665 31.3907 76.1659 31.7252C75.8422 32.5647 75.7819 33.483 75.9929 34.3576C76.2039 35.2323 76.6763 36.022 77.3471 36.6216" fill="#675393"/>
<path d="M57.0312 36.5439C57.088 36.6087 57.1654 36.6518 57.2504 36.666C57.3354 36.6802 57.4227 36.6645 57.4975 36.6216C58.0415 36.3107 58.57 35.9843 59.0519 35.6268C59.7003 35.1691 60.323 34.6762 60.9172 34.1501C60.9778 34.0753 61.0108 33.982 61.0108 33.8858C61.0108 33.7896 60.9778 33.6963 60.9172 33.6216C59.3628 31.3521 57.9482 31.0257 56.627 31.9117C56.3127 32.0765 56.0413 32.3127 55.8348 32.6014C55.6283 32.89 55.4925 33.2231 55.4381 33.5738C55.3836 33.9245 55.4121 34.2831 55.5214 34.6207C55.6308 34.9584 55.8177 35.2657 56.0673 35.5179L56.9534 36.5439" fill="#675393"/>
<path d="M69.513 68.2537C68.3122 67.4354 67.0246 66.7524 65.6736 66.2174C64.2591 68.207 62.0674 70.8029 60.2798 72.8858C61.0759 74.0701 62.0042 75.1601 63.0467 76.1345C63.7336 76.7772 64.4661 77.3694 65.2384 77.9065C67.2746 75.5594 69.5907 72.4817 71.456 69.8703C70.8486 69.31 70.2047 68.7907 69.5285 68.3159" fill="#675393"/>
<path d="M59.3005 73.9894C58.4612 74.9687 57.7462 75.7148 57.4819 76.1034C56.3938 77.4246 54.3731 79.6319 56.3938 81.4816C58.4145 83.3314 59.7047 83.207 62.4249 80.8443C63.0762 80.2635 63.6938 79.6459 64.2747 78.9946C63.4887 78.4455 62.7457 77.8375 62.0519 77.1759C61.0239 76.2148 60.1015 75.1465 59.3005 73.9894Z" fill="#675393"/>
<path d="M80.456 28.9115C79.8913 28.7985 79.3081 28.8183 78.7524 28.9693C78.1967 29.1204 77.6837 29.3986 77.2539 29.7819L78.342 30.9011C78.926 30.1204 79.6413 29.4471 80.456 28.9115Z" fill="#675393"/>
<path d="M57.544 70.5541C58.0259 68.6888 58.4923 66.8236 58.7721 65.751C58.9164 65.1184 59.2938 64.5634 59.8291 64.1966L61.741 62.9064C61.0019 62.0746 60.1904 61.3099 59.3161 60.6215C58.419 59.9008 57.4563 59.2659 56.4405 58.7251L55.2901 59.8754C54.5342 60.6149 53.9597 61.5193 53.6115 62.5178C53.1296 63.9634 52.3524 66.2018 51.6373 68.3158C51.9948 68.5179 52.3524 68.7199 52.7254 68.9064C54.243 69.6647 55.8522 70.2238 57.513 70.5697" fill="#675393"/>
<path d="M80.8911 40.6163C82.5577 41.1724 84.3703 41.0982 85.9858 40.4079C87.6014 39.7175 88.9079 38.4589 89.658 36.8702C90.0572 35.9791 90.2671 35.0148 90.2745 34.0384C90.2819 33.062 90.0865 32.0946 89.7008 31.1976C89.3151 30.3005 88.7474 29.4933 88.0337 28.8269C87.3199 28.1605 86.4757 27.6495 85.5543 27.3262C84.3999 26.8891 83.1541 26.7497 81.9316 26.9209C80.7092 27.092 79.5495 27.5682 78.5595 28.3054C81.2953 27.5904 83.2228 28.8339 85.4922 30.8547C88.9274 33.9635 86.1761 40.694 81.6217 40.1811C80.1282 40.0816 78.7114 39.4837 77.5981 38.4832C76.4848 37.4827 75.7396 36.1374 75.4818 34.663C75.4041 36.979 77.4248 39.4816 80.8911 40.663" fill="#675393"/>
<path d="M74.1607 35.813C74.2366 35.8199 74.3131 35.8102 74.3849 35.7848C74.4568 35.7593 74.5222 35.7186 74.5769 35.6654C74.6315 35.6123 74.674 35.5479 74.7014 35.4768C74.7289 35.4057 74.7406 35.3295 74.7358 35.2534V34.041C74.7328 33.9821 74.7113 33.9257 74.6743 33.8798C74.6373 33.8338 74.5869 33.8008 74.53 33.7852C74.4731 33.7697 74.4128 33.7726 74.3576 33.7934C74.3025 33.8142 74.2554 33.8519 74.2229 33.9011L73.3058 35.2379C73.273 35.2879 73.254 35.3456 73.2505 35.4053C73.2471 35.465 73.2593 35.5245 73.286 35.578C73.3128 35.6315 73.3531 35.677 73.4029 35.7101C73.4527 35.7431 73.5103 35.7625 73.57 35.7664L74.1607 35.813Z" fill="#675393"/>
</g>
<defs>
<clipPath id="clip0_223_1871">
<rect width="141" height="141" fill="white"/>
</clipPath>
</defs>
</svg>
