<svg width="14" height="16" viewBox="0 0 14 16" fill="none" xmlns="http://www.w3.org/2000/svg">
<path d="M13.625 5H13V7H13.625C13.8125 7 14 7.1875 14 7.375V8.625C14 8.84375 13.8125 9 13.625 9H13V11H13.625C13.8125 11 14 11.1875 14 11.375V12.625C14 12.8438 13.8125 13 13.625 13H13V14.5C13 15.3438 12.3125 16 11.5 16H1.5C0.65625 16 0 15.3438 0 14.5V1.5C0 0.6875 0.65625 0 1.5 0H11.5C12.3125 0 13 0.6875 13 1.5V3H13.625C13.8125 3 14 3.1875 14 3.375V4.625C14 4.84375 13.8125 5 13.625 5ZM11.5 14.5V1.5H1.5V14.5H11.5ZM6.5 8C5.375 8 4.5 7.125 4.5 6C4.5 4.90625 5.375 4 6.5 4C7.59375 4 8.5 4.90625 8.5 6C8.5 7.125 7.59375 8 6.5 8ZM3.6875 12C3.3125 12 3 11.75 3 11.4062V10.8125C3 9.8125 3.9375 9 5.09375 9C5.4375 9 5.65625 9.25 6.5 9.25C7.3125 9.25 7.5625 9 7.875 9C9.03125 9 10 9.8125 10 10.8125V11.4062C10 11.75 9.6875 12 9.28125 12H3.6875Z" />
</svg>
