<svg width="10" height="17" viewBox="0 0 10 17" fill="none" xmlns="http://www.w3.org/2000/svg">
<path d="M8.5813 11.4746L9.17505 12.0684C9.3313 12.2246 9.3313 12.4746 9.17505 12.5996L5.30005 16.5059C5.1438 16.6621 4.92505 16.6621 4.7688 16.5059L0.893799 12.5996C0.737549 12.4746 0.737549 12.2246 0.893799 12.0684L1.48755 11.4746C1.6438 11.3184 1.8938 11.3184 2.0188 11.4746L4.2063 13.7559V3.47461L2.0188 5.75586C1.8938 5.91211 1.6438 5.91211 1.48755 5.75586L0.893799 5.13086C0.737549 5.00586 0.737549 4.75586 0.893799 4.59961L4.7688 0.724609C4.92505 0.568359 5.1438 0.568359 5.30005 0.724609L9.17505 4.59961C9.3313 4.75586 9.3313 5.00586 9.17505 5.13086L8.5813 5.75586C8.42505 5.91211 8.17505 5.91211 8.05005 5.75586L5.86255 3.47461V13.7559L8.05005 11.4746C8.17505 11.3184 8.42505 11.3184 8.5813 11.4746Z"/>
</svg>
