<svg width="14" height="14" viewBox="0 0 14 14" fill="none" xmlns="http://www.w3.org/2000/svg">
<ellipse cx="7" cy="6.94262" rx="7" ry="6.94262" />
<path d="M3.81836 3.78906H9.63574V5.39398H6.04181V6.12431H7.6423C8.46012 6.12431 9.08627 6.28961 9.52073 6.62021C9.96159 6.9448 10.182 7.41666 10.182 8.03578C10.182 8.67895 9.93284 9.18387 9.43448 9.55054C8.93612 9.91721 8.24289 10.1005 7.35479 10.1005H3.81836V3.78906ZM7.20145 8.61283C7.42507 8.61283 7.59758 8.56775 7.71897 8.47759C7.84676 8.38742 7.91065 8.25819 7.91065 8.08988C7.91065 7.76529 7.67425 7.603 7.20145 7.603H6.04181V8.61283H7.20145Z" />
<path d="M3.81836 3.78906H9.63574V5.39398H6.04181V6.12431H7.6423C8.46012 6.12431 9.08627 6.28961 9.52073 6.62021C9.96159 6.9448 10.182 7.41666 10.182 8.03578C10.182 8.67895 9.93284 9.18387 9.43448 9.55054C8.93612 9.91721 8.24289 10.1005 7.35479 10.1005H3.81836V3.78906ZM7.20145 8.61283C7.42507 8.61283 7.59758 8.56775 7.71897 8.47759C7.84676 8.38742 7.91065 8.25819 7.91065 8.08988C7.91065 7.76529 7.67425 7.603 7.20145 7.603H6.04181V8.61283H7.20145Z"  fill-opacity="0.2"/>
</svg>
