<svg width="39" height="33" viewBox="0 0 39 33" fill="none" xmlns="http://www.w3.org/2000/svg">
<g clip-path="url(#clip0_9152_72706)">
<path d="M8.52953 7.34725C8.15982 8.23918 7.49132 8.97111 6.64123 9.41474C5.79114 9.85832 4.81372 9.98522 3.88031 9.77325C2.94691 9.56128 2.11709 9.02398 1.53635 8.2555C0.955596 7.487 0.660989 6.53638 0.704165 5.57029C0.747339 4.60419 1.12554 3.6843 1.77247 2.97186C2.41939 2.25943 3.29375 1.79992 4.24226 1.6739C5.19078 1.54789 6.15289 1.76341 6.95996 2.28268C7.76701 2.80194 8.36751 3.59181 8.65615 4.51382H10.5036L10.6429 3.60822C10.717 3.12591 10.9833 2.69419 11.381 2.41152C11.6864 2.19454 12.0517 2.07796 12.4263 2.07796H14.1757L14.4941 0.914336C14.5173 0.828834 14.5672 0.753183 14.6364 0.698663C14.7054 0.644143 14.7901 0.613668 14.8778 0.611797H36.9118C37.0872 0.612324 37.2575 0.671346 37.3962 0.77971C37.5349 0.888063 37.6345 1.03969 37.6792 1.21107C38.0629 2.64814 38.8304 6.44737 37.7349 10.1321C37.6744 10.3324 37.5515 10.5075 37.3844 10.6312C37.2175 10.755 37.0153 10.8207 36.8082 10.8187H34.4965C34.4965 10.8187 32.5779 10.9293 32.4609 13.3554L32.2058 17.1023L31.7434 17.7714L31.3789 30.228C31.3789 30.228 31.4882 30.8098 30.6518 31.1104C29.8153 31.411 25.9879 32.0665 24.0694 30.7439C24.0694 30.7439 23.7413 30.7439 23.5975 29.1633C23.4536 27.5827 23.5245 17.882 23.5245 17.882L23.0507 17.2206L22.8339 12.8473C22.8339 12.8473 22.7974 11.195 20.8348 11.0476L15.11 10.9796C14.9792 10.9765 14.8527 10.9311 14.7492 10.8502C14.6457 10.7693 14.5704 10.6569 14.5345 10.5298L14.2851 9.69392H12.619C12.236 9.69392 11.8619 9.57755 11.5464 9.36022C11.1353 9.07709 10.8529 8.64285 10.7607 8.1523L10.6131 7.36664L8.52953 7.34725Z" stroke="#181818" stroke-width="0.94" stroke-miterlimit="10"/>
<path d="M23.5152 20.7667C26.1847 21.6146 29.0473 21.6146 31.7168 20.7667" stroke="#181818" stroke-width="0.94" stroke-miterlimit="10"/>
<path d="M23.5189 17.8819C23.5189 17.8819 27.9526 19.2395 31.7339 17.7714" stroke="#181818" stroke-width="0.94" stroke-miterlimit="10"/>
<path d="M34.6024 0.52C34.6024 0.52 36.0566 6.05692 34.6024 10.7347" stroke="#181818" stroke-width="0.94" stroke-miterlimit="10"/>
<path d="M14.1763 1.76477C14.1763 1.76477 13.7638 5.80643 14.2856 9.37682" stroke="#181818" stroke-width="0.94" stroke-miterlimit="10"/>
</g>
<defs>
<clipPath id="clip0_9152_72706">
<rect width="39" height="33" fill="white"/>
</clipPath>
</defs>
</svg>
