<svg width="16" height="14" viewBox="0 0 16 14" fill="none" xmlns="http://www.w3.org/2000/svg">
<path d="M14.5 0C15.3125 0 16 0.6875 16 1.5V4C16 4.28125 15.75 4.5 15.5 4.5H15L15 13C15 13.5625 14.5312 14 14 14L2 14C1.4375 14 1 13.5625 1 13L1 4.5H0.5C0.21875 4.5 0 4.28125 0 4L0 1.5C0 0.6875 0.65625 0 1.5 0L14.5 0ZM13.5 12.5L13.5 4.5L2.5 4.5L2.5 12.5L13.5 12.5ZM14.5 3V1.5L1.5 1.5L1.5 3L14.5 3ZM6.375 7.5C6.15625 7.5 6 7.34375 6 7.125V6.375C6 6.1875 6.15625 6 6.375 6L9.625 6C9.8125 6 10 6.1875 10 6.375V7.125C10 7.34375 9.8125 7.5 9.625 7.5H6.375Z"/>
</svg>
