<svg width="12" height="15" viewBox="0 0 12 15" fill="none" xmlns="http://www.w3.org/2000/svg">
<path d="M9.9375 7.40625C9.9375 7.46875 9.84375 9.3125 11.875 10.2812C11.5 11.4375 10.1875 14 8.65625 14C7.78125 14 7.28125 13.4375 6.28125 13.4375C5.25 13.4375 4.6875 14 3.90625 14C2.40625 14.0625 0.96875 11.25 0.5625 10.0938C0.25 9.21875 0.125 8.375 0.125 7.5625C0.125 4.78125 1.96875 3.4375 3.71875 3.40625C4.5625 3.40625 5.625 4 6.09375 4C6.53125 4 7.75 3.28125 8.875 3.375C10.0312 3.46875 10.9062 3.90625 11.5 4.75C10.4688 5.40625 9.9375 6.25 9.9375 7.40625ZM8.1875 2.28125C7.5625 3 6.8125 3.40625 6 3.34375C5.9375 2.5 6.25 1.71875 6.8125 1.09375C7.3125 0.53125 8.1875 0.0625 8.9375 0C8.9375 0.34375 9.03125 1.28125 8.1875 2.28125Z" />
</svg>
