<svg viewBox="0 0 29 25" fill="none" xmlns="http://www.w3.org/2000/svg">
<path d="M9.23981 5.08093C7.95698 5.08093 6.95923 6.1262 6.95923 7.36151C6.95923 8.64434 7.95698 9.64209 9.23981 9.64209C10.4751 9.64209 11.5204 8.64434 11.5204 7.36151C11.5204 6.1262 10.4751 5.08093 9.23981 5.08093ZM18.3621 5.08093C17.0793 5.08093 16.0815 6.1262 16.0815 7.36151C16.0815 8.64434 17.0793 9.64209 18.3621 9.64209C19.5974 9.64209 20.6427 8.64434 20.6427 7.36151C20.6427 6.1262 19.5974 5.08093 18.3621 5.08093ZM27.0093 11.9227C26.7718 11.9702 26.4867 12.0652 26.2966 12.1602L22.1631 14.9634C22.1156 14.4883 21.9255 13.7281 21.6405 13.348C23.731 12.1602 25.2039 9.92716 25.2039 7.36151C25.2039 3.60806 22.1156 0.519775 18.3621 0.519775C16.6517 0.519775 15.0363 1.18494 13.801 2.32523C12.5181 1.18494 10.9027 0.519775 9.23981 0.519775C5.43884 0.519775 2.39807 3.60806 2.39807 7.36151C2.39807 9.11946 3.06324 10.7349 4.15602 11.9227H2.39807C1.54285 11.9227 0.877686 12.6353 0.877686 13.4431V16.4838C0.877686 17.339 1.54285 18.0042 2.39807 18.0042H4.67865V21.8052C4.67865 23.5156 6.00899 24.8459 7.71942 24.8459H19.1223C20.7852 24.8459 22.1631 23.5156 22.1631 21.8052V21.8527L26.2966 24.6559C26.4867 24.7509 26.7718 24.8459 27.0093 24.8459C27.627 24.8459 28.2446 24.3708 28.2446 23.6581V13.158C28.2446 12.4453 27.627 11.9227 27.0093 11.9227ZM19.8825 21.8052C19.8825 22.2328 19.5024 22.5654 19.1223 22.5654H7.71942C7.29181 22.5654 6.95923 22.2328 6.95923 21.8052V15.7236H3.15826V14.2032H19.1223C19.5024 14.2032 19.8825 14.5833 19.8825 14.9634V21.8052ZM18.3621 11.9227H9.23981C6.72167 11.9227 4.67865 9.87965 4.67865 7.36151C4.67865 4.89088 6.72167 2.80035 9.23981 2.80035C10.3326 2.80035 11.3778 3.22796 12.2331 3.98816L13.801 5.366L15.3214 3.98816C16.1766 3.22796 17.2218 2.80035 18.3621 2.80035C20.8327 2.80035 22.9233 4.89088 22.9233 7.36151C22.9233 9.87965 20.8327 11.9227 18.3621 11.9227ZM25.9641 21.6626L22.1631 19.097V17.6716L25.9641 15.1535V21.6626Z" />
</svg>
