<svg width="16" height="16" viewBox="0 0 16 16" fill="none" xmlns="http://www.w3.org/2000/svg">
<path d="M5.25 9.25C5.5 9.25 5.75 9.5 5.75 9.75V10.25C5.75 10.5312 5.5 10.75 5.25 10.75H4.75C4.46875 10.75 4.25 10.5312 4.25 10.25V9.75C4.25 9.5 4.46875 9.25 4.75 9.25H5.25ZM4.25 7.75V8.25C4.25 8.53125 4 8.75 3.75 8.75H3.25C2.96875 8.75 2.75 8.53125 2.75 8.25V7.75C2.75 7.5 2.96875 7.25 3.25 7.25H3.75C4 7.25 4.25 7.5 4.25 7.75ZM7.25 7.75V8.25C7.25 8.53125 7 8.75 6.75 8.75H6.25C5.96875 8.75 5.75 8.53125 5.75 8.25V7.75C5.75 7.5 5.96875 7.25 6.25 7.25H6.75C7 7.25 7.25 7.5 7.25 7.75ZM11.25 9.25C11.5 9.25 11.75 9.5 11.75 9.75V10.25C11.75 10.5312 11.5 10.75 11.25 10.75H10.75C10.4688 10.75 10.25 10.5312 10.25 10.25V9.75C10.25 9.5 10.4688 9.25 10.75 9.25H11.25ZM12.75 7.25C13 7.25 13.25 7.5 13.25 7.75V8.25C13.25 8.53125 13 8.75 12.75 8.75H12.25C11.9688 8.75 11.75 8.53125 11.75 8.25V7.75C11.75 7.5 11.9688 7.25 12.25 7.25H12.75ZM15.9688 11.875C15.9688 11.9688 16 12.0625 16 12.1562V14.5C16 15.3438 15.3125 16 14.5 16H1.5C0.65625 16 0 15.3438 0 14.5V12.1562C0 12.0625 0 11.9688 0 11.875L0.8125 6.3125C0.90625 5.5625 1.53125 5 2.28125 5H4.5V4H1.5C1.21875 4 1 3.78125 1 3.5V0.5C1 0.25 1.21875 0 1.5 0H9.5C9.75 0 10 0.25 10 0.5V3.5C10 3.78125 9.75 4 9.5 4H6.5V5H13.6875C14.4375 5 15.0625 5.5625 15.1562 6.3125L15.9688 11.875ZM2.5 2.5H8.5V1.5H2.5V2.5ZM2.28125 6.5L1.5625 11.5H14.4062L13.6875 6.5H2.28125ZM14.5 14.5V13H1.5V14.5H14.5ZM10.25 7.75V8.25C10.25 8.53125 10 8.75 9.75 8.75H9.25C8.96875 8.75 8.75 8.53125 8.75 8.25V7.75C8.75 7.5 8.96875 7.25 9.25 7.25H9.75C10 7.25 10.25 7.5 10.25 7.75ZM8.25 9.25C8.5 9.25 8.75 9.5 8.75 9.75V10.25C8.75 10.5312 8.5 10.75 8.25 10.75H7.75C7.46875 10.75 7.25 10.5312 7.25 10.25V9.75C7.25 9.5 7.46875 9.25 7.75 9.25H8.25Z" />
</svg>
