<svg width="14" height="14" viewBox="0 0 14 14" fill="none" xmlns="http://www.w3.org/2000/svg">
<path d="M12.5 0C13.3125 0 14 0.6875 14 1.5V12.5C14 13.3438 13.3125 14 12.5 14H1.5C0.65625 14 0 13.3438 0 12.5V1.5C0 0.6875 0.65625 0 1.5 0H12.5ZM12.5 12.5V1.5H1.5V12.5H12.5ZM11.375 4.96875L5.96875 10.3125C5.8125 10.4688 5.59375 10.4688 5.4375 10.3125L2.59375 7.4375C2.46875 7.3125 2.46875 7.0625 2.59375 6.90625L3.3125 6.21875C3.46875 6.0625 3.6875 6.0625 3.84375 6.21875L5.71875 8.09375L10.125 3.71875C10.2812 3.5625 10.5312 3.5625 10.6562 3.71875L11.375 4.4375C11.5 4.59375 11.5 4.8125 11.375 4.96875Z" />
</svg>
