<svg width="21" height="21" viewBox="0 0 21 21" fill="none" xmlns="http://www.w3.org/2000/svg">
<path d="M10.0547 20.6357C4.53184 20.6357 0.0546875 16.1586 0.0546875 10.6357C0.0546875 5.11289 4.53184 0.635742 10.0547 0.635742C15.5775 0.635742 20.0547 5.11289 20.0547 10.6357C20.0486 16.1561 15.575 20.6297 10.0547 20.6357ZM10.0547 2.63574C5.63641 2.63574 2.05469 6.21746 2.05469 10.6357C2.05469 15.054 5.63641 18.6357 10.0547 18.6357C14.473 18.6357 18.0547 15.054 18.0547 10.6357C18.0497 6.21952 14.4709 2.6407 10.0547 2.63574ZM15.0547 11.6357H9.05469V5.63574H11.0547V9.63574H15.0547V11.6357Z" fill="white"/>
</svg>
