<svg width="19" height="17" viewBox="0 0 19 17" fill="none" xmlns="http://www.w3.org/2000/svg">
<path d="M8.3125 16L7.125 15.6563C6.96875 15.625 6.90625 15.4688 6.9375 15.3438L11.3438 0.1875C11.375 0.0625 11.5312 0 11.6562 0.03125L12.875 0.375C13 0.40625 13.0625 0.5625 13.0312 0.6875L8.625 15.8438C8.59375 15.9688 8.46875 16.0312 8.3125 16ZM5.71875 12.2188C5.625 12.3125 5.46875 12.3125 5.375 12.2188L1.0625 8.1875C0.96875 8.09375 0.96875 7.9375 1.0625 7.84375L5.375 3.78125C5.46875 3.6875 5.625 3.71875 5.71875 3.8125L6.5625 4.71875C6.65625 4.8125 6.65625 4.96875 6.5625 5.0625L3.25 8L6.5625 10.9688C6.65625 11.0625 6.65625 11.2188 6.5625 11.3125L5.71875 12.2188ZM14.5937 12.2188C14.5 12.3125 14.3437 12.3125 14.25 12.2188L13.4062 11.3125C13.3125 11.2188 13.3125 11.0625 13.4062 10.9688L16.7188 8L13.4062 5.0625C13.3125 4.96875 13.3125 4.8125 13.4062 4.71875L14.25 3.8125C14.3438 3.71875 14.5 3.6875 14.5938 3.78125L18.9062 7.84375C19 7.9375 19 8.09375 18.9062 8.1875L14.5937 12.2188Z"/>
</svg>
