<svg width="17" height="14" viewBox="0 0 17 14" fill="none" xmlns="http://www.w3.org/2000/svg">
<path d="M11.1562 7.53125C11.4375 7.21875 11.9062 7.15625 12.2188 7.4375C12.5312 7.71875 12.5625 8.1875 12.3125 8.5C11.4688 9.46875 10.2812 10 9 10C7.6875 10 6.5 9.46875 5.65625 8.5C5.40625 8.1875 5.4375 7.71875 5.75 7.4375C6.0625 7.15625 6.53125 7.21875 6.8125 7.53125C7.34375 8.15625 8.125 8.5 9 8.5C9.84375 8.5 10.625 8.15625 11.1562 7.53125ZM7 6C6.4375 6 6 5.5625 6 5C6 4.46875 6.4375 4 7 4C7.53125 4 8 4.46875 8 5C8 5.5625 7.53125 6 7 6ZM11 6C10.4375 6 10 5.5625 10 5C10 4.46875 10.4375 4 11 4C11.5312 4 12 4.46875 12 5C12 5.5625 11.5312 6 11 6ZM9 0C13.4062 0 17 2.9375 17 6.5C17 10.0938 13.4062 13 9 13C7.96875 13 7 12.8438 6.09375 12.5625C5.1875 13.2188 3.65625 14 1.75 14C1.4375 14 1.15625 13.8438 1.03125 13.5625C0.9375 13.2812 0.96875 12.9688 1.1875 12.75C1.21875 12.75 2.1875 11.6875 2.625 10.4688C1.59375 9.375 1 8 1 6.5C1 2.9375 4.5625 0 9 0ZM9 11.5C12.5625 11.5 15.5 9.28125 15.5 6.5C15.5 3.75 12.5625 1.5 9 1.5C5.40625 1.5 2.5 3.75 2.5 6.5C2.5 7.84375 3.15625 8.84375 3.71875 9.4375L4.375 10.125L4.03125 11C3.875 11.4375 3.65625 11.875 3.40625 12.25C4.15625 12 4.78125 11.6562 5.21875 11.3438L5.8125 10.9062L6.53125 11.125C7.3125 11.375 8.15625 11.5 9 11.5Z" />
</svg>
