<svg width="19" height="17" viewBox="0 0 19 17" fill="none" xmlns="http://www.w3.org/2000/svg">
<path d="M9.5 3C8.65625 3 8 2.34375 8 1.5C8 0.6875 8.65625 0 9.5 0C10.3125 0 11 0.6875 11 1.5C11 2.34375 10.3125 3 9.5 3ZM10.7188 13H12L12.2812 12.5L1.9375 6.875C1.625 6.71875 1.40625 6.3125 1.40625 6C1.40625 5.78125 1.5 5.5 1.65625 5.34375L3.4375 3.28125C3.5625 3.125 3.8125 3.03125 4 3H6.25C6.75 3.03125 7.53125 3.1875 7.96875 3.40625C8.90625 3.875 9.8125 5.09375 10.0312 6.09375L10.7188 9.90625L13.0625 11.1875L14.0625 9.5C14.2188 9.21875 14.5938 9 14.9062 9C15.25 9 15.6562 9.25 15.8125 9.5625L19 16H9L9.75 13.6875C9.875 13.3125 10.3125 13.0312 10.7188 13ZM4.34375 6.4375L6.0625 4.5H4.3125L3.1875 5.8125L4.34375 6.4375ZM6.9375 7.84375L9.03125 9L8.46875 6.15625L6.9375 7.84375ZM13.2812 13.7812L12.8438 14.5H16.5625L14.875 11.0625L13.2812 13.7812ZM7.09375 10.8438C7.3125 10.9688 7.46875 11.2812 7.5 11.5V15.25C7.5 15.6875 7.15625 16 6.75 16C6.3125 16 6 15.6875 6 15.25V11.9688L3.90625 10.8125L2.4375 15.5C2.375 15.7812 2.03125 16.0312 1.71875 16.0312C1.3125 16.0312 0.96875 15.7188 0.96875 15.2812C0.96875 15.2188 1 15.125 1.03125 15.0312L3.03125 8.5625L7.09375 10.8438Z" />
</svg>
