<svg width="20" height="19" viewBox="0 0 20 19" fill="none" xmlns="http://www.w3.org/2000/svg">
<path d="M13.8376 15.3423L10.3876 18.7923C10.2079 18.972 9.95635 18.972 9.77666 18.7923L6.32666 15.3423C6.14697 15.1626 6.14697 14.8751 6.32666 14.7313L7.04541 14.0126C7.18916 13.8329 7.47666 13.8329 7.65635 14.0126L9.16572 15.6298H9.2376V10.5626H4.17041V10.6345L5.7876 12.1438C5.96729 12.3235 5.96729 12.611 5.7876 12.7548L5.06885 13.4735C4.9251 13.6532 4.6376 13.6532 4.45791 13.4735L1.00791 10.0235C0.828223 9.84385 0.828223 9.59229 1.00791 9.4126L4.45791 5.9626C4.6376 5.78291 4.9251 5.78291 5.06885 5.9626L5.7876 6.68135C5.96729 6.8251 5.96729 7.1126 5.7876 7.29229L4.17041 8.76572V8.8376H9.2376V3.80635H9.16572L7.65635 5.42354C7.47666 5.60322 7.18916 5.60322 7.04541 5.42354L6.32666 4.70479C6.14697 4.56104 6.14697 4.27354 6.32666 4.09385L9.77666 0.643848C9.95635 0.46416 10.2079 0.46416 10.3876 0.643848L13.8376 4.09385C14.0173 4.27354 14.0173 4.56104 13.8376 4.70479L13.1188 5.42354C12.9751 5.60322 12.6876 5.60322 12.5079 5.42354L11.0345 3.80635H10.9626V8.8376H15.9938V8.76572L14.3767 7.29229C14.197 7.1126 14.197 6.8251 14.3767 6.68135L15.0954 5.9626C15.2392 5.78291 15.5267 5.78291 15.7063 5.9626L19.1563 9.4126C19.336 9.59229 19.336 9.84385 19.1563 10.0235L15.7063 13.4735C15.5267 13.6532 15.2392 13.6532 15.0954 13.4735L14.3767 12.7548C14.197 12.611 14.197 12.3235 14.3767 12.1438L15.9938 10.6345V10.5626H10.9626V15.6298H11.0345L12.5079 14.0126C12.6876 13.8329 12.9751 13.8329 13.1188 14.0126L13.8376 14.7313C14.0173 14.8751 14.0173 15.1626 13.8376 15.3423Z" />
</svg>
