<svg  viewBox="0 0 25 18" fill="none" xmlns="http://www.w3.org/2000/svg">
<path d="M4.5 0C2.01562 0 0 2.01562 0 4.5V13.5C0 15.9844 2.01562 18 4.5 18H8.4375C8.71875 18 9 17.7656 9 17.4375V16.3125C9 16.0312 8.71875 15.75 8.4375 15.75H4.5C3.23438 15.75 2.25 14.7656 2.25 13.5V4.5C2.25 3.28125 3.23438 2.25 4.5 2.25H8.4375C8.71875 2.25 9 2.01562 9 1.6875V0.5625C9 0.28125 8.71875 0 8.4375 0H4.5ZM15.3281 0.9375L14.3906 1.875C14.1562 2.0625 14.1562 2.4375 14.3906 2.67188L19.6875 7.78125H8.0625C7.73438 7.78125 7.5 8.0625 7.5 8.34375V9.65625C7.5 9.98438 7.73438 10.2188 8.0625 10.2188H19.6875L14.3906 15.375C14.1562 15.6094 14.1562 15.9844 14.3906 16.1719L15.3281 17.1094C15.5156 17.3438 15.8906 17.3438 16.125 17.1094L23.8125 9.42188C24.0469 9.1875 24.0469 8.85938 23.8125 8.625L16.125 0.9375C15.8906 0.703125 15.5156 0.703125 15.3281 0.9375Z" />
</svg>
