<svg width="16" height="16" viewBox="0 0 16 16" fill="none" xmlns="http://www.w3.org/2000/svg">
<path d="M15.5312 0C15.7812 0 16 0.21875 16 0.46875L15.9687 5.5625C15.9687 5.8125 15.7812 6 15.5312 6H14.5C14.25 6 14.0312 5.8125 14.0312 5.5625L14.125 3.25L14.0625 3.1875L5.34375 11.9062C5.28125 11.9688 5.15625 12.0312 5.09375 12.0312C5 12.0312 4.875 11.9688 4.8125 11.9062L4.09375 11.1875C4.03125 11.125 3.96875 11 3.96875 10.9062C3.96875 10.8438 4.03125 10.7188 4.09375 10.6562L12.8125 1.9375L12.75 1.875L10.4375 1.96875C10.1875 1.96875 10 1.75 10 1.5V0.46875C10 0.21875 10.1875 0.03125 10.4375 0.03125L15.5312 0ZM13.5 9C13.75 9 14 9.25 14 9.5V14.5C14 15.3438 13.3125 16 12.5 16L1.5 16C0.65625 16 0 15.3438 0 14.5L0 3.5C0 2.6875 0.65625 2 1.5 2L6.5 2C6.75 2 7 2.25 7 2.5L7 3C7 3.28125 6.75 3.5 6.5 3.5L1.6875 3.5C1.5625 3.5 1.5 3.59375 1.5 3.6875L1.5 14.3125C1.5 14.4375 1.5625 14.5 1.6875 14.5L12.3125 14.5C12.4062 14.5 12.5 14.4375 12.5 14.3125V9.5C12.5 9.25 12.7187 9 13 9H13.5Z" />
</svg>
