<svg width="21" height="16" viewBox="0 0 21 16" fill="none" xmlns="http://www.w3.org/2000/svg">
<path d="M20.8125 14.7188C20.9062 14.8125 21 15 21 15.125C21 15.2188 20.9375 15.375 20.875 15.4375L20.5625 15.8125C20.4687 15.9375 20.3125 16 20.1875 16C20.0625 16 19.9375 15.9688 19.875 15.9063L1.1875 1.28125C1.0625 1.21875 0.96875 1.03125 0.96875 0.90625C0.96875 0.8125 1.03125 0.65625 1.09375 0.59375L1.40625 0.1875C1.5 0.09375 1.65625 0 1.8125 0C1.90625 0 2.03125 0.0625 2.125 0.125L20.8125 14.7188ZM10.25 4.59375C10.4688 4.5625 10.7812 4.53125 11 4.5C12.875 4.5 14.4062 6 14.4687 7.875L10.25 4.59375ZM11.7187 11.4375C11.5 11.4688 11.1875 11.5 11 11.5C9.09375 11.5 7.5625 10.0313 7.5 8.15625L11.7187 11.4375ZM11 3.5C10.375 3.5 9.75 3.59375 9.15625 3.75L7.71875 2.59375C8.75 2.21875 9.84375 2 11 2C14.8125 2 18.1875 4.25 19.875 7.5625C19.9375 7.6875 20 7.875 20 8C20 8.15625 19.9375 8.34375 19.875 8.46875C19.5 9.1875 18.7812 10.2188 18.2188 10.8125L17.0312 9.90625C17.5 9.4375 18.0938 8.59375 18.4062 8C16.9062 5.21875 14.0625 3.5 11 3.5ZM11 12.5C11.5937 12.5 12.2187 12.4375 12.8125 12.2813L14.25 13.4375C13.2187 13.7813 12.125 14 11 14C7.15625 14 3.78125 11.7812 2.09375 8.46875C2.03125 8.34375 2 8.15625 2 8.03125C2 7.875 2.03125 7.6875 2.09375 7.5625C2.46875 6.84375 3.1875 5.8125 3.75 5.21875L4.9375 6.125C4.46875 6.59375 3.875 7.4375 3.5625 8C5.0625 10.7812 7.90625 12.5 11 12.5Z" />
</svg>
