<svg width="12" height="16" viewBox="0 0 12 16" fill="none" xmlns="http://www.w3.org/2000/svg">
<path d="M11.5312 3.0625C11.8125 3.34375 12 3.75 12 4.125V14.5C12 15.3438 11.3125 16 10.5 16H1.5C0.65625 16 0 15.3438 0 14.5V1.5C0 0.6875 0.65625 0 1.5 0H7.875C8.25 0 8.65625 0.15625 8.9375 0.4375L11.5312 3.0625ZM10.375 4L8 1.625V4H10.375ZM1.5 14.5H10.5V5.5H7.25C6.8125 5.5 6.5 5.1875 6.5 4.75V1.5H1.5V14.5ZM2.5 13V11L3.71875 9.78125C3.875 9.625 4.09375 9.625 4.25 9.78125L5.5 11L8.21875 8.28125C8.375 8.125 8.59375 8.125 8.75 8.28125L9.5 9V13H2.5ZM4 5.5C4.8125 5.5 5.5 6.1875 5.5 7C5.5 7.84375 4.8125 8.5 4 8.5C3.15625 8.5 2.5 7.84375 2.5 7C2.5 6.1875 3.15625 5.5 4 5.5Z" />
</svg>
