<svg viewBox="0 0 12 17" fill="none" xmlns="http://www.w3.org/2000/svg">
<path d="M6.75 1.78125C6.75 1.03125 5.75 0.71875 5.34375 1.34375C2.375 5.96875 6.25 8.46875 6.25 10C6.25 10.7188 5.6875 11.25 5 11.25C4.28125 11.25 3.75 10.7188 3.75 10V6.71875C3.75 6.09375 3.0625 5.75 2.5625 6.09375C0.9375 7.21875 0 9.0625 0 11C0 14.3125 2.6875 17 6 17C9.28125 17 12 14.3125 12 11C12 5.6875 6.75 5 6.75 1.78125ZM6 15.5C3.5 15.5 1.5 13.5 1.5 11C1.5 10.125 1.75 9 2.25 8.25V10C2.25 11.5312 3.46875 12.75 5 12.75C6.5 12.75 7.75 11.5312 7.75 10C7.75 8 5 6.25 5.75 3.5C7 6.25 10.5 7.3125 10.5 11C10.5 13.5 8.46875 15.5 6 15.5Z"/>
</svg>
