<svg width="30" height="31" viewBox="0 0 30 31" fill="none" xmlns="http://www.w3.org/2000/svg">
<path d="M15.0537 0.460037L14.4067 10.3835C14.3876 10.6769 14.2999 10.9616 14.1508 11.2151L9.50331 19.1083C8.94018 20.0647 8.05608 20.7883 7.01374 21.1698C4.91323 21.9384 2.29085 22.9553 1.87077 23.3343C1.19472 23.9443 1.1947 25.7743 2.20878 26.3842C2.83817 26.7628 10.3214 26.9942 10.9974 26.6893C11.425 26.4963 19.7861 20.8944 23.1663 20.5894C27.5517 20.1938 28.5747 16.3196 27.8986 15.0996C26.8085 13.1325 23.8424 9.60974 23.8424 8.99977C23.8424 8.51178 24.0677 3.10329 24.1804 0.460037" stroke="#181818" stroke-width="0.94" stroke-linecap="round"/>
<path d="M23.5745 28.3371C23.5745 28.6698 23.2664 29.1174 22.4248 29.5094C21.6216 29.8834 20.4792 30.1274 19.1919 30.1274C17.9046 30.1274 16.7621 29.8834 15.9591 29.5094C15.1175 29.1174 14.8093 28.6698 14.8093 28.3371C14.8093 28.0045 15.1175 27.5569 15.9591 27.1649C16.7621 26.7909 17.9046 26.5469 19.1919 26.5469C20.4792 26.5469 21.6216 26.7909 22.4248 27.1649C23.2664 27.5569 23.5745 28.0045 23.5745 28.3371Z" stroke="#181818" stroke-width="0.94"/>
<path d="M29.2364 23.8163C29.2364 23.9409 29.1093 24.2002 28.5604 24.4558C28.0501 24.6936 27.312 24.8532 26.4713 24.8532C25.6307 24.8532 24.8926 24.6936 24.3823 24.4558C23.8334 24.2002 23.7062 23.9409 23.7062 23.8163C23.7062 23.6918 23.8334 23.4325 24.3823 23.1769C24.8926 22.9391 25.6307 22.7795 26.4713 22.7795C27.312 22.7795 28.0501 22.9391 28.5604 23.1769C29.1093 23.4325 29.2364 23.6918 29.2364 23.8163Z" stroke="#181818" stroke-width="0.94"/>
</svg>
