<svg width="12" height="16" viewBox="0 0 12 16" fill="none" xmlns="http://www.w3.org/2000/svg">
<path d="M11 0C11.5312 0 12 0.46875 12 1V13C12 14.6562 10.625 16 9 16H1C0.4375 16 0 15.5625 0 15V1C0 0.46875 0.4375 0 1 0H11ZM10.5 13V1.5H1.5V14.5H9C9.8125 14.5 10.4688 13.8438 10.5 13ZM3.5 7.5C3.21875 7.5 3 7.28125 3 7V3C3 2.75 3.21875 2.5 3.5 2.5H8.5C8.75 2.5 9 2.75 9 3V6.5C9 7.0625 8.53125 7.5 8 7.5H3.5ZM2.75 11C2.59375 11 2.5 10.9062 2.5 10.75V10.25C2.5 10.125 2.59375 10 2.75 10H3.5V9.25C3.5 9.125 3.59375 9 3.75 9H4.25C4.375 9 4.5 9.125 4.5 9.25V10H5.25C5.375 10 5.5 10.125 5.5 10.25V10.75C5.5 10.9062 5.375 11 5.25 11H4.5V11.75C4.5 11.9062 4.375 12 4.25 12H3.75C3.59375 12 3.5 11.9062 3.5 11.75V11H2.75ZM7.25 10.5C7.65625 10.5 8 10.8438 8 11.25C8 11.6875 7.65625 12 7.25 12C6.8125 12 6.5 11.6875 6.5 11.25C6.5 10.8438 6.8125 10.5 7.25 10.5ZM8 9.75C8 9.34375 8.3125 9 8.75 9C9.15625 9 9.5 9.34375 9.5 9.75C9.5 10.1875 9.15625 10.5 8.75 10.5C8.3125 10.5 8 10.1875 8 9.75Z" />
</svg>
