<svg width="18" height="19" viewBox="0 0 18 19" fill="none" xmlns="http://www.w3.org/2000/svg">
<path d="M16.1437 9.0168C16.1797 9.48398 16.1797 9.95117 16.1437 10.3824L17.2937 11.0652C17.6172 11.2449 17.7969 11.6402 17.689 12.0355C17.2937 13.5449 16.4672 14.9105 15.389 16.0246C15.1015 16.2762 14.6703 16.348 14.3469 16.1684L13.1969 15.4855C12.9094 15.7012 12.3703 16.0246 12.0109 16.1684V17.498C12.0109 17.8934 11.7594 18.2168 11.364 18.3246C9.8906 18.7199 8.27341 18.7199 6.79998 18.3246C6.4406 18.2527 6.1531 17.8574 6.1531 17.498V16.1684C5.79373 16.0246 5.25466 15.7012 4.96716 15.4855L3.81716 16.1684C3.49373 16.348 3.06248 16.2762 2.77498 16.0246C1.69685 14.9105 0.870288 13.5449 0.474976 12.0355C0.367163 11.6402 0.546851 11.2449 0.870288 11.0652L2.02029 10.3824C1.98435 10.2027 1.98435 9.91523 1.98435 9.69961C1.98435 9.51992 1.98435 9.23242 2.02029 9.0168L0.870288 8.36992C0.546851 8.19023 0.367163 7.79492 0.474976 7.39961C0.870288 5.89023 1.69685 4.52461 2.77498 3.41055C3.06248 3.15898 3.49373 3.08711 3.81716 3.2668L4.96716 3.94961C5.25466 3.73398 5.79373 3.41055 6.1531 3.2668V1.93711C6.1531 1.5418 6.40466 1.21836 6.79998 1.11055C8.27341 0.715235 9.8906 0.715235 11.364 1.11055C11.7234 1.18242 12.0109 1.57773 12.0109 1.93711V3.2668C12.3703 3.41055 12.9094 3.73398 13.1969 3.94961L14.3469 3.2668C14.6703 3.08711 15.1015 3.15898 15.389 3.41055C16.4672 4.52461 17.2937 5.89023 17.689 7.39961C17.7969 7.79492 17.6172 8.19023 17.2937 8.36992L16.1437 9.0168ZM14.239 11.3168C14.5265 9.80742 14.5265 9.62773 14.239 8.11836L15.8203 7.21992C15.6047 6.57305 15.0297 5.63867 14.5984 5.13555L13.0172 6.03398C11.9031 5.06367 11.7234 4.95586 10.2859 4.45273V2.61992C9.96248 2.58398 9.42341 2.51211 9.09998 2.51211C8.7406 2.51211 8.20154 2.58398 7.8781 2.61992V4.45273C6.4406 4.95586 6.29685 5.06367 5.14685 6.03398L3.5656 5.13555C3.02654 5.74648 2.63123 6.46523 2.34373 7.21992L3.92498 8.11836C3.63748 9.62773 3.63748 9.80742 3.92498 11.3168L2.34373 12.2152C2.55935 12.8621 3.13435 13.7965 3.5656 14.2996L5.14685 13.4012C6.26091 14.3715 6.4406 14.4793 7.8781 14.9824V16.8152C8.20154 16.8512 8.7406 16.923 9.09998 16.923C9.42341 16.923 9.96248 16.8512 10.2859 16.8152V14.9824C11.7234 14.4793 11.8672 14.3715 13.0172 13.4012L14.5984 14.2996C15.0297 13.7965 15.6047 12.8621 15.8203 12.2152L14.239 11.3168ZM9.09998 6.24961C10.9687 6.24961 12.55 7.83086 12.55 9.69961C12.55 11.6043 10.9687 13.1496 9.09998 13.1496C7.19529 13.1496 5.64998 11.6043 5.64998 9.69961C5.64998 7.83086 7.19529 6.24961 9.09998 6.24961ZM9.09998 11.4246C10.0344 11.4246 10.825 10.6699 10.825 9.69961C10.825 8.76523 10.0344 7.97461 9.09998 7.97461C8.12966 7.97461 7.37498 8.76523 7.37498 9.69961C7.37498 10.6699 8.12966 11.4246 9.09998 11.4246Z" />
</svg>
