<svg width="37" height="35" viewBox="0 0 37 35" fill="none" xmlns="http://www.w3.org/2000/svg">
<g filter="url(#filter0_d_8684_104362)">
<path d="M29.4765 7.41818H28.0038C28.3856 6.76364 28.6038 6.05455 28.6038 5.23636C28.6038 2.61818 26.4219 0.436364 23.8038 0.436364C21.5129 0.436364 20.0401 1.63636 18.1856 4.2C16.2765 1.63636 14.8038 0.436364 12.5674 0.436364C9.89467 0.436364 7.7674 2.61818 7.7674 5.23636C7.7674 6.05455 7.93103 6.76364 8.31285 7.41818H6.78558C5.31285 7.41818 4.1674 8.61818 4.1674 10.0364V17.0182C4.1674 17.5091 4.54922 17.8909 5.04013 17.8909H5.91285V23.7818C5.91285 25.3636 7.1674 26.6182 8.74922 26.6182H27.4583C29.0401 26.6182 30.3492 25.3636 30.3492 23.7818V17.8909H31.2219C31.6583 17.8909 32.0947 17.5091 32.0947 17.0182V10.0364C32.0947 8.61818 30.8947 7.41818 29.4765 7.41818ZM16.8219 24H8.74922C8.64013 24 8.53103 23.8909 8.53103 23.7818V17.8909H14.6401V15.2727H6.78558V10.0364H16.8219V24ZM12.5129 7.41818C11.3129 7.41818 10.331 6.49091 10.331 5.23636C10.331 4.03636 11.3129 3.05455 12.5129 3.05455C13.7129 3.05455 14.5856 3.49091 17.1492 7.25455L17.2583 7.41818H12.5129ZM19.1674 7.25455C21.731 3.49091 22.6038 3.05455 23.8038 3.05455C25.0038 3.05455 25.9856 4.03636 25.9856 5.23636C25.9856 6.49091 25.0038 7.41818 23.8038 7.41818H19.0583L19.1674 7.25455ZM29.4765 15.2727H21.6219V17.8909H27.731V23.7818C27.731 23.8909 27.6219 24 27.4583 24H19.4401V10.0364H29.4765V15.2727Z"/>
</g>
<defs>
<filter id="filter0_d_8684_104362" x="0.167969" y="0.4375" width="35.9258" height="34.1797" filterUnits="userSpaceOnUse" color-interpolation-filters="sRGB">
<feFlood flood-opacity="0" result="BackgroundImageFix"/>
<feColorMatrix in="SourceAlpha" type="matrix" values="0 0 0 0 0 0 0 0 0 0 0 0 0 0 0 0 0 0 127 0" result="hardAlpha"/>
<feOffset dy="4"/>
<feGaussianBlur stdDeviation="2"/>
<feComposite in2="hardAlpha" operator="out"/>
<feColorMatrix type="matrix" values="0 0 0 0 0 0 0 0 0 0 0 0 0 0 0 0 0 0 1 0"/>
<feBlend mode="normal" in2="BackgroundImageFix" result="effect1_dropShadow_8684_104362"/>
<feBlend mode="normal" in="SourceGraphic" in2="effect1_dropShadow_8684_104362" result="shape"/>
</filter>
</defs>
</svg>
