<svg viewBox="0 0 30 25" fill="none" xmlns="http://www.w3.org/2000/svg">
<path d="M28.5 11.5H27.5156C27.6562 11.1719 27.75 10.7969 27.75 10.4219C27.75 8.73438 26.4844 7 24.3281 7C22.0781 7 20.8125 9.25 20.25 10.5625C19.6875 9.34375 18.5156 7.28125 16.5 7.04688V7C16.5 6.20312 15.7969 5.5 15 5.5H12.0938L13.5469 4.46875C13.875 4.23438 13.9688 3.76562 13.7344 3.4375L13.2656 2.82812C13.0312 2.5 12.5625 2.40625 12.2344 2.64062L10.7344 3.71875L11.25 2.3125C11.4375 1.89062 11.2031 1.46875 10.8281 1.32812L10.125 1.09375C9.75 0.90625 9.32812 1.14062 9.14062 1.51562L8.25 4L7.3125 1.51562C7.17188 1.14062 6.70312 0.90625 6.32812 1.04688L5.625 1.32812C5.25 1.46875 5.0625 1.89062 5.20312 2.3125L5.71875 3.71875L4.21875 2.64062C3.89062 2.40625 3.42188 2.5 3.1875 2.82812L2.76562 3.4375C2.48438 3.76562 2.57812 4.23438 2.90625 4.46875L4.35938 5.5H1.5C0.65625 5.5 0 6.20312 0 7V23.5C0 24.3438 0.65625 25 1.5 25H28.5C29.2969 25 30 24.3438 30 23.5V13C30 12.2031 29.2969 11.5 28.5 11.5ZM24.3281 9.25C25.1719 9.25 25.5 9.95312 25.5 10.4219C25.5 10.6562 25.4062 10.9844 25.0781 11.3125C24.9844 11.3594 24.8438 11.4531 24.75 11.5H22.2656C22.6875 10.5625 23.4844 9.25 24.3281 9.25ZM16.125 9.25C16.9688 9.25 17.7656 10.5625 18.1875 11.5H15.75C15.6094 11.4531 15.4688 11.3594 15.375 11.3125C15.0469 10.9844 15 10.6562 15 10.4219C15 9.95312 15.2812 9.25 16.125 9.25ZM10.5 13V22.75H2.25V7.75H13.9688C13.1719 8.40625 12.75 9.4375 12.75 10.4219C12.75 10.7969 12.7969 11.1719 12.9375 11.5H12C11.1562 11.5 10.5 12.2031 10.5 13ZM19.125 22.75H12.75V19.375H19.125V22.75ZM19.125 17.125H12.75V13.75H19.125V17.125ZM20.2031 11.5H20.25H20.2031ZM27.75 22.75H21.375V19.375H27.75V22.75ZM27.75 17.125H21.375V13.75H27.75V17.125Z" />
</svg>
