<svg width="32" height="28" viewBox="0 0 32 28" fill="none" xmlns="http://www.w3.org/2000/svg">
<path d="M31.2786 14.9347L31.2785 17.9664M31.2786 14.9347C31.2777 14.6942 31.181 14.3196 31.0097 14.1498M31.2786 14.9347V18.1072C31.2786 18.3479 31.1804 18.5788 31.0054 18.7491M31.2786 14.9347C31.2777 14.6945 31.1845 14.3194 31.0097 14.1498M31.0097 14.1498C30.8383 13.9801 30.6062 13.8848 30.3643 13.8848M31.0097 14.1498C30.8348 13.9803 30.6111 13.8848 30.3643 13.8848M31.0054 18.7491C30.9205 18.8334 30.7953 18.9074 30.6844 18.953C30.5735 18.9986 30.466 19.0149 30.3459 19.0149M31.0054 18.7491C30.8305 18.9193 30.5932 19.0149 30.3459 19.0149M30.3459 19.0149H27.0863M27.0863 19.0149V22.1936C27.0867 22.3128 27.062 22.4243 27.0164 22.5346M27.0863 19.0149V22.1874C27.0867 22.3065 27.063 22.4245 27.0164 22.5346M27.0164 22.5346C26.9708 22.6448 26.9897 22.6428 26.905 22.7273C26.8204 22.8117 26.739 22.9245 26.6281 22.9701C26.5174 23.0159 26.2767 23.0952 26.1567 23.0952M27.0164 22.5346C26.9699 22.6447 26.9015 22.7447 26.8151 22.8291C26.7288 22.9135 26.6262 22.9804 26.5132 23.026C26.4002 23.0717 26.2791 23.0952 26.1567 23.0952M26.1567 23.0952H22.8971M22.8971 23.0952C22.777 23.0952 22.6496 23.0711 22.5387 23.0255M22.8971 23.0952C22.774 23.0952 22.6523 23.0715 22.5387 23.0255M22.5387 23.0255C22.4277 22.9798 22.3202 22.9115 22.2353 22.8271M22.5387 23.0255C22.4251 22.9795 22.322 22.9121 22.2353 22.8271M22.2353 22.8271C22.1504 22.7428 22.0795 22.6408 22.0336 22.5305M22.2353 22.8271C22.1487 22.7422 22.08 22.6413 22.0336 22.5305M22.0336 22.5305C21.9876 22.4202 21.9644 22.1921 21.9644 22.0728M22.0336 22.5305C21.9871 22.4197 21.9636 22.301 21.9644 22.1812V22.0728M21.9644 22.0728V18.8752H18.9537C18.7117 18.8744 18.48 18.7783 18.3092 18.6079C18.1384 18.4376 18.0425 18.2069 18.0425 17.9664V14.7905C18.0425 14.5502 18.1385 14.3199 18.3094 14.15C18.4803 13.9802 18.712 13.8848 18.9537 13.8848H22.1487V10.7088C22.1487 10.5894 22.1724 10.4713 22.2183 10.361C22.2643 10.2507 22.3317 10.1505 22.4166 10.0661C22.5014 9.98179 22.6022 9.91486 22.7131 9.86918C22.824 9.8235 22.943 9.79999 23.063 9.79999H26.258C26.378 9.79999 26.4967 9.8235 26.6074 9.86918C26.7182 9.91496 26.8188 9.98189 26.9035 10.0663C26.9881 10.1508 27.0551 10.251 27.1008 10.3612C27.1463 10.4714 27.1696 10.5896 27.1692 10.7088V13.8848H30.3643M21.9644 22.0728C18.9562 24.7589 16.3778 26.72 16.3778 26.72C16.3778 26.72 0.460022 15.7777 0.460022 10.3343C0.460022 4.89085 3.78803 1.34 8.46104 1.34C13.1341 1.34 15.6807 5.19099 15.6807 5.19099C15.6807 5.19099 18.2399 1.34 22.8971 1.34C27.5542 1.34 31.8075 5.26322 31.2786 9.94974C31.0843 11.671 29.8607 13.4758 29.5774 13.8848H30.3643" stroke="#181818" stroke-width="0.94" stroke-linecap="round" stroke-linejoin="round"/>
</svg>
