<svg  viewBox="0 0 27 23" fill="none" xmlns="http://www.w3.org/2000/svg">
<path d="M23.4688 3.04688C26.9844 6 26.4688 10.8281 23.9844 13.4062L15.7344 21.7969C15.2656 22.2656 14.6562 22.5469 14 22.5469C13.2969 22.5469 12.6875 22.2656 12.2188 21.7969L4.01562 13.4062C1.48438 10.8281 0.96875 6 4.48438 3.04688C7.20312 0.75 11.375 1.07812 14 3.75C16.5781 1.07812 20.75 0.75 23.4688 3.04688ZM22.3438 11.8125C24.0781 10.0781 24.4062 6.79688 22.0156 4.73438C20.1875 3.23438 17.375 3.46875 15.6406 5.25L14 6.9375L12.3594 5.25C10.5781 3.46875 7.76562 3.23438 5.9375 4.78125C3.54688 6.79688 3.875 10.0781 5.60938 11.8125L13.8125 20.2031C13.9531 20.2969 14.0469 20.2969 14.1406 20.2031L22.3438 11.8125Z"/>
</svg>
