<svg viewBox="0 0 21 18" fill="none" xmlns="http://www.w3.org/2000/svg">
<path d="M7.78125 15.9688C8.5 15.9688 9.0625 15.8438 9.5625 15.7188C9.90625 15.6562 10.125 15.3438 10.125 15V14C10.4375 13.875 10.7188 13.7188 10.9688 13.5312L11.8125 14C12.0938 14.1875 12.5 14.125 12.7188 13.875C13.5938 12.9688 14.25 12 14.5 10.7188C14.5625 10.4375 14.4375 10.125 14.1562 9.9375L13.3438 9.4375C13.375 9.09375 13.375 8.78125 13.3438 8.46875L14.1562 7.9375C14.4375 7.78125 14.5625 7.46875 14.5 7.15625C14.25 5.84375 13.5312 4.90625 12.7188 4.03125C12.5 3.78125 12.0938 3.71875 11.8125 3.875L10.9688 4.375C10.7188 4.1875 10.4375 4.03125 10.125 3.875V2.9375C10.125 2.59375 9.90625 2.28125 9.5625 2.21875C8.15625 1.875 7.375 1.875 5.96875 2.21875C5.65625 2.28125 5.40625 2.59375 5.40625 2.9375V3.875C5.125 4 4.84375 4.1875 4.5625 4.375L3.71875 3.875C3.4375 3.71875 3.0625 3.75 2.8125 4.03125C1.71875 5.1875 1.4375 5.84375 1.03125 7.09375C0.90625 7.4375 1.0625 7.8125 1.375 7.96875L2.21875 8.46875C2.1875 8.78125 2.1875 9.09375 2.21875 9.4375L1.375 9.90625C1.0625 10.0625 0.90625 10.4375 1.03125 10.7812C1.4375 12.0312 1.71875 12.6875 2.8125 13.875C3.0625 14.125 3.4375 14.1562 3.71875 14L4.5625 13.5C4.84375 13.6875 5.125 13.875 5.40625 14V15C5.40625 15.3438 5.65625 15.625 5.96875 15.7188C6.46875 15.8438 7.03125 15.9688 7.78125 15.9688ZM6.90625 14.375V12.9688L6.40625 12.7812C5.9375 12.625 5.5 12.375 5.125 12.0625L4.71875 11.7188L3.5 12.4062C3.125 11.9688 2.84375 11.4375 2.625 10.9062L3.84375 10.2188L3.75 9.6875C3.65625 9.1875 3.65625 8.6875 3.75 8.1875L3.84375 7.6875L2.625 6.96875C2.84375 6.4375 3.125 5.9375 3.5 5.46875L4.71875 6.1875L5.125 5.84375C5.5 5.5 5.9375 5.25 6.40625 5.09375L6.90625 4.90625V3.5C7.46875 3.4375 8.0625 3.4375 8.625 3.5V4.90625L9.125 5.09375C9.59375 5.25 10.0312 5.5 10.4062 5.84375L10.8125 6.1875L12.0312 5.46875C12.4062 5.9375 12.6875 6.4375 12.9062 6.96875L11.6875 7.65625L11.7812 8.1875C11.875 8.6875 11.875 9.1875 11.7812 9.6875L11.6875 10.2188L12.9062 10.9062C12.6875 11.4375 12.4062 11.9375 12.0312 12.4062L10.8125 11.6875L10.4062 12.0312C10.0312 12.375 9.59375 12.625 9.125 12.7812L8.625 12.9688V14.375C8.0625 14.4688 7.46875 14.4688 6.90625 14.375ZM7.75 11.7188C8.46875 11.7188 9.15625 11.4375 9.71875 10.9062C10.7812 9.84375 10.7812 8.09375 9.71875 7C8.625 5.9375 6.875 5.9375 5.8125 7C4.71875 8.09375 4.71875 9.84375 5.8125 10.9062C6.34375 11.4375 7.0625 11.7188 7.75 11.7188ZM7.75 7.6875C8.0625 7.6875 8.40625 7.8125 8.65625 8.0625C9.125 8.5625 9.125 9.34375 8.65625 9.84375C8.15625 10.3438 7.34375 10.3438 6.875 9.84375C6.375 9.34375 6.375 8.5625 6.875 8.0625C7.125 7.8125 7.4375 7.6875 7.75 7.6875ZM20.9375 3.65625C20.9062 3.5 20.75 3.34375 20.5625 3.34375H20.0625C19.9688 3.0625 19.7812 2.75 19.5938 2.53125L19.8438 2.09375C19.9062 1.9375 19.875 1.71875 19.75 1.59375C19.4688 1.375 19.125 1.1875 18.7812 1.03125C18.5938 0.96875 18.4062 1.03125 18.3125 1.21875L18.0625 1.625C17.75 1.59375 17.4062 1.59375 17.0938 1.625L16.8438 1.21875C16.75 1.03125 16.5625 0.96875 16.375 1.03125C16.0312 1.1875 15.6875 1.375 15.4062 1.59375C15.25 1.71875 15.2188 1.9375 15.3125 2.09375L15.5625 2.53125C15.3438 2.75 15.1875 3.0625 15.0938 3.34375H14.5938C14.4062 3.34375 14.25 3.5 14.2188 3.6875C14.1562 4.0625 14.1562 4.4375 14.2188 4.8125C14.25 5 14.4062 5.125 14.5938 5.125H15.0938C15.1875 5.4375 15.3438 5.71875 15.5625 5.96875L15.3125 6.40625C15.2188 6.5625 15.25 6.75 15.4062 6.875C15.6875 7.125 16.0312 7.3125 16.375 7.4375C16.5625 7.5 16.75 7.4375 16.8438 7.28125L17.0938 6.84375C17.4062 6.90625 17.75 6.90625 18.0625 6.84375L18.3125 7.28125C18.4062 7.4375 18.5938 7.5 18.7812 7.4375C19.125 7.3125 19.4688 7.125 19.75 6.875C19.875 6.75 19.9375 6.5625 19.8438 6.40625L19.5938 5.96875C19.7812 5.71875 19.9688 5.4375 20.0625 5.125H20.5625C20.75 5.125 20.9062 5 20.9375 4.8125C21 4.40625 21 4.03125 20.9375 3.65625ZM17.5625 5.25C17.0312 5.25 16.5625 4.78125 16.5625 4.25C16.5625 3.6875 17.0312 3.25 17.5625 3.25C18.125 3.25 18.5625 3.6875 18.5625 4.25C18.5625 4.78125 18.125 5.25 17.5625 5.25ZM20.9375 13.2188C20.9062 13.0312 20.75 12.9062 20.5625 12.9062H20.0625C19.9688 12.5938 19.7812 12.3125 19.5938 12.0625L19.8438 11.625C19.9062 11.4688 19.875 11.2812 19.75 11.1562C19.4688 10.9062 19.125 10.7188 18.75 10.5938C18.5938 10.5312 18.4062 10.5938 18.3125 10.75L18.0625 11.1875C17.75 11.125 17.4062 11.125 17.0938 11.1875L16.8438 10.75C16.75 10.5938 16.5625 10.5312 16.375 10.5938C16.0312 10.7188 15.6875 10.9062 15.4062 11.1562C15.25 11.2812 15.2188 11.4688 15.3125 11.625L15.5625 12.0625C15.3438 12.3125 15.1875 12.5938 15.0938 12.9062H14.5625C14.4062 12.9062 14.2188 13.0312 14.2188 13.2188C14.1562 13.5938 14.1562 14 14.2188 14.3438C14.25 14.5312 14.4062 14.6562 14.5625 14.6562H15.0938C15.1875 14.9688 15.3438 15.25 15.5625 15.5L15.3125 15.9375C15.2188 16.0938 15.25 16.3125 15.4062 16.4062C15.6875 16.6562 16.0312 16.8438 16.375 17C16.5625 17.0625 16.75 17 16.8438 16.8125L17.0938 16.375C17.4062 16.4375 17.75 16.4375 18.0625 16.375L18.3125 16.8125C18.4062 16.9688 18.5938 17.0625 18.75 17C19.125 16.8438 19.4688 16.6562 19.75 16.4062C19.875 16.3125 19.9375 16.0938 19.8438 15.9375L19.5938 15.5C19.7812 15.25 19.9688 14.9688 20.0625 14.6562H20.5625C20.75 14.6562 20.9062 14.5312 20.9375 14.3438C21 13.9688 21 13.5938 20.9375 13.2188ZM17.5625 14.7812C17.0312 14.7812 16.5625 14.3438 16.5625 13.7812C16.5625 13.25 17.0312 12.7812 17.5625 12.7812C18.125 12.7812 18.5625 13.25 18.5625 13.7812C18.5625 14.3438 18.125 14.7812 17.5625 14.7812Z" />
</svg>
