<svg width="18" height="14" viewBox="0 0 18 14" fill="none" xmlns="http://www.w3.org/2000/svg">
<path d="M17.8125 6.75C17.9062 6.84375 18 7 18 7.125C18 7.21875 17.9375 7.375 17.875 7.4375L17.5625 7.84375C17.4688 7.9375 17.2812 8.03125 17.1562 8.03125C17.0625 8.03125 16.9062 7.96875 16.8438 7.90625L16 7.1875V13.0312C15.9688 13.5625 15.5312 14 15 14H11C10.4375 14 10 13.5625 10 13V9.75H8V13C7.96875 13.5625 7.53125 14 7 14H3C2.4375 14 2 13.5625 2 13V7.1875L1.125 7.90625C1.0625 7.96875 0.90625 8 0.8125 8C0.6875 8 0.5 7.9375 0.4375 7.84375L0.09375 7.4375C0.03125 7.375 0 7.21875 0 7.125C0 7 0.0625 6.84375 0.15625 6.75L7.875 0.40625C8.125 0.1875 8.625 0.03125 9 0.03125C9.34375 0.03125 9.84375 0.1875 10.0938 0.40625L14.5 4.03125V2.25C14.5 2.125 14.5938 2.03125 14.75 2H15.75C15.875 2 16 2.125 16 2.25V5.25L17.8125 6.75ZM14.4688 12.5L14.5 5.96875L9 1.4375L3.5 5.96875V12.5H6.5V9.25C6.5 8.71875 6.9375 8.28125 7.5 8.25H10.5C11.0312 8.28125 11.4688 8.71875 11.5 9.25V12.5H14.4688Z" />
</svg>
