<svg width="38" height="32" viewBox="0 0 38 32" fill="none" xmlns="http://www.w3.org/2000/svg">
<g clip-path="url(#clip0_12230_36767)">
<path d="M21.962 25.7058H28.777V20.4314H21.962V25.7058Z" stroke="#181818" stroke-width="0.94"/>
<path d="M32.6944 14.1648C32.4348 14.1648 32.2244 14.3753 32.2244 14.6348V31.0326H17.6544V20.8492C17.6544 20.5897 17.444 20.3792 17.1844 20.3792H11.1527C10.8932 20.3792 10.6827 20.5897 10.6827 20.8492V31.0326H5.59105V14.6348C5.59105 14.3753 5.38063 14.1648 5.12105 14.1648H1.11031C0.655516 14.1648 0.465875 13.5833 0.833239 13.3152L18.0765 0.731089C18.5718 0.369687 19.2437 0.369687 19.739 0.731089L36.9822 13.3152C37.3496 13.5833 37.1599 14.1648 36.7051 14.1648H32.6944Z" stroke="#181818" stroke-width="0.94" stroke-linejoin="round"/>
</g>
<defs>
<clipPath id="clip0_12230_36767">
<rect width="38" height="32" />
</clipPath>
</defs>
</svg>
