<svg  viewBox="0 0 22 24" fill="none" xmlns="http://www.w3.org/2000/svg">
<path d="M15.1719 14.25C13.8125 14.25 13.2031 15 11 15C8.75 15 8.14062 14.25 6.78125 14.25C3.3125 14.25 0.5 17.1094 0.5 20.5781V21.75C0.5 23.0156 1.48438 24 2.75 24H19.25C20.4688 24 21.5 23.0156 21.5 21.75V20.5781C21.5 17.1094 18.6406 14.25 15.1719 14.25ZM19.25 21.75H2.75V20.5781C2.75 18.3281 4.53125 16.5 6.78125 16.5C7.48438 16.5 8.5625 17.25 11 17.25C13.3906 17.25 14.4688 16.5 15.1719 16.5C17.4219 16.5 19.25 18.3281 19.25 20.5781V21.75ZM11 13.5C14.7031 13.5 17.75 10.5 17.75 6.75C17.75 3.04688 14.7031 0 11 0C7.25 0 4.25 3.04688 4.25 6.75C4.25 10.5 7.25 13.5 11 13.5ZM11 2.25C13.4375 2.25 15.5 4.3125 15.5 6.75C15.5 9.23438 13.4375 11.25 11 11.25C8.51562 11.25 6.5 9.23438 6.5 6.75C6.5 4.3125 8.51562 2.25 11 2.25Z" />
</svg>
