<svg width="16" height="14" viewBox="0 0 16 14" fill="none" xmlns="http://www.w3.org/2000/svg">
<path d="M2.5 0.5C2.75 0.5 3 0.75 3 1V3C3 3.28125 2.75 3.5 2.5 3.5H0.5C0.21875 3.5 0 3.28125 0 3V1C0 0.75 0.21875 0.5 0.5 0.5H2.5ZM2.5 5.5C2.75 5.5 3 5.75 3 6V8C3 8.28125 2.75 8.5 2.5 8.5H0.5C0.21875 8.5 0 8.28125 0 8V6C0 5.75 0.21875 5.5 0.5 5.5H2.5ZM2.5 10.5C2.75 10.5 3 10.75 3 11V13C3 13.2812 2.75 13.5 2.5 13.5H0.5C0.21875 13.5 0 13.2812 0 13V11C0 10.75 0.21875 10.5 0.5 10.5H2.5ZM15.5 6.25C15.75 6.25 16 6.5 16 6.75V7.25C16 7.53125 15.75 7.75 15.5 7.75H5.5C5.21875 7.75 5 7.53125 5 7.25V6.75C5 6.5 5.21875 6.25 5.5 6.25H15.5ZM15.5 11.25C15.75 11.25 16 11.5 16 11.75V12.25C16 12.5312 15.75 12.75 15.5 12.75H5.5C5.21875 12.75 5 12.5312 5 12.25V11.75C5 11.5 5.21875 11.25 5.5 11.25H15.5ZM15.5 1.25C15.75 1.25 16 1.5 16 1.75V2.25C16 2.53125 15.75 2.75 15.5 2.75H5.5C5.21875 2.75 5 2.53125 5 2.25V1.75C5 1.5 5.21875 1.25 5.5 1.25H15.5Z" />
</svg>
