<svg width="12" height="15" viewBox="0 0 12 15" fill="none" xmlns="http://www.w3.org/2000/svg">
<path d="M6 14.9287C5.0527 14.0758 4.17464 13.1408 3.375 12.1333C2.175 10.6205 0.750001 8.36739 0.750001 6.22039C0.748937 3.97803 2.02819 1.95599 3.9908 1.09783C5.95342 0.239665 8.21255 0.714536 9.714 2.30085C10.7013 3.33841 11.2544 4.74978 11.25 6.22039C11.25 8.36739 9.825 10.6205 8.625 12.1333C7.82536 13.1408 6.9473 14.0758 6 14.9287ZM6 2.26205C3.92996 2.26467 2.25248 4.03534 2.25 6.22039C2.25 7.14347 2.64525 8.74185 4.52625 11.1176C4.98985 11.7019 5.48176 12.2605 6 12.7912C6.51828 12.2612 7.01043 11.7034 7.4745 11.12C9.35475 8.74105 9.75 7.14268 9.75 6.22039C9.74752 4.03534 8.07004 2.26467 6 2.26205ZM6 8.59539C4.75736 8.59539 3.75 7.53206 3.75 6.22039C3.75 4.90871 4.75736 3.84539 6 3.84539C7.24264 3.84539 8.25 4.90871 8.25 6.22039C8.25 6.85028 8.01295 7.45437 7.59099 7.89977C7.16904 8.34517 6.59674 8.59539 6 8.59539Z"/>
</svg>
