<svg width="24" height="24" viewBox="0 0 24 24" fill="none" xmlns="http://www.w3.org/2000/svg">
<path d="M19.5729 17.7827L16.8802 14.3472C16.8098 14.2869 16.7395 14.2267 16.662 14.2164L16.3263 14.1715C17.2556 13.3806 17.9436 12.2524 18.1295 10.9554C18.5369 8.11207 16.445 5.44315 13.5007 5.04973C10.5305 4.65285 7.79265 6.67642 7.38525 9.51977C6.97428 12.3881 9.04389 15.0286 12.014 15.4255C13.3571 15.6049 14.6389 15.2932 15.7053 14.6477L15.6588 14.972C15.6481 15.0468 15.6632 15.1251 15.7041 15.2068L18.3968 18.6423C18.5081 18.7843 18.7147 18.8119 18.8359 18.701L19.5121 18.2067C19.6556 18.1242 19.6842 17.9247 19.5729 17.7827ZM12.1856 14.2283C9.88694 13.9211 8.30692 11.9052 8.62497 9.68543C8.93945 7.49056 11.0305 5.93978 13.3291 6.24693C15.602 6.55062 17.2042 8.5949 16.8898 10.7898C16.5717 13.0096 14.4584 14.532 12.1856 14.2283Z" fill="white"/>
<path d="M7.4188 13.8304V14.5288C7.4188 14.638 7.37874 14.7034 7.31197 14.7034L4.10684 14.7034C4.05342 14.7034 4 14.638 4 14.5288V13.8304C4 13.7431 4.05342 13.6558 4.10684 13.6558L7.31197 13.6558C7.37874 13.6558 7.4188 13.7431 7.4188 13.8304Z" />
<path d="M5.84615 10.3382V11.0366C5.84615 11.1458 5.80609 11.2112 5.73932 11.2112L4.10684 11.2112C4.05342 11.2112 4 11.1458 4 11.0366V10.3382C4 10.2509 4.05342 10.1636 4.10684 10.1636H5.73932C5.80609 10.1636 5.84615 10.2509 5.84615 10.3382Z" />
<path d="M10.1538 17.3226V18.021C10.1538 18.1301 10.1138 18.1956 10.047 18.1956H4.10684C4.05342 18.1956 4 18.1301 4 18.021V17.3226C4 17.2353 4.05342 17.148 4.10684 17.148H10.047C10.1138 17.148 10.1538 17.2353 10.1538 17.3226Z" />
</svg>
