<svg width="13" height="17" viewBox="0 0 13 17" fill="none" xmlns="http://www.w3.org/2000/svg">
<path d="M3.9375 9.90625C4.15625 10.25 4.4375 10.5625 4.8125 10.7812L5.125 10.9688L4.6875 11.9688C4.40625 12.5938 3.78125 13 3.0625 13H0.75C0.3125 13 0 12.6875 0 12.25C0 11.8438 0.3125 11.5 0.75 11.5H3.0625C3.1875 11.5 3.28125 11.4688 3.3125 11.375L3.9375 9.90625ZM8.5 3C7.65625 3 7 2.34375 7 1.5C7 0.6875 7.65625 0 8.5 0C9.3125 0 10 0.6875 10 1.5C10 2.34375 9.3125 3 8.5 3ZM12.25 7.53125C12.6562 7.53125 13 7.875 13 8.28125C12.9688 8.6875 12.6562 9.03125 12.2188 9.03125H10.7188C9.9375 9.03125 9.28125 8.53125 9.0625 7.78125L8.625 6.34375C8.5625 6.21875 8.5 6.09375 8.40625 5.96875L7.09375 9.25L8.71875 10.2188C9.40625 10.625 9.71875 11.4375 9.5 12.2188L8.46875 15.4688C8.375 15.8125 8.0625 16.0312 7.75 16.0312C7.65625 16.0312 7.59375 16 7.53125 16C7.125 15.875 6.90625 15.4688 7.03125 15.0625L8.0625 11.7812C8.0625 11.7812 8.0625 11.75 8.0625 11.7188C8.0625 11.6562 8 11.5625 7.9375 11.5L5.34375 9.9375C4.59375 9.46875 4.28125 8.59375 4.625 7.78125L5.71875 5.0625L5.25 4.9375C4.875 4.875 4.5 4.9375 4.21875 5.1875L2.6875 6.34375C2.375 6.59375 1.90625 6.53125 1.65625 6.21875C1.375 5.875 1.4375 5.40625 1.78125 5.15625L3.28125 4C3.9375 3.46875 4.78125 3.3125 5.59375 3.46875L8.03125 4.03125C9 4.25 9.75 4.96875 10.0625 5.90625L10.5 7.34375C10.5312 7.46875 10.625 7.53125 10.7188 7.53125H12.25Z"/>
</svg>
