<svg width="43" height="34" viewBox="0 0 43 34" fill="none" xmlns="http://www.w3.org/2000/svg">
<g clip-path="url(#clip0_9152_72715)">
<path d="M31.2926 27.129C31.2926 27.129 35.3509 26.4459 36.1134 25.8578C36.876 25.2698 37.9716 23.8083 37.2178 22.7707C36.464 21.733 35.5262 20.3926 34.7548 20.2196C33.8991 19.9369 32.971 19.9521 32.1253 20.2628C31.3627 20.7125 31.4942 20.946 31.4942 20.946" stroke="#181818" stroke-width="0.94" stroke-linecap="round" stroke-linejoin="round"/>
<path d="M36.1148 25.858C36.8368 25.5256 37.6463 25.4258 38.4288 25.5726C39.1357 25.681 39.7857 26.0187 40.2762 26.5324C40.7667 27.0461 41.0697 27.7064 41.1373 28.409C41.266 28.8283 41.2734 29.2746 41.1588 29.6979C41.0442 30.1211 40.8121 30.5043 40.4887 30.8043C39.9627 31.2367 31.7235 32.776 31.8024 31.5394L31.1714 27.8296" stroke="#181818" stroke-width="0.94" stroke-linecap="round" stroke-linejoin="round"/>
<path d="M13.3438 25.7453C13.3438 25.7453 11.9151 27.6046 6.97162 28.6683C6.7525 28.7288 6.6999 28.7807 6.63855 28.9277C6.57719 29.0746 3.68472 32.7758 7.19074 32.7758C9.42584 32.7758 28.56 32.8623 28.56 32.8623C28.6642 32.8521 28.7646 32.8179 28.853 32.7623C28.9413 32.7067 29.0151 32.6313 29.0683 32.5423C29.2893 31.6399 29.4503 30.7242 29.5504 29.8011" stroke="#181818" stroke-width="0.94" stroke-linecap="round" stroke-linejoin="round"/>
<path d="M13.1066 4.11819C11.2771 2.99491 9.28088 2.16045 7.19025 1.645C6.06571 1.44127 4.90448 1.60842 3.88582 2.12061C1.93121 3.3745 1.66826 4.87052 1.7822 6.97187C1.77764 7.49116 1.87755 8.0062 2.07616 8.48713C2.27476 8.96807 2.5681 9.40535 2.93919 9.77366C6.3488 13.7515 11.266 13.2327 13.3609 12.8868C16.9633 12.2468 16.0868 8.36411 15.482 6.9978C15.2989 6.38665 14.9946 5.81743 14.5869 5.32313C14.1791 4.82883 13.676 4.41927 13.1066 4.11819Z" stroke="#181818" stroke-width="0.94" stroke-linecap="round" stroke-linejoin="round"/>
<path d="M3.68378 11.1579C3.68378 19.8053 12.4927 25.2014 13.3253 25.7462C15.6066 27.1951 18.1152 28.2617 20.7494 28.9026C23.6798 29.6189 26.7004 29.9102 29.716 29.7673C30.0403 29.7673 30.7328 29.6376 30.8467 29.309C31.1569 27.9856 31.3911 26.646 31.5479 25.2965C31.5479 24.6999 31.6269 22.979 31.5479 21.6473C31.469 20.3156 31.0221 16.5712 30.8906 16.3551C30.1017 15.0492 18.6194 11.1665 13.3604 12.896" stroke="#181818" stroke-width="0.94" stroke-linecap="round" stroke-linejoin="round"/>
<path d="M28.9098 23.4891C28.9098 23.4891 18.5845 23.2642 9.81946 18.0757" stroke="#181818" stroke-width="0.94" stroke-linecap="round" stroke-linejoin="round"/>
</g>
<defs>
<clipPath id="clip0_9152_72715">
<rect width="41.36" height="32.9" transform="translate(0.820007 0.519997)"/>
</clipPath>
</defs>
</svg>
