<svg width="41" height="22" viewBox="0 0 41 22" fill="none" xmlns="http://www.w3.org/2000/svg">
<g clip-path="url(#clip0_12230_36768)">
<path d="M39.4404 4.01196H1.56008C1.11835 4.01196 0.760254 4.65025 0.760254 5.43761C0.760254 6.22499 1.11835 6.86327 1.56008 6.86327H39.4404C39.8821 6.86327 40.2403 6.22499 40.2403 5.43761C40.2403 4.65025 39.8821 4.01196 39.4404 4.01196Z" stroke="#181818" stroke-width="0.94" stroke-miterlimit="10"/>
<path d="M14.4713 1.16H1.55152C1.11438 1.16 0.76001 1.79829 0.76001 2.58566C0.76001 3.37303 1.11438 4.01131 1.55152 4.01131H14.4713C14.9085 4.01131 15.2629 3.37303 15.2629 2.58566C15.2629 1.79829 14.9085 1.16 14.4713 1.16Z" stroke="#181818" stroke-width="0.94" stroke-miterlimit="10"/>
<path d="M6.48102 6.60065V19.3373" stroke="#181818" stroke-width="0.94" stroke-miterlimit="10"/>
<path d="M7.20624 6.86227V14.4235L36.2119 14.4657V6.86227" stroke="#181818" stroke-width="0.94" stroke-miterlimit="10"/>
<path d="M36.6124 6.60065V19.241" stroke="#181818" stroke-width="0.94" stroke-miterlimit="10"/>
<path d="M7.20624 19.2189V14.4667H36.2119V19.2189" stroke="#181818" stroke-width="0.94" stroke-miterlimit="10"/>
<path d="M6.93375 20.9002C7.40788 20.9002 7.79224 20.4468 7.79224 19.8875C7.79224 19.3283 7.40788 18.8748 6.93375 18.8748C6.45961 18.8748 6.07526 19.3283 6.07526 19.8875C6.07526 20.4468 6.45961 20.9002 6.93375 20.9002Z" stroke="#181818" stroke-width="0.94" stroke-miterlimit="10"/>
<path d="M36.1215 20.9002C36.5956 20.9002 36.98 20.4468 36.98 19.8875C36.98 19.3283 36.5956 18.8748 36.1215 18.8748C35.6474 18.8748 35.263 19.3283 35.263 19.8875C35.263 20.4468 35.6474 20.9002 36.1215 20.9002Z" stroke="#181818" stroke-width="0.94" stroke-miterlimit="10"/>
</g>
<defs>
<clipPath id="clip0_12230_36768">
<rect width="41" height="22" />
</clipPath>
</defs>
</svg>
