<svg viewBox="0 0 24 24" fill="none" xmlns="http://www.w3.org/2000/svg">
<path d="M21 0H3C1.3125 0 0 1.35938 0 3V16.5C0 18.1875 1.3125 19.5 3 19.5H7.5V23.4375C7.5 23.8125 7.73438 24 8.0625 24C8.15625 24 8.25 24 8.39062 23.9062L14.25 19.5H21C22.6406 19.5 24 18.1875 24 16.5V3C24 1.35938 22.6406 0 21 0ZM21.75 16.5C21.75 16.9219 21.375 17.25 21 17.25H13.5L12.8906 17.7188L9.75 20.0625V17.25H3C2.57812 17.25 2.25 16.9219 2.25 16.5V3C2.25 2.625 2.57812 2.25 3 2.25H21C21.375 2.25 21.75 2.625 21.75 3V16.5ZM6 8.25C5.15625 8.25 4.5 8.95312 4.5 9.75C4.5 10.5938 5.15625 11.25 6 11.25C6.79688 11.25 7.5 10.5938 7.5 9.75C7.5 8.95312 6.79688 8.25 6 8.25ZM12 8.25C11.1562 8.25 10.5 8.95312 10.5 9.75C10.5 10.5938 11.1562 11.25 12 11.25C12.7969 11.25 13.5 10.5938 13.5 9.75C13.5 8.95312 12.7969 8.25 12 8.25ZM18 8.25C17.1562 8.25 16.5 8.95312 16.5 9.75C16.5 10.5938 17.1562 11.25 18 11.25C18.7969 11.25 19.5 10.5938 19.5 9.75C19.5 8.95312 18.7969 8.25 18 8.25Z" />
</svg>
