<svg width="14" height="14" viewBox="0 0 14 14" fill="none" xmlns="http://www.w3.org/2000/svg">
<path d="M3.375 7.875C3.15625 7.875 3 7.71875 3 7.5V6.5C3 6.3125 3.15625 6.125 3.375 6.125L10.625 6.125C10.8125 6.125 11 6.3125 11 6.5V7.5C11 7.71875 10.8125 7.875 10.625 7.875L3.375 7.875ZM14 1.5L14 12.5C14 13.3438 13.3125 14 12.5 14L1.5 14C0.65625 14 0 13.3438 0 12.5L0 1.5C0 0.6875 0.65625 0 1.5 0L12.5 0C13.3125 0 14 0.6875 14 1.5ZM12.5 12.3125L12.5 1.6875C12.5 1.59375 12.4062 1.5 12.3125 1.5L1.6875 1.5C1.5625 1.5 1.5 1.59375 1.5 1.6875L1.5 12.3125C1.5 12.4375 1.5625 12.5 1.6875 12.5L12.3125 12.5C12.4062 12.5 12.5 12.4375 12.5 12.3125Z"/>
</svg>
