<svg width="16" height="14" viewBox="0 0 16 14" fill="none" xmlns="http://www.w3.org/2000/svg">
<path d="M11.5625 5.03125L14.8438 10.7812C14.9375 10.9062 15 11.125 15 11.2812V13C15 13.5625 14.5312 14 14 14H2C1.4375 14 1 13.5625 1 13V11.2812C1 11.125 1.03125 10.9062 1.125 10.7812L4.40625 5.03125C4.71875 4.46875 5.5 4 6.15625 4H9.8125C10.4688 4 11.25 4.46875 11.5625 5.03125ZM13.5 12.5V11.4062L10.25 5.78125C10.1875 5.625 9.96875 5.5 9.8125 5.5H6.15625C6 5.5 5.78125 5.625 5.71875 5.78125L2.5 11.4062V12.5H13.5ZM8 7C9.09375 7 10 7.90625 10 9C10 10.125 9.09375 11 8 11C6.875 11 6 10.125 6 9C6 7.90625 6.875 7 8 7ZM15.8125 2.84375C15.9062 2.9375 16 3.125 16 3.25V5C16 5.28125 15.75 5.5 15.5 5.5H13.2812C13.125 5.5 12.9375 5.40625 12.8438 5.25L12 3C10.75 2.46875 9.375 2.25 8 2.25C6.59375 2.25 5.21875 2.46875 4 3L3.125 5.25C3.03125 5.40625 2.84375 5.5 2.6875 5.5H0.5C0.21875 5.5 0 5.28125 0 5V3.25C0 3.125 0.0625 2.9375 0.15625 2.84375C2.34375 1.03125 5.125 0 8 0C10.8438 0 13.625 1.03125 15.8125 2.84375Z" />
</svg>
