<svg width="63" height="20" viewBox="0 0 63 20" fill="none" xmlns="http://www.w3.org/2000/svg">
<path d="M25.1019 0.966797L21.9636 19.321H26.9828L30.1237 0.966797H25.1019Z" fill="white"/>
<path d="M17.7573 0.987258L12.8414 13.5043L12.3173 11.6143C11.3478 9.33711 8.5955 6.06664 5.36426 4.00556L9.85933 19.3119L15.1703 19.3029L23.0747 0.983398L17.7573 0.987258Z" fill="white"/>
<path d="M10.4102 2.29973C10.1184 1.1817 9.27286 0.848477 8.22332 0.808594H0.4415L0.376953 1.17398C6.43278 2.6381 10.4399 6.16588 12.1026 10.4077L10.4102 2.29973Z" fill="white"/>
<path d="M40.2969 4.48535C41.939 4.45962 43.1293 4.81729 44.0536 5.18782L44.5067 5.4001L45.1857 1.42202C44.1917 1.0502 42.6335 0.651367 40.6894 0.651367C35.7296 0.651367 32.2337 3.14088 32.2066 6.70854C32.1743 9.34473 34.6968 10.8166 36.6022 11.6953C38.558 12.5959 39.2138 13.1684 39.2048 13.9725C39.1893 15.2012 37.6453 15.7647 36.2033 15.7647C34.1933 15.7647 33.1257 15.4881 31.4772 14.8037L30.8304 14.5103L30.1243 18.6183C31.299 19.1317 33.4665 19.573 35.7166 19.5961C40.9927 19.5961 44.4215 17.1362 44.4576 13.3241C44.4796 11.2386 43.1409 9.64708 40.2401 8.34121C38.4844 7.4895 37.4104 6.9234 37.4207 6.06397C37.4207 5.30104 38.3321 4.48535 40.2969 4.48535Z" fill="white"/>
<path d="M58.0667 0.988281H54.1887C52.9843 0.988281 52.0884 1.31507 51.5591 2.51158L44.1064 19.3322H49.3774C49.3774 19.3322 50.2371 17.0704 50.4321 16.5751C51.0091 16.5751 56.1303 16.5828 56.8597 16.5828C57.0094 17.2235 57.4716 19.3322 57.4716 19.3322H62.128L58.0667 0.988281ZM51.8767 12.8183C52.2898 11.7646 53.8763 7.68875 53.8763 7.68875C53.8492 7.73893 54.2856 6.62733 54.545 5.93644L54.8833 7.51892C54.8833 7.51892 55.845 11.901 56.0464 12.8183H51.8767Z" fill="white"/>
</svg>
