<svg width="38" height="23" viewBox="0 0 38 23" fill="none" xmlns="http://www.w3.org/2000/svg">
<path d="M26.6905 0.653321C23.7985 0.654091 21.1624 1.74657 19.1757 3.54091C17.1874 1.74888 14.5528 0.655632 11.6639 0.655632C11.6399 0.655632 11.6152 0.655632 11.592 0.655632C5.44005 0.695695 0.458496 5.68349 0.458496 11.8231C0.458496 17.9873 5.47871 22.9897 11.6631 22.9897C14.552 22.9897 17.1866 21.898 19.1741 20.1045C18.759 19.7308 18.3833 19.3171 18.0285 18.8841H20.3422C19.9936 19.3102 19.6132 19.7092 19.2043 20.0806H19.2027C19.1934 20.0906 19.1834 20.0968 19.1741 20.1052C21.1632 21.9004 23.8008 22.9944 26.6944 22.9936C32.8827 22.9913 37.8975 17.9896 37.8959 11.8231C37.8959 11.8208 37.8959 11.8192 37.8959 11.8177C37.8967 5.65113 32.8788 0.65178 26.6905 0.653321ZM18.1568 4.69425H20.2865C20.6004 5.0733 20.8918 5.47239 21.1562 5.88996H17.3567C17.6017 5.49088 17.8708 5.08024 18.1568 4.69425ZM16.6949 7.06256H21.8025C21.9842 7.44932 22.145 7.84917 22.2857 8.25904H16.0896C16.1515 8.14348 16.3679 7.67814 16.6949 7.06256ZM5.03265 14.6675L5.71217 10.3978L4.1792 14.6675H3.35745L3.25077 10.3978L2.52487 14.6675H1.37379L2.32774 9.00483H4.06866L4.12973 12.4795L5.30554 9.00483H7.19411L6.25331 14.6675H5.03265ZM9.10278 14.6583L9.14221 14.206C9.12365 14.2083 8.76032 14.7523 7.91846 14.7523C7.47782 14.7523 6.76661 14.5127 6.76661 13.471C6.76661 12.1467 7.85043 11.7075 8.88246 11.7075C9.0448 11.7075 9.395 11.7368 9.395 11.7368C9.395 11.7368 9.43442 11.6559 9.43442 11.4371C9.43442 11.0773 9.10974 11.028 8.66523 11.028C7.88213 11.028 7.36496 11.2368 7.36496 11.2368L7.53812 10.2121C7.53812 10.2121 8.16584 9.95015 8.98296 9.95015C9.40582 9.95015 10.6218 9.99483 10.6218 11.3839L10.1534 14.6583H9.10278ZM13.5424 13.216C13.5424 14.7962 12.0064 14.7284 11.7381 14.7284C10.737 14.7284 10.4278 14.5905 10.3992 14.5828L10.5584 13.5427C10.56 13.5334 11.0609 13.7237 11.6183 13.7237C11.9399 13.7237 12.3573 13.6921 12.3573 13.3092C12.3573 12.736 10.8638 12.8732 10.8638 11.5118C10.8638 10.3107 11.759 9.95939 12.6418 9.95939C13.3237 9.95939 13.7426 10.0526 13.7426 10.0526L13.5919 11.1019C13.5919 11.1019 12.9449 11.0488 12.7771 11.0488C12.3527 11.0488 12.1216 11.1412 12.1216 11.4371C12.1208 12.0319 13.5424 11.7406 13.5424 13.216ZM15.3869 13.6305C15.4928 13.6305 15.6127 13.5943 15.6946 13.5943L15.5454 14.6043C15.4256 14.6375 15.0862 14.7577 14.651 14.7607C14.0952 14.7654 13.7001 14.4556 13.7001 13.753C13.7001 13.2815 14.3781 9.39621 14.4044 9.37078H15.5972L15.4758 10.0657H16.0711L15.9188 11.1852H15.2872L14.9517 13.2476C14.9262 13.4117 14.9718 13.6305 15.3869 13.6305ZM18.0107 9.93474C19.3202 9.93474 19.7122 10.8901 19.7122 11.6736C19.7122 11.9872 19.5545 12.7576 19.5545 12.7576H17.1302C17.1302 12.7576 16.906 13.7091 18.1869 13.7091C18.7876 13.7091 19.454 13.4163 19.454 13.4163L19.2437 14.562C19.2437 14.562 18.8587 14.7577 17.9836 14.7577C17.0351 14.7577 15.9227 14.3578 15.9227 12.6783C15.9234 11.2229 16.8109 9.93474 18.0107 9.93474ZM21.1701 17.7338H17.1951C16.9531 17.3486 16.7274 16.9534 16.5334 16.5381H21.8234C21.6286 16.9511 21.4106 17.3502 21.1701 17.7338ZM20.9034 14.676H19.6789L20.4234 10.0673H21.5343L21.4276 10.7352C21.4276 10.7352 21.8234 10.0087 22.3576 10.0087C22.5129 10.0087 22.5879 10.0241 22.5879 10.0241C22.4295 10.3462 22.2895 10.6412 22.1442 11.4032C21.3155 11.1104 21.2521 12.7075 20.9034 14.676ZM25.5688 14.6043C25.5688 14.6043 24.9272 14.7677 24.5252 14.7677C23.1012 14.7677 22.3784 13.7885 22.3784 12.3054C22.3784 10.0688 23.7181 8.8777 25.0949 8.8777C25.7172 8.8777 26.4385 9.16893 26.4385 9.16893L26.2437 10.4286C26.2437 10.4286 25.7559 10.0888 25.1491 10.0888C24.3373 10.0888 23.6091 10.8608 23.6091 12.2638C23.6091 12.9548 23.9485 13.5989 24.7958 13.5989C25.1985 13.5989 25.7822 13.3069 25.7822 13.3069L25.5688 14.6043ZM28.4407 14.6606L28.4809 14.2053C28.4616 14.2076 28.0983 14.7515 27.2572 14.7515C26.8165 14.7515 26.1053 14.5119 26.1053 13.4703C26.1053 12.1459 27.1891 11.7067 28.2204 11.7067C28.3827 11.7067 28.7337 11.736 28.7337 11.736C28.7337 11.736 28.7739 11.6559 28.7739 11.4371C28.7739 11.0773 28.4492 11.028 28.0039 11.028C27.2208 11.028 26.7044 11.2368 26.7044 11.2368L26.8776 10.2121C26.8776 10.2121 27.5053 9.95015 28.3232 9.95015C28.7453 9.95015 29.9621 9.99483 29.9613 11.3839L29.4928 14.6583C29.4921 14.6606 28.4407 14.6606 28.4407 14.6606ZM30.9199 14.676H29.6954L30.4398 10.0673H31.5515L31.4448 10.7352C31.4448 10.7352 31.8414 10.0087 32.3756 10.0087C32.5309 10.0087 32.6052 10.0241 32.6052 10.0241C32.4475 10.3462 32.306 10.6412 32.1614 11.4032C31.3319 11.1104 31.2685 12.7075 30.9199 14.676ZM34.5757 14.6637L34.6275 14.2392C34.6275 14.2392 34.2317 14.7369 33.5158 14.7369C32.524 14.7369 32.0377 13.7823 32.0377 12.8069C32.0377 11.2984 32.9484 9.98328 34.0415 9.98328C34.745 9.98482 35.1941 10.6035 35.1941 10.6035L35.4523 9.01253L36.6482 9.01022L35.736 14.6637H34.5757ZM36.935 14.5042C36.9033 14.5612 36.8585 14.6051 36.8013 14.639C36.7449 14.6706 36.6846 14.6868 36.6212 14.6868C36.5593 14.6868 36.4998 14.6706 36.4426 14.639C36.3854 14.6051 36.3405 14.5612 36.3089 14.5042C36.2764 14.4464 36.2609 14.3878 36.2609 14.3254C36.2609 14.2623 36.2772 14.2022 36.3089 14.1452C36.3405 14.0882 36.3877 14.0419 36.4441 14.0111C36.5029 13.9795 36.5609 13.9633 36.6212 13.9633C36.683 13.9633 36.7418 13.9795 36.799 14.0111C36.8577 14.0427 36.9026 14.0866 36.935 14.1452C36.9683 14.2029 36.983 14.263 36.983 14.3254C36.983 14.3878 36.9675 14.4472 36.935 14.5042Z" fill="white"/>
</svg>
