<svg width="70" height="19" viewBox="0 0 70 19" fill="none" xmlns="http://www.w3.org/2000/svg">
<g clip-path="url(#clip0_1154_3845)">
<path fill-rule="evenodd" clip-rule="evenodd" d="M0.147705 0.874375H6.55127C7.05706 0.872431 7.55563 0.98487 8.00309 1.20177C8.45054 1.41867 8.83317 1.73339 9.11732 2.11825C9.56349 2.81374 9.88363 3.57137 10.0652 4.36145C10.8396 6.7535 11.6025 9.15618 12.3769 11.5482C12.3769 11.7715 12.7352 11.8459 12.8046 11.6226C13.6021 9.19869 14.365 6.77476 15.1163 4.36145C15.3132 3.47495 15.7067 2.6353 16.2722 1.89497C16.6845 1.4446 17.2373 1.1217 17.8558 0.970053C18.3846 0.874378 18.9247 0.842219 19.4625 0.874375C21.335 0.874375 23.2191 0.874375 25.0916 0.874375C25.0916 6.8917 25.0916 12.909 25.0916 18.9476C23.0572 18.9476 21.0344 18.9476 19.0116 18.9476C19.0116 15.418 19.0116 11.899 19.0116 8.36945C19.0116 8.05051 18.4337 8.0824 18.399 8.36945C17.1892 11.9132 15.9833 15.4393 14.7811 18.9476C13.3479 18.9476 11.9146 18.9476 10.4813 18.9476C9.32539 15.4287 8.08859 11.8991 6.86336 8.38009C6.86336 8.08241 6.43569 8.08242 6.23919 8.25252V18.9476C4.21641 18.9476 2.19362 18.9476 0.170828 18.9476V0.874375H0.147705ZM27.8888 0.874375C29.9232 0.874375 31.9459 0.874375 33.9687 0.874375C33.9687 4.4465 33.9687 8.01861 33.9687 11.5907C34.1421 11.7289 34.4658 11.7715 34.5698 11.5907C35.9106 8.99669 37.2553 6.39557 38.6038 3.78735C38.9557 2.94452 39.4512 2.15859 40.0718 1.45909C40.3671 1.1518 40.7827 0.96453 41.2276 0.938161C43.2851 0.938161 45.3541 0.938161 47.4116 0.938161C47.4116 6.95549 47.4116 12.9799 47.4116 19.0114H41.3432C41.3432 15.4676 41.3432 11.9062 41.3432 8.32694C41.3432 8.01863 40.7769 8.0399 40.7191 8.32694C39.4476 10.8997 38.1877 13.4831 36.9162 16.0559C36.5665 16.8594 36.1165 17.6229 35.5754 18.331C35.4261 18.5378 35.2258 18.7091 34.9908 18.8311C34.7557 18.953 34.4926 19.0221 34.223 19.0327H27.9004C27.9004 13.0224 27.9004 6.998 27.9004 0.959412L27.8888 0.874375ZM50.3822 9.11365C56.7511 9.11365 63.0969 9.11365 69.4773 9.11365C69.2139 9.91724 68.7372 10.6479 68.0903 11.2399C67.4998 11.8316 66.7865 12.3086 65.9924 12.6427C65.1984 12.9768 64.3396 13.1614 63.4668 13.1854H56.5315C56.5315 15.1097 56.5315 17.034 56.5315 18.9583H50.3591C50.3475 15.6094 50.3707 12.3456 50.3476 9.07112L50.3822 9.11365Z" fill="white"/>
<path fill-rule="evenodd" clip-rule="evenodd" d="M49.585 0.874023H63.8832C65.1475 0.963717 66.3543 1.39664 67.3508 2.1179C68.067 2.6311 68.6627 3.27255 69.1018 4.00346C69.5408 4.73438 69.8142 5.53959 69.9053 6.37043C69.9458 6.96998 69.9225 7.5717 69.836 8.1671C66.9231 8.1671 64.0566 8.1671 61.0975 8.1671C60.0981 8.1958 59.0978 8.1603 58.1038 8.06081C55.8294 7.84002 53.703 6.91831 52.0701 5.44548C50.7338 4.20378 49.8632 2.60229 49.585 0.874023Z" fill="white"/>
</g>
<defs>
<clipPath id="clip0_1154_3845">
<rect width="69.7111" height="18.0732" fill="white" transform="translate(0.148193 0.80957)"/>
</clipPath>
</defs>
</svg>
