<svg  viewBox="0 0 25 22" fill="none" xmlns="http://www.w3.org/2000/svg">
<path d="M17.8941 7.68077C17.4233 6.83327 16.2462 6.12702 15.2574 6.12702H9.7487C8.75995 6.12702 7.58286 6.83327 7.11203 7.68077L2.16828 16.3441C2.02703 16.5324 1.97995 16.862 1.97995 17.0974V19.687C1.97995 20.5345 2.63912 21.1937 3.48661 21.1937H21.5666C22.367 21.1937 23.0733 20.5345 23.0733 19.687V17.0974C23.0733 16.862 22.9791 16.5324 22.8379 16.3441L17.8941 7.68077ZM20.8133 18.9337H4.23995V17.2858L9.08953 8.81077C9.1837 8.57535 9.51328 8.38702 9.7487 8.38702H15.2574C15.4929 8.38702 15.8224 8.57535 15.9166 8.81077L20.8133 17.2858V18.9337ZM12.5266 10.647C10.8316 10.647 9.51328 12.0124 9.51328 13.6603C9.51328 15.3553 10.8316 16.6737 12.5266 16.6737C14.1745 16.6737 15.5399 15.3553 15.5399 13.6603C15.5399 12.0124 14.1745 10.647 12.5266 10.647ZM24.2974 4.38493C21.0016 1.6541 16.8112 0.100353 12.5266 0.100353C8.19495 0.100353 4.00453 1.6541 0.708699 4.38493C0.567449 4.52618 0.473283 4.80868 0.473283 4.99702V7.63368C0.473283 8.05743 0.802866 8.38702 1.22662 8.38702H4.52245C4.75786 8.38702 5.04036 8.24577 5.18161 8.01035L6.49995 4.62035C8.3362 3.81993 10.4079 3.49035 12.5266 3.49035C14.5983 3.49035 16.6699 3.81993 18.5533 4.62035L19.8245 8.01035C19.9658 8.24577 20.2483 8.38702 20.4837 8.38702H23.8266C24.2033 8.38702 24.5799 8.05743 24.5799 7.63368V4.99702C24.5799 4.80868 24.4387 4.52618 24.2974 4.38493Z"/>
</svg>
