<svg width="25" height="25" viewBox="0 0 25 25" fill="none" xmlns="http://www.w3.org/2000/svg">
<path d="M23.3125 2.07812C24.2969 2.3125 25 3.20312 25 4.1875C25 15.7188 15.625 25 4.14062 25C3.15625 25 2.26562 24.3438 2.03125 23.3594L1.04688 18.9531C0.8125 17.9219 1.32812 16.8906 2.26562 16.4688L7.04688 14.4531C7.89062 14.0781 8.92188 14.3125 9.53125 15.0625L11.0781 16.9375C13.5156 15.5781 15.5781 13.5625 16.8906 11.125L15.0156 9.57812C14.2656 8.96875 14.0312 7.9375 14.4062 7.09375L16.4688 2.3125C16.8438 1.375 17.875 0.859375 18.9062 1.09375L23.3125 2.07812ZM4.23438 22.75C14.4062 22.7031 22.7031 14.4531 22.75 4.28125L18.4844 3.29688L16.5156 7.89062L19.7031 10.5156C17.5 15.1562 15.1094 17.5469 10.4688 19.75L7.84375 16.5625L3.25 18.5312L4.23438 22.75Z"/>
</svg>
