<svg width="31" height="31" viewBox="0 0 31 31" fill="none" xmlns="http://www.w3.org/2000/svg">
<path d="M24.1379 1.74488C26.0527 -0.235978 28.326 0.507535 28.9245 1.12487C29.3948 1.61163 30.3807 4.09637 28.4659 6.07722C26.5511 8.05809 24.4773 10.204 23.6797 11.0294L27.8683 24.6478L24.8765 27.1239L18.8929 15.9816L12.3108 22.1717L13.2312 25.9805C13.4061 26.7039 13.2564 27.4701 12.824 28.0667L11.7125 29.5999L8.5804 22.7905L1.40002 19.0766L2.88211 17.9267C3.4587 17.4793 4.19947 17.3245 4.89869 17.5054L8.5804 18.4576L14.5641 11.6483L3.79348 5.45821L6.18695 2.36311L19.3509 6.69624C20.1488 5.87115 22.2231 3.72574 24.1379 1.74488Z" stroke="#181818" stroke-width="0.94" stroke-linejoin="round"/>
</svg>
