<svg width="14" height="15" viewBox="0 0 14 15" fill="none" xmlns="http://www.w3.org/2000/svg">
<path d="M13.225 6.54961C13.5125 6.54961 13.8 6.83711 13.8 7.12461V8.27461C13.8 8.59805 13.5125 8.84961 13.225 8.84961H8.05002V14.0246C8.05002 14.348 7.76252 14.5996 7.47502 14.5996H6.32502C6.00159 14.5996 5.75002 14.348 5.75002 14.0246V8.84961H0.575025C0.251587 8.84961 2.47955e-05 8.59805 2.47955e-05 8.27461V7.12461C2.47955e-05 6.83711 0.251587 6.54961 0.575025 6.54961H5.75002V1.37461C5.75002 1.08711 6.00159 0.79961 6.32502 0.79961H7.47502C7.76252 0.79961 8.05002 1.08711 8.05002 1.37461V6.54961H13.225Z" />
</svg>
