<svg width="16" height="16" viewBox="0 0 16 16" fill="none" xmlns="http://www.w3.org/2000/svg">
<path d="M10.7188 11C10.9062 11 11.0312 11.1875 10.9688 11.3438C10.6562 12.2188 9.15625 13 8 13C6.8125 13 5.34375 12.2188 5 11.3438C4.9375 11.1875 5.0625 11 5.25 11H10.7188ZM6 10C5.4375 10 5 9.5625 5 9C5 8.46875 5.4375 8 6 8C6.53125 8 7 8.46875 7 9C7 9.5625 6.53125 10 6 10ZM10 8C10.5312 8 11 8.46875 11 9C11 9.5625 10.5312 10 10 10C9.4375 10 9 9.5625 9 9C9 8.46875 9.4375 8 10 8ZM15.0312 10.375C15.625 10.9688 16 11.7812 16 12.6875C16 14.5312 14.5 16 12.6562 16H3.3125C1.46875 16 0 14.5312 0 12.6875C0 11.7812 0.34375 10.9688 0.9375 10.375C0.84375 10.0625 0.8125 9.75 0.8125 9.4375C0.8125 8.21875 1.46875 7.15625 2.4375 6.5625C2.4375 6.5 2.4375 6.4375 2.4375 6.375C2.4375 4.65625 3.8125 3.25 5.5625 3.25H5.96875C6.25 3.25 6.5 3.03125 6.5 2.71875C6.5 2.625 6.4375 2.53125 6.375 2.4375C6.09375 2 6.03125 1.46875 6.21875 0.96875C6.40625 0.5 6.84375 0.15625 7.375 0.0625C7.53125 0.03125 7.75 0 8 0C10.0625 0 11.75 1.625 11.9062 3.65625C12.875 4.15625 13.5625 5.21875 13.5625 6.375C13.5625 6.4375 13.5312 6.5 13.5312 6.5625C14.5312 7.15625 15.1875 8.21875 15.1875 9.4375C15.1875 9.75 15.125 10.0625 15.0312 10.375ZM12.6562 14.5C13.6562 14.5 14.5 13.6875 14.5 12.6875C14.5 11.7812 13.8125 11.0312 12.9375 10.875C13.375 10.5625 13.6875 10.0312 13.6875 9.4375C13.6875 8.4375 12.8438 7.59375 11.8438 7.59375H11.5C11.8438 7.3125 12.0625 6.875 12.0625 6.375C12.0625 5.5 11.3125 4.75 10.4375 4.75H10.2812C10.375 4.5 10.4375 4.25 10.4375 3.9375C10.4375 2.59375 9.34375 1.5 8 1.5C7.84375 1.5 7.71875 1.53125 7.59375 1.5625C7.84375 1.875 8 2.28125 8 2.71875C8 3.84375 7.0625 4.75 5.96875 4.75H5.5625C4.65625 4.75 3.9375 5.5 3.9375 6.375C3.9375 6.875 4.15625 7.3125 4.46875 7.59375H4.125C3.125 7.59375 2.3125 8.4375 2.3125 9.4375C2.3125 10.0312 2.59375 10.5625 3.03125 10.875C2.15625 11.0312 1.5 11.7812 1.5 12.6875C1.5 13.6875 2.3125 14.5 3.3125 14.5H12.6562Z" />
</svg>
