<svg width="13" height="16" viewBox="0 0 13 16" fill="none" xmlns="http://www.w3.org/2000/svg">
<path d="M8 4C6.875 4 6 3.125 6 2C6 0.90625 6.875 0 8 0C9.09375 0 10 0.90625 10 2C10 3.125 9.09375 4 8 4ZM7.28125 9L6.3125 7.71875L4.9375 10.7812L8.65625 14.2812C8.875 14.4688 9 14.75 9 15C9 15.875 8.15625 16 8 16H0.875C0.375 16 0 15.625 0 15.125C0 14.6562 0.375 14.25 0.875 14.25H5.15625L2.96875 12.75C1.78125 11.9375 1.34375 10.3438 2 9.03125L3.46875 5.625C3.75 4.96875 4.34375 4.59375 5 4.53125C5.65625 4.46875 6.28125 4.75 6.65625 5.28125L8.125 7.1875L10.5312 5.21875C10.9062 4.90625 11.4688 4.96875 11.7812 5.3125C12.0938 5.6875 12.0312 6.25 11.6875 6.5625L8.5625 9.125C8.375 9.28125 8.125 9.375 7.90625 9.34375C7.6875 9.3125 7.40625 9.15625 7.28125 9Z" />
</svg>
