<svg width="21" height="16" viewBox="0 0 21 16" fill="none" xmlns="http://www.w3.org/2000/svg">
<path d="M10.25 0C10.5 0 10.75 0.25 10.75 0.5V15.5C10.75 15.7812 10.5 16 10.25 16H9.75C9.46875 16 9.25 15.7812 9.25 15.5V0.5C9.25 0.25 9.46875 0 9.75 0H10.25ZM6.25 4.3125C7.28125 4.78125 8 5.8125 8 7V10.5C8 11.0625 7.53125 11.5 7 11.5H6.5V15C6.5 15.5625 6.03125 16 5.5 16H2.5C1.9375 16 1.5 15.5625 1.5 15V11.5H1C0.4375 11.5 0 11.0625 0 10.5V7C0 5.8125 0.6875 4.78125 1.71875 4.3125C1.40625 3.875 1.25 3.34375 1.25 2.75C1.25 1.25 2.46875 0 4 0C5.5 0 6.75 1.25 6.75 2.75C6.75 3.34375 6.5625 3.875 6.25 4.3125ZM4 1.5C3.28125 1.5 2.75 2.0625 2.75 2.75C2.75 3.46875 3.28125 4 4 4C4.6875 4 5.25 3.46875 5.25 2.75C5.25 2.0625 4.6875 1.5 4 1.5ZM6.5 10V7C6.5 6.1875 5.8125 5.5 5 5.5H3C2.15625 5.5 1.5 6.1875 1.5 7V10H3V14.5H5V10H6.5ZM19.9375 10.3438C20.0312 10.75 19.9688 11.1562 19.6875 11.4688C19.4375 11.8125 19.0312 12 18.5938 12H18.5V14.75C18.5 15.4375 17.9375 16 17.25 16H14.75C14.0312 16 13.5 15.4375 13.5 14.75V12H13.375C12.9375 12 12.5312 11.8125 12.2812 11.4688C12.0312 11.1562 11.9375 10.75 12.0312 10.3438L13.1875 6.125C13.3438 5.5625 13.6562 5.09375 14.0938 4.75C13.5625 4.25 13.25 3.53125 13.25 2.75C13.25 1.25 14.4688 0 16 0C17.5 0 18.75 1.25 18.75 2.75C18.75 3.53125 18.4062 4.25 17.875 4.75C18.3125 5.09375 18.625 5.5625 18.7812 6.125L19.9375 10.3438ZM16 1.5C15.2812 1.5 14.75 2.0625 14.75 2.75C14.75 3.46875 15.2812 4 16 4C16.6875 4 17.25 3.46875 17.25 2.75C17.25 2.0625 16.6875 1.5 16 1.5ZM17 10.5H18.4375L17.3125 6.53125C17.1562 5.9375 16.5938 5.5 16 5.5C15.375 5.5 14.8125 5.9375 14.6562 6.53125L13.5312 10.5625L15 10.5V14.5H17V10.5Z" />
</svg>
