<svg width="20" height="25" viewBox="0 0 20 25" fill="none" xmlns="http://www.w3.org/2000/svg">
<path d="M3.75 7C3.75 3.54822 6.54822 0.75 10 0.75C13.4518 0.75 16.25 3.54822 16.25 7C16.25 10.4518 13.4518 13.25 10 13.25C6.54822 13.25 3.75 10.4518 3.75 7ZM10 10.75C12.0711 10.75 13.75 9.07107 13.75 7C13.75 4.92893 12.0711 3.25 10 3.25C7.92893 3.25 6.25 4.92893 6.25 7C6.25 9.07107 7.92893 10.75 10 10.75Z" />
<path d="M2.92893 17.4289C1.05357 19.3043 0 21.8478 0 24.5H2.5C2.5 22.5109 3.29018 20.6032 4.6967 19.1967C6.10322 17.7902 8.01088 17 10 17C11.9891 17 13.8968 17.7902 15.3033 19.1967C16.7098 20.6032 17.5 22.5109 17.5 24.5H20C20 21.8478 18.9464 19.3043 17.0711 17.4289C15.1957 15.5536 12.6522 14.5 10 14.5C7.34784 14.5 4.8043 15.5536 2.92893 17.4289Z" />
</svg>
