<svg width="17" height="17" viewBox="0 0 17 17" fill="none" xmlns="http://www.w3.org/2000/svg">
<path d="M15.7609 4.17197C16.0484 4.45947 16.3 4.99854 16.3 5.39385V15.0251C16.3 15.9954 15.5094 16.7501 14.575 16.7501H1.925C0.954687 16.7501 0.2 15.9954 0.2 15.0251V2.3751C0.2 1.44072 0.954687 0.650098 1.925 0.650098H11.5562C11.9516 0.650098 12.4906 0.90166 12.7781 1.18916L15.7609 4.17197ZM9.975 2.3751H5.375V5.2501H9.975V2.3751ZM14.3594 15.0251C14.4672 15.0251 14.575 14.9532 14.575 14.8095V5.50166C14.575 5.42979 14.5391 5.39385 14.5031 5.35791L11.7 2.51885V6.1126C11.7 6.61572 11.3047 6.9751 10.8375 6.9751H4.5125C4.00937 6.9751 3.65 6.61572 3.65 6.1126V2.3751H2.14062C1.99687 2.3751 1.925 2.48291 1.925 2.59072V14.8095C1.925 14.9532 1.99687 15.0251 2.14062 15.0251H14.3594ZM8.25 7.8376C9.975 7.8376 11.4125 9.2751 11.4125 11.0001C11.4125 12.761 9.975 14.1626 8.25 14.1626C6.48906 14.1626 5.0875 12.761 5.0875 11.0001C5.0875 9.2751 6.48906 7.8376 8.25 7.8376ZM8.25 12.4376C9.04062 12.4376 9.6875 11.8267 9.6875 11.0001C9.6875 10.2095 9.04062 9.5626 8.25 9.5626C7.42344 9.5626 6.8125 10.2095 6.8125 11.0001C6.8125 11.8267 7.42344 12.4376 8.25 12.4376Z"/>
</svg>
