<svg  viewBox="0 0 32 24" fill="none" xmlns="http://www.w3.org/2000/svg">
<path d="M13 15.75H12.9531C12.9531 15 13.0469 15.375 8.96875 7.26562C8.59375 6.42188 7.79688 6 6.95312 6C6.15625 6 5.35938 6.42188 4.98438 7.26562C0.859375 15.4219 1 15.0469 1 15.75C1 17.8594 3.67188 19.5 7 19.5C10.2812 19.5 13 17.8594 13 15.75ZM4.89062 12.4688C5.40625 11.3906 6.10938 10.0312 6.95312 8.29688V8.25H7C7.89062 10.125 8.64062 11.5312 9.15625 12.6094C9.67188 13.6875 10.0938 14.4844 10.375 15H3.57812C3.90625 14.4375 4.32812 13.5938 4.89062 12.4688ZM25.75 21.75H17.125V7.3125C18.3906 6.9375 19.375 5.85938 19.6562 4.5H25.75C26.125 4.5 26.5 4.17188 26.5 3.75V3C26.5 2.625 26.125 2.25 25.75 2.25H19.4219C18.8125 0.9375 17.5 0 16 0C14.4531 0 13.1406 0.9375 12.5312 2.25H6.25C5.82812 2.25 5.5 2.625 5.5 3V3.75C5.5 4.17188 5.82812 4.5 6.25 4.5H12.2969C12.5781 5.85938 13.5625 6.9375 14.875 7.3125V21.75H6.25C5.82812 21.75 5.5 22.125 5.5 22.5V23.25C5.5 23.6719 5.82812 24 6.25 24H25.75C26.125 24 26.5 23.6719 26.5 23.25V22.5C26.5 22.125 26.125 21.75 25.75 21.75ZM16 5.25C15.1562 5.25 14.5 4.59375 14.5 3.75C14.5 2.95312 15.1562 2.25 16 2.25C16.7969 2.25 17.5 2.95312 17.5 3.75C17.5 4.59375 16.7969 5.25 16 5.25ZM30.9531 15.75C30.9531 15 31.0469 15.375 26.9688 7.26562C26.5938 6.42188 25.7969 6 24.9531 6C24.1562 6 23.3594 6.42188 22.9844 7.26562C18.8594 15.4219 19 15.0469 19 15.75C19 17.8594 21.6719 19.5 25 19.5C28.2812 19.5 31 17.8594 31 15.75H30.9531ZM21.5781 15C21.9062 14.4375 22.3281 13.5938 22.8906 12.4688C23.4062 11.3906 24.1094 10.0312 24.9531 8.29688V8.25H25C25.8906 10.125 26.6406 11.5312 27.1562 12.6094C27.6719 13.6875 28.0938 14.4844 28.375 15H21.5781Z" />
</svg>
