<svg viewBox="0 0 27 22" fill="none" xmlns="http://www.w3.org/2000/svg">
<path d="M26.4375 8H23.0156L16.9688 0.921875C16.5469 0.453125 15.8438 0.40625 15.375 0.78125C14.9062 1.20312 14.8594 1.90625 15.2344 2.375L20.0625 8H6.89062L11.7188 2.375C12.0938 1.90625 12.0469 1.20312 11.5781 0.78125C11.1094 0.40625 10.4062 0.453125 9.98438 0.921875L3.9375 8H0.5625C0.234375 8 0 8.28125 0 8.5625V9.6875C0 10.0156 0.234375 10.25 0.5625 10.25H1.40625L2.71875 19.5781C2.85938 20.7031 3.79688 21.5 4.92188 21.5H22.0312C23.1562 21.5 24.0938 20.7031 24.2344 19.5781L25.5469 10.25H26.4375C26.7188 10.25 27 10.0156 27 9.6875V8.5625C27 8.28125 26.7188 8 26.4375 8ZM22.0312 19.25H4.92188L3.70312 10.25H23.25L22.0312 19.25ZM14.625 12.875C14.625 12.2656 14.1094 11.75 13.5 11.75C12.8438 11.75 12.375 12.2656 12.375 12.875V16.625C12.375 17.2812 12.8438 17.75 13.5 17.75C14.1094 17.75 14.625 17.2812 14.625 16.625V12.875ZM19.875 12.875C19.875 12.2656 19.3594 11.75 18.75 11.75C18.0938 11.75 17.625 12.2656 17.625 12.875V16.625C17.625 17.2812 18.0938 17.75 18.75 17.75C19.3594 17.75 19.875 17.2812 19.875 16.625V12.875ZM9.375 12.875C9.375 12.2656 8.85938 11.75 8.25 11.75C7.59375 11.75 7.125 12.2656 7.125 12.875V16.625C7.125 17.2812 7.59375 17.75 8.25 17.75C8.85938 17.75 9.375 17.2812 9.375 16.625V12.875Z" />
</svg>
