<svg width="22" height="22" viewBox="0 0 22 22" fill="none" xmlns="http://www.w3.org/2000/svg">
<path d="M10.9978 2.12052e-07C13.1735 -0.000426892 15.3005 0.644344 17.1097 1.85277C18.9189 3.06119 20.3292 4.77899 21.162 6.78893C21.9949 8.79886 22.2131 11.0106 21.7889 13.1446C21.3647 15.2785 20.3172 17.2387 18.7789 18.7773C17.2406 20.3158 15.2806 21.3637 13.1468 21.7883C11.0129 22.2129 8.80109 21.9952 6.79098 21.1627C4.78087 20.3302 3.06277 18.9203 1.85398 17.1114C0.645193 15.3024 4.19226e-08 13.1756 0 10.9999C-5.62069e-08 8.08292 1.15863 5.28538 3.22106 3.22256C5.28349 1.15974 8.08083 0.000572843 10.9978 2.12052e-07ZM16.4309 7.72196C16.674 7.47885 16.8106 7.14911 16.8106 6.8053C16.8106 6.46149 16.674 6.13175 16.4309 5.88864C16.1878 5.64553 15.858 5.50895 15.5142 5.50895C15.1704 5.50895 14.8407 5.64553 14.5976 5.88864L11.1814 9.30479H10.9179L7.50177 5.88864C7.25865 5.64524 6.9288 5.50839 6.58478 5.50819C6.24076 5.50798 5.91075 5.64445 5.66735 5.88756C5.42395 6.13068 5.2871 6.46052 5.28689 6.80454C5.28669 7.14855 5.42316 7.47856 5.66627 7.72196L9.72595 11.7773V17.5817C9.73967 17.9193 9.88343 18.2385 10.1271 18.4725C10.3708 18.7065 10.6956 18.8372 11.0335 18.8372C11.3713 18.8372 11.6961 18.7065 11.9398 18.4725C12.1835 18.2385 12.3273 17.9193 12.341 17.5817V11.8097L16.4309 7.72196Z"/>
</svg>
