<svg width="24" height="27" viewBox="0 0 24 27" fill="none" xmlns="http://www.w3.org/2000/svg">
<path d="M16.8367 0.227539L12.4199 0.228825V18.4635C12.4199 20.0333 11.4827 21.4336 10.0324 22.0343C8.58214 22.635 6.93096 22.3061 5.82095 21.1961C4.71095 20.0861 4.38198 18.4332 4.98271 16.9829C5.58344 15.5326 6.98375 14.5976 8.55354 14.5976H9.98196V10.1803H8.55354C5.20965 10.1803 2.18117 12.2045 0.901517 15.2939C-0.378135 18.3832 0.332149 21.9559 2.69664 24.3204C5.06113 26.6849 8.63423 27.3952 11.7236 26.1155C14.8129 24.8359 16.8367 21.8074 16.8367 18.4635V8.35239C18.0393 9.06889 19.4599 9.59487 21.207 9.59487H23.4145V5.17631H21.207C18.7229 5.17631 18.0495 4.16597 17.4597 2.88377C16.8705 1.60278 16.8367 0.227539 16.8367 0.227539Z" fill="#181818"/>
</svg>
