<svg width="27" height="18" viewBox="0 0 27 18" fill="none" xmlns="http://www.w3.org/2000/svg">
<path d="M26.3266 15.4638C26.2951 15.3898 26.2658 15.3283 26.2385 15.2791C25.7875 14.3924 24.9257 13.304 23.6536 12.0136L23.6267 11.984L23.6133 11.9695L23.5997 11.9547H23.586C23.0087 11.3538 22.643 10.9498 22.4899 10.743C22.2098 10.3489 22.147 9.95009 22.3001 9.54597C22.4083 9.24064 22.8146 8.59583 23.5182 7.61066C23.8882 7.08855 24.1813 6.6701 24.3978 6.35484C25.9588 4.08921 26.6355 2.64145 26.4279 2.01097L26.3473 1.86364C26.2931 1.77494 26.1533 1.69379 25.9279 1.61979C25.7021 1.54594 25.4135 1.53373 25.0615 1.58295L21.164 1.61234C21.1008 1.58791 21.0107 1.59019 20.8932 1.61979C20.7759 1.64939 20.7172 1.66424 20.7172 1.66424L20.6494 1.70125L20.5955 1.7457C20.5504 1.77509 20.5008 1.82679 20.4466 1.90069C20.3927 1.97433 20.3476 2.06076 20.3116 2.15924C19.8872 3.3511 19.4048 4.45923 18.8633 5.48357C18.5295 6.09438 18.2229 6.62373 17.9429 7.07194C17.6632 7.52 17.4286 7.85011 17.2393 8.06172C17.0497 8.27353 16.8786 8.44322 16.7249 8.57141C16.5715 8.69964 16.4543 8.75383 16.3732 8.73401C16.292 8.71419 16.2154 8.69452 16.1429 8.67485C16.0167 8.58615 15.9152 8.46553 15.8386 8.31286C15.7617 8.1602 15.71 7.96805 15.6829 7.73657C15.656 7.50494 15.64 7.3057 15.6355 7.13818C15.6313 6.97087 15.6332 6.73422 15.6424 6.42889C15.6517 6.12341 15.656 5.91672 15.656 5.80836C15.656 5.43399 15.6626 5.0277 15.6761 4.58938C15.6897 4.15105 15.7008 3.80376 15.71 3.5479C15.7192 3.29179 15.7235 3.02083 15.7235 2.73517C15.7235 2.4495 15.7075 2.22548 15.6761 2.06288C15.645 1.90048 15.5972 1.74285 15.5343 1.59003C15.471 1.43737 15.3784 1.31928 15.2569 1.23544C15.1351 1.15171 14.9837 1.08526 14.8035 1.03589C14.3253 0.917747 13.7163 0.853835 12.9763 0.843899C11.2983 0.824234 10.22 0.942535 9.74182 1.19865C9.55235 1.30686 9.3809 1.45471 9.2276 1.64173C9.06515 1.85851 9.0425 1.97682 9.15977 1.99627C9.70119 2.08482 10.0845 2.29663 10.3101 2.63151L10.3914 2.80896C10.4546 2.93699 10.5177 3.16366 10.5809 3.48865C10.644 3.81364 10.6847 4.17315 10.7027 4.56697C10.7477 5.28614 10.7477 5.90177 10.7027 6.41389C10.6575 6.92621 10.6148 7.32505 10.5741 7.61071C10.5334 7.89638 10.4725 8.12785 10.3914 8.3051C10.3101 8.4824 10.256 8.59076 10.2289 8.63009C10.2018 8.66942 10.1792 8.69421 10.1613 8.70394C10.0441 8.753 9.92209 8.77799 9.79585 8.77799C9.66943 8.77799 9.51614 8.70896 9.33572 8.57099C9.15536 8.43303 8.96817 8.24352 8.77415 8.00215C8.58014 7.76074 8.36133 7.42338 8.11764 6.99002C7.87413 6.55666 7.62148 6.04449 7.35982 5.4535L7.14334 5.02491C7.00801 4.74918 6.82314 4.3477 6.58855 3.82083C6.35381 3.29376 6.14634 2.78391 5.96597 2.29141C5.89387 2.08456 5.78556 1.92708 5.64122 1.81872L5.57348 1.77427C5.52845 1.73494 5.45616 1.69317 5.357 1.64867C5.25769 1.60421 5.15407 1.57234 5.04571 1.55272L1.33751 1.58212C0.958578 1.58212 0.70147 1.67584 0.56609 1.86302L0.51191 1.95156C0.484843 2.00088 0.471191 2.07964 0.471191 2.18806C0.471191 2.29643 0.498258 2.42942 0.552438 2.5869C1.09377 3.97588 1.68245 5.31543 2.31849 6.60578C2.95453 7.89612 3.50724 8.93552 3.97628 9.72306C4.44541 10.5112 4.9236 11.255 5.41085 11.9541C5.89809 12.6535 6.22061 13.1017 6.37842 13.2986C6.53641 13.4959 6.6605 13.6434 6.75071 13.7419L7.08911 14.0964C7.30564 14.3329 7.62362 14.616 8.04317 14.946C8.46282 15.2761 8.9274 15.6011 9.43716 15.9214C9.94702 16.2413 10.5402 16.5023 11.2169 16.7042C11.8936 16.9063 12.5522 16.9874 13.1928 16.9483H14.7492C15.0649 16.9185 15.304 16.8102 15.4665 16.6231L15.5204 16.5491C15.5566 16.4903 15.5905 16.3989 15.6218 16.276C15.6534 16.1529 15.6692 16.0173 15.6692 15.8697C15.6599 15.4463 15.6895 15.0646 15.757 14.7248C15.8244 14.3851 15.9013 14.129 15.9873 13.9565C16.0732 13.7842 16.1702 13.6388 16.2782 13.5209C16.3863 13.4028 16.4634 13.3312 16.5086 13.3066C16.5536 13.2818 16.5894 13.265 16.6165 13.2549C16.833 13.1761 17.0879 13.2524 17.3814 13.4841C17.6747 13.7155 17.9497 14.0014 18.207 14.341C18.4642 14.681 18.7732 15.0625 19.134 15.486C19.495 15.9096 19.8107 16.2245 20.0813 16.4317L20.3519 16.6089C20.5326 16.7273 20.7672 16.8356 21.0559 16.9341C21.3442 17.0325 21.5967 17.0572 21.8136 17.0079L25.2781 16.9489C25.6207 16.9489 25.8874 16.887 26.0765 16.7641C26.266 16.641 26.3786 16.5053 26.4149 16.3578C26.4511 16.2101 26.4531 16.0425 26.4218 15.8552C26.3897 15.6683 26.3581 15.5377 26.3266 15.4638Z" fill="#181818"/>
</svg>
