<svg width="31" height="22" viewBox="0 0 31 22" fill="none" xmlns="http://www.w3.org/2000/svg">
<path d="M29.8595 4.25622C29.494 2.67374 28.1952 1.50623 26.6317 1.33207C22.9293 0.920176 19.1818 0.918026 15.4516 0.920176C11.7209 0.918026 7.97281 0.920176 4.27037 1.33207C2.70778 1.50623 1.40994 2.67374 1.04441 4.25622C0.524166 6.50984 0.518311 8.96987 0.518311 11.2901C0.518311 13.6104 0.518311 16.0701 1.03856 18.3235C1.40347 19.9056 2.70162 21.0731 4.26513 21.2476C7.96726 21.6598 11.715 21.662 15.4458 21.6598C19.1772 21.662 22.924 21.6598 26.6258 21.2476C28.1884 21.0734 29.4875 19.9059 29.853 18.3235C30.3736 16.0698 30.3754 13.6101 30.3754 11.2901C30.3754 8.96987 30.3797 6.50984 29.8595 4.25622ZM11.5939 15.9086C11.5939 12.6171 11.5939 9.35996 11.5939 6.06815C14.7582 7.71359 17.9016 9.34798 21.0859 11.0036C17.9114 12.6444 14.7665 14.269 11.5939 15.9086Z" fill="#181818"/>
</svg>
