<svg width="13" height="14" viewBox="0 0 13 14" fill="none" xmlns="http://www.w3.org/2000/svg">
<path d="M12.5 12.5C12.75 12.5 13 12.75 13 13V13.5C13 13.7813 12.75 14 12.5 14H9.5C9.21875 14 9 13.7813 9 13.5V13C9 12.75 9.21875 12.5 9.5 12.5H10.25V10H9.5H9.46875C9.21875 10 8.96875 9.78125 8.96875 9.5C8.96875 9.4375 9.03125 9.3125 9.0625 9.25L9.6875 8.25C9.78125 8.125 9.96875 8 10.0937 8H10.125H11.25C11.5 8 11.75 8.25 11.75 8.5V12.5H12.5ZM10.75 0C11.9688 0.03125 12.9688 1.03125 13 2.25V3.6875C12.9688 5.25 11.7187 6.75 10.1875 7C10.1562 7 10.125 7 10.125 7C9.84375 7 9.625 6.78125 9.625 6.5L9.625 6C9.625 5.78125 9.78125 5.5625 10 5.5C10.5312 5.40625 11.125 4.90625 11.3125 4.4375C11.1562 4.46875 10.9062 4.5 10.75 4.5C9.5 4.5 8.5 3.5 8.5 2.25C8.5 1.03125 9.5 0 10.75 0ZM10.75 3C11.1562 3 11.5 2.6875 11.5 2.25C11.5 1.84375 11.1562 1.5 10.75 1.5C10.3125 1.5 10 1.84375 10 2.25C10 2.6875 10.3125 3 10.75 3ZM0.875 3C0.65625 3 0.5 2.84375 0.5 2.625C0.5 2.5625 0.53125 2.4375 0.59375 2.375L2.71875 0.125C2.78125 0.0625 2.90625 0.03125 3 0.03125C3.0625 0.03125 3.1875 0.0625 3.25 0.125L5.375 2.375C5.4375 2.4375 5.5 2.5625 5.5 2.625C5.5 2.84375 5.3125 3 5.125 3H3.75L3.75 13.5C3.75 13.7812 3.5 14 3.25 14H2.75C2.46875 14 2.25 13.7812 2.25 13.5L2.25 3H0.875Z" />
</svg>
