<svg width="22" height="16" viewBox="0 0 22 16" fill="none" xmlns="http://www.w3.org/2000/svg">
<path d="M20.8438 5.53125C21.2188 6.1875 20.75 7 20 7H19V15.5C19 15.7812 18.75 16 18.5 16H18C17.7188 16 17.5 15.7812 17.5 15.5V7H13V14.9062C13 15.5312 12.5312 16 12 16H4C3.4375 16 3 15.5312 3 14.9062V7H2C1.21875 7 0.75 6.1875 1.125 5.53125L3.96875 0.53125C4.15625 0.21875 4.5 0 4.84375 0H17.125C17.5 0 17.8125 0.21875 18 0.53125L20.8438 5.53125ZM11.5 14.5V11.5312H4.5V14.5H11.5ZM11.5 10.0312V7H4.5V10.0312H11.5ZM2.84375 5.5H19.125L16.8438 1.5H5.125L2.84375 5.5Z"/>
</svg>
