<svg width="18" height="15" viewBox="0 0 18 15" fill="none" xmlns="http://www.w3.org/2000/svg">
<path d="M16.95 2.85H1.05C0.787499 2.85 0.599999 2.6625 0.599999 2.4V1.2C0.599999 0.974999 0.787499 0.749999 1.05 0.749999H16.95C17.175 0.749999 17.4 0.974999 17.4 1.2V2.4C17.4 2.6625 17.175 2.85 16.95 2.85ZM16.95 8.85H1.05C0.787499 8.85 0.599999 8.6625 0.599999 8.4V7.2C0.599999 6.975 0.787499 6.75 1.05 6.75H16.95C17.175 6.75 17.4 6.975 17.4 7.2V8.4C17.4 8.6625 17.175 8.85 16.95 8.85ZM16.95 14.85H1.05C0.787499 14.85 0.599999 14.6625 0.599999 14.4V13.2C0.599999 12.975 0.787499 12.75 1.05 12.75H16.95C17.175 12.75 17.4 12.975 17.4 13.2V14.4C17.4 14.6625 17.175 14.85 16.95 14.85Z"/>
</svg>
