<svg width="16" height="16" viewBox="0 0 16 16" fill="none" xmlns="http://www.w3.org/2000/svg">
<path d="M8 0.25C12.25 0.25 15.75 3.75 15.75 8C15.75 12.2813 12.25 15.75 8 15.75C3.71875 15.75 0.25 12.2812 0.25 8C0.25 3.75 3.71875 0.25 8 0.25ZM8 14.25C11.4375 14.25 14.25 11.4688 14.25 8C14.25 4.5625 11.4375 1.75 8 1.75C4.53125 1.75 1.75 4.5625 1.75 8C1.75 11.4688 4.53125 14.25 8 14.25ZM8 3.6875C8.71875 3.6875 9.3125 4.28125 9.3125 5C9.3125 5.75 8.71875 6.3125 8 6.3125C7.25 6.3125 6.6875 5.75 6.6875 5C6.6875 4.28125 7.25 3.6875 8 3.6875ZM9.75 11.625C9.75 11.8438 9.5625 12 9.375 12H6.625C6.40625 12 6.25 11.8438 6.25 11.625V10.875C6.25 10.6875 6.40625 10.5 6.625 10.5H7V8.5H6.625C6.40625 8.5 6.25 8.34375 6.25 8.125V7.375C6.25 7.1875 6.40625 7 6.625 7L8.625 7C8.8125 7 9 7.1875 9 7.375V10.5H9.375C9.5625 10.5 9.75 10.6875 9.75 10.875V11.625Z" />
</svg>
