<svg width="15" height="16" viewBox="0 0 15 16" fill="none" xmlns="http://www.w3.org/2000/svg">
<path d="M8.7348 13C8.51605 13 8.3598 12.8438 8.3598 12.625V5.875C8.3598 5.6875 8.51605 5.5 8.7348 5.5H9.4848C9.6723 5.5 9.8598 5.6875 9.8598 5.875V12.625C9.8598 12.8438 9.6723 13 9.4848 13H8.7348ZM13.8598 2.5C14.1098 2.5 14.3598 2.75 14.3598 3V3.5C14.3598 3.78125 14.1098 4 13.8598 4H13.3598V14.5C13.3598 15.3438 12.6723 16 11.8598 16H2.8598C2.01605 16 1.3598 15.3438 1.3598 14.5V4H0.859802C0.578552 4 0.359802 3.78125 0.359802 3.5V3C0.359802 2.75 0.578552 2.5 0.859802 2.5H3.4223L4.4848 0.75C4.7348 0.34375 5.2973 0 5.76605 0H8.9223C9.39105 0 9.95355 0.34375 10.2036 0.75L11.2661 2.5H13.8598ZM5.70355 1.59375L5.1723 2.5H9.51605L8.9848 1.59375C8.95355 1.5625 8.8598 1.5 8.82855 1.5H5.89105H5.8598C5.82855 1.5 5.7348 1.5625 5.70355 1.59375ZM11.8598 14.5V4H2.8598V14.5H11.8598ZM5.2348 13C5.01605 13 4.8598 12.8438 4.8598 12.625V5.875C4.8598 5.6875 5.01605 5.5 5.2348 5.5H5.9848C6.1723 5.5 6.3598 5.6875 6.3598 5.875V12.625C6.3598 12.8438 6.1723 13 5.9848 13H5.2348Z" />
</svg>
