<svg width="37" height="27" viewBox="0 0 37 27" fill="none" xmlns="http://www.w3.org/2000/svg">
<path d="M3.95889 24.1099C3.8656 24.1092 3.77404 24.0786 3.69294 24.0214C3.61184 23.9641 3.54389 23.882 3.49559 23.7828C3.44729 23.6836 3.42024 23.5707 3.41702 23.4548C3.4138 23.339 3.43452 23.2241 3.4772 23.121L10.5404 5.6777C10.5871 5.56893 10.6568 5.47795 10.7418 5.41444C10.8269 5.35094 10.9243 5.31728 11.0235 5.31706H22.4493C22.5462 5.31802 22.6416 5.28639 22.7253 5.22552C22.8091 5.16467 22.878 5.07682 22.9249 4.9713L22.9339 4.95084C22.9847 4.82242 23.0083 4.67996 23.0022 4.53705C22.9961 4.39413 22.9608 4.2555 22.8995 4.13437C22.8381 4.01324 22.7529 3.91364 22.6518 3.84505C22.5508 3.77645 22.4372 3.74116 22.3221 3.74252L15.1792 3.05159C15.0495 3.0424 14.9226 3.00136 14.8057 2.93084C14.689 2.86033 14.5846 2.76173 14.4985 2.64077L13.8059 1.54025C13.7549 1.45928 13.6898 1.39377 13.6154 1.34869C13.5411 1.3036 13.4594 1.28011 13.3767 1.28H8.19029C8.09403 1.27988 7.99946 1.31139 7.91616 1.37133C7.83286 1.43127 7.76379 1.5175 7.71595 1.62131C7.66812 1.7251 7.64321 1.84277 7.64375 1.96239C7.64431 2.08201 7.67029 2.19931 7.71907 2.30243C7.76748 2.4055 7.79317 2.52262 7.79353 2.64196C7.79389 2.7613 7.7689 2.87865 7.72111 2.98216C7.67331 3.08568 7.6044 3.1717 7.52131 3.23154C7.43822 3.29138 7.3439 3.32293 7.24786 3.32301H5.50214C5.36366 3.32505 5.23081 3.39136 5.12966 3.5089C4.57467 4.14652 5.15509 5.15719 5.38994 5.25571C5.44407 5.27736 5.50064 5.28803 5.55749 5.28732H7.85072C7.94505 5.2873 8.03777 5.31764 8.11985 5.3754C8.20194 5.43317 8.27058 5.51637 8.31909 5.6169C8.3676 5.71744 8.39432 5.83188 8.39665 5.94907C8.39898 6.06626 8.37685 6.18219 8.3324 6.28559C6.75571 9.94958 1.35847 21.8346 0.827417 23.7586C0.526248 24.8457 0.634659 25.4413 0.827417 25.7668M3.95889 24.1099C3.95889 24.1099 8.52885 21.3595 9.41991 21.2639M3.95889 24.1099L0.827417 25.7668M3.95889 24.1099L35.8614 24.9441M0.827417 25.7668C0.964976 25.9989 1.14548 26.0935 1.25076 26.1306C1.29666 26.1456 1.34393 26.1531 1.39138 26.153H34.6873C34.8389 26.1568 34.9883 26.1073 35.1182 26.0103C35.2481 25.9133 35.3534 25.7727 35.4218 25.6046M9.41991 21.2639L14.8903 5.33009M9.41991 21.2639L35.3725 22.3142C36.5474 22.4006 36.5151 23.3495 36.391 23.9087C36.3297 24.1847 36.1913 24.4339 36.0378 24.6713L35.8614 24.9441M35.8614 24.9441L35.1989 25.969" stroke="#181818" stroke-width="0.94" stroke-miterlimit="10"/>
</svg>
