<svg width="21" height="16" viewBox="0 0 21 16" fill="none" xmlns="http://www.w3.org/2000/svg">
<path d="M14 3C14 3.28125 13.75 3.5 13.5 3.5C13.2188 3.5 13 3.28125 13 3C13 2.75 13.2188 2.5 13.5 2.5C13.75 2.5 14 2.75 14 3ZM19.7188 2C19.9688 2 20.0938 2.34375 19.875 2.46875L16.9688 3.625L17 5.25C17 6.03125 16.4688 6.75 15.7188 7L14.75 7.34375C14.6875 7.375 14.125 7.5625 13.5 7.34375V7.5C13.5 8.5 13.125 9.4375 12.5 10.1562V15C12.5 15.5625 12.0312 16 11.5 16H9C8.4375 16 8 15.5625 8 15V11.1562L7.0625 10.875L6.78125 11.625L7.59375 14.7812C7.75 15.4062 7.25 16 6.625 16H4.28125C3.8125 16 3.40625 15.6875 3.3125 15.25L2.5625 12.125C2.5 11.9688 2.46875 11.6875 2.46875 11.5312C2.46875 11.3438 2.53125 11.0312 2.59375 10.8438L3 9.46875C2.34375 8.84375 2 7.96875 2 7C2 6.9375 2 6.84375 2 6.78125C1.6875 7 1.5 7.34375 1.5 7.75V9.5C1.5 9.78125 1.25 10 1 10H0.5C0.21875 10 0 9.78125 0 9.5V7.75C0 6.28125 1.15625 5.09375 2.59375 5.03125C2.78125 4.75 3.03125 4.53125 3.28125 4.34375C3.4375 4.84375 3.625 5.34375 3.90625 5.78125C3.65625 6.125 3.5 6.5625 3.5 7C3.5 7.84375 4 8.5625 4.71875 8.875L4.03125 11.25C4 11.3438 3.96875 11.4688 3.96875 11.5312C3.96875 11.5938 4 11.7188 4 11.7812L4.6875 14.5H5.96875L5.21875 11.5312L6.125 9.0625L9.5 10V14.5H11V9.5C11.5938 9.0625 12 8.34375 12 7.5V5H13L13.75 5.78125C13.9688 6 14.2188 5.9375 14.2812 5.90625L15.25 5.59375C15.375 5.53125 15.5 5.40625 15.5 5.25L15.4688 3.21875L14.0938 1.5H12.4688C10.8125 1.5 9.46875 2.84375 9.46875 4.5V5H8.28125C7.46875 5 6.65625 4.875 5.9375 4.5625C6.46875 5.6875 7.46875 6.53125 8.625 6.875C8.84375 6.90625 9 7.125 9 7.34375V7.84375C9 8.1875 8.6875 8.40625 8.375 8.34375C5.84375 7.6875 4 5.3125 4 2.625C4 2.25 4.28125 2 4.59375 2C4.75 2 4.90625 2.09375 5.03125 2.21875C5.78125 3.09375 6.9375 3.46875 8.09375 3.5C8.5625 1.5 10.3438 0 12.4688 0H16.7188C16.875 0 17 0.15625 16.9688 0.3125C16.875 0.84375 16.4688 1.28125 15.9688 1.4375L16.4375 2H19.7188Z" />
</svg>

