<svg width="31" height="31" viewBox="0 0 31 31" fill="none" xmlns="http://www.w3.org/2000/svg">
<path d="M25.9844 5.25781C28.7734 8.04688 30.5 11.6992 30.5 15.6836C30.5 23.7852 23.7266 30.4258 15.5586 30.4258C13.1016 30.4258 10.7109 29.7617 8.51953 28.6328L0.75 30.625L2.80859 22.9883C1.54688 20.7969 0.816406 18.2734 0.816406 15.6172C0.816406 7.51562 7.45703 0.875 15.5586 0.875C19.543 0.875 23.2617 2.46875 25.9844 5.25781ZM15.5586 27.9023C22.332 27.9023 27.9766 22.3906 27.9766 15.6836C27.9766 12.3633 26.582 9.30859 24.2578 6.98438C21.9336 4.66016 18.8789 3.39844 15.625 3.39844C8.85156 3.39844 3.33984 8.91016 3.33984 15.6172C3.33984 17.9414 4.00391 20.1992 5.19922 22.1914L5.53125 22.6562L4.26953 27.1719L8.91797 25.9102L9.31641 26.1758C11.2422 27.3047 13.3672 27.9023 15.5586 27.9023ZM22.332 18.7383C22.6641 18.9375 22.9297 19.0039 22.9961 19.2031C23.1289 19.3359 23.1289 20.0664 22.7969 20.9297C22.4648 21.793 21.0039 22.5898 20.3398 22.6562C19.1445 22.8555 18.2148 22.7891 15.8906 21.7266C12.1719 20.1328 9.78125 16.4141 9.58203 16.2148C9.38281 15.9492 8.12109 14.2227 8.12109 12.3633C8.12109 10.5703 9.05078 9.70703 9.38281 9.30859C9.71484 8.91016 10.1133 8.84375 10.3789 8.84375C10.5781 8.84375 10.8438 8.84375 11.043 8.84375C11.3086 8.84375 11.5742 8.77734 11.9062 9.50781C12.1719 10.2383 12.9688 12.0312 13.0352 12.2305C13.1016 12.4297 13.168 12.6289 13.0352 12.8945C12.3711 14.2891 11.5742 14.2227 11.9727 14.8867C13.4336 17.3438 14.8281 18.207 17.0195 19.2695C17.3516 19.4688 17.5508 19.4023 17.8164 19.2031C18.0156 18.9375 18.7461 18.0742 18.9453 17.7422C19.2109 17.3438 19.4766 17.4102 19.8086 17.543C20.1406 17.6758 21.9336 18.5391 22.332 18.7383Z"/>
</svg>
