<svg width="144" height="104" viewBox="0 0 144 104" fill="none" xmlns="http://www.w3.org/2000/svg">
<g clip-path="url(#clip0_275_2257)">
<path d="M73.1561 24.4214C57.8718 24.4214 45.4812 36.8121 45.4812 52.0963C45.4812 67.3805 57.8718 79.7712 73.1561 79.7712C88.4403 79.7712 100.831 67.3805 100.831 52.0963C100.831 36.8121 88.4463 24.4214 73.1561 24.4214ZM73.1561 77.1478C59.3186 77.1478 48.1046 65.9337 48.1046 52.0963C48.1046 38.2588 59.3186 27.0448 73.1561 27.0448C86.9935 27.0448 98.2076 38.2588 98.2076 52.0963C98.2076 65.9337 86.9935 77.1478 73.1561 77.1478Z" fill="#DCE2EE"/>
<path d="M73.1561 80.3955C88.782 80.3955 101.449 67.7282 101.449 52.1023C101.449 36.4764 88.782 23.8091 73.1561 23.8091C57.5302 23.8091 44.8629 36.4764 44.8629 52.1023C44.8629 67.7282 57.5302 80.3955 73.1561 80.3955Z" stroke="#CFAA8A" stroke-width="0.450242" stroke-miterlimit="10"/>
<path d="M73.1561 76.325C86.5341 76.325 97.3791 65.48 97.3791 52.102C97.3791 38.7239 86.5341 27.8789 73.1561 27.8789C59.7781 27.8789 48.933 38.7239 48.933 52.102C48.933 65.48 59.7781 76.325 73.1561 76.325Z" stroke="#CFAA8A" stroke-width="0.450242" stroke-miterlimit="10"/>
<path d="M48.0746 52.0601C47.114 51.6219 46.2676 50.9916 45.5652 50.2231C45.5292 50.8115 45.4992 51.4058 45.4992 52.0001C45.4992 52.1322 45.5052 52.2642 45.5112 52.4023C46.2976 53.0206 47.1861 53.5129 48.1466 53.8491C48.1046 53.2608 48.0746 52.6605 48.0746 52.0601Z" fill="#CFAA8A"/>
<path d="M48.3747 48.2299C47.4922 47.6536 46.7478 46.9032 46.1775 46.0327C46.0515 46.609 45.9314 47.1913 45.8414 47.7797C45.8233 47.9117 45.8053 48.0438 45.7873 48.1759C46.4717 48.9083 47.2701 49.5266 48.1706 50.0129C48.2186 49.4185 48.2847 48.8302 48.3747 48.2299Z" fill="#CFAA8A"/>
<path d="M49.2572 44.4957C48.4768 43.7873 47.8524 42.9348 47.4202 41.9863C47.2041 42.5386 47 43.0909 46.8199 43.6612C46.7778 43.7873 46.7478 43.9194 46.7058 44.0454C47.2701 44.8739 47.9665 45.6063 48.7829 46.2246C48.921 45.6483 49.0771 45.072 49.2572 44.4957Z" fill="#CFAA8A"/>
<path d="M50.698 40.9358C50.0316 40.1194 49.5514 39.1769 49.2692 38.1743C48.975 38.6846 48.6869 39.2009 48.4167 39.7412C48.3567 39.8612 48.3027 39.9813 48.2487 40.1014C48.6809 41.0018 49.2572 41.8363 49.9656 42.5687C50.1937 42.0224 50.4338 41.4761 50.698 40.9358Z" fill="#CFAA8A"/>
<path d="M52.667 37.6405C52.1328 36.734 51.8026 35.7254 51.6765 34.6929C51.3043 35.1491 50.9441 35.6234 50.5959 36.1096C50.5179 36.2177 50.4519 36.3318 50.3738 36.4398C50.662 37.4003 51.1062 38.3128 51.6945 39.1413C52.0007 38.637 52.3189 38.1327 52.667 37.6405Z" fill="#CFAA8A"/>
<path d="M55.1163 34.6808C54.7261 33.7023 54.552 32.6577 54.5821 31.6191C54.1438 32.0154 53.7176 32.4236 53.2974 32.8558C53.2013 32.9519 53.1173 33.0539 53.0272 33.15C53.1653 34.1405 53.4655 35.113 53.9217 36.0195C54.2999 35.5633 54.6961 35.113 55.1163 34.6808Z" fill="#CFAA8A"/>
<path d="M57.9859 32.1292C57.7518 31.1027 57.7337 30.0461 57.9258 29.0195C57.4336 29.3437 56.9473 29.6799 56.4671 30.0461C56.359 30.1241 56.263 30.2142 56.1549 30.2982C56.1429 31.3008 56.287 32.3033 56.5991 33.2698C57.0494 32.8796 57.5056 32.4954 57.9859 32.1292Z" fill="#CFAA8A"/>
<path d="M61.2096 30.046C61.1376 28.9954 61.2817 27.9448 61.6238 26.9663C61.0896 27.2124 60.5553 27.4706 60.027 27.7587C59.9069 27.8248 59.7989 27.8908 59.6788 27.9568C59.5107 28.9414 59.5047 29.9559 59.6668 30.9645C60.1711 30.6463 60.6813 30.3341 61.2096 30.046Z" fill="#CFAA8A"/>
<path d="M64.7155 28.4792C64.7996 27.4286 65.1057 26.4141 65.598 25.4956C65.0337 25.6577 64.4634 25.8318 63.8991 26.0359C63.773 26.0779 63.6529 26.1319 63.5269 26.18C63.2087 27.1285 63.0466 28.131 63.0526 29.1516C63.5989 28.9114 64.1512 28.6833 64.7155 28.4792Z" fill="#CFAA8A"/>
<path d="M68.4195 27.4706C68.6657 26.4441 69.1219 25.4896 69.7462 24.6611C69.1579 24.7332 68.5756 24.8232 67.9873 24.9313C67.8552 24.9553 67.7292 24.9913 67.5971 25.0153C67.1408 25.9038 66.8287 26.8703 66.6786 27.8789C67.2489 27.7228 67.8312 27.5847 68.4195 27.4706Z" fill="#CFAA8A"/>
<path d="M72.2376 27.0386C72.6398 26.0661 73.2341 25.1896 73.9785 24.4632C73.3902 24.4452 72.7959 24.4452 72.1956 24.4632C72.0635 24.4692 71.9314 24.4812 71.7993 24.4872C71.211 25.2977 70.7548 26.2042 70.4546 27.1767C71.0369 27.1106 71.6313 27.0566 72.2376 27.0386Z" fill="#CFAA8A"/>
<path d="M76.0736 27.1885C76.6199 26.288 77.3403 25.5136 78.1868 24.9072C77.6045 24.7992 77.0222 24.7031 76.4278 24.6371C76.2958 24.6191 76.1637 24.6131 76.0316 24.6011C75.3292 25.3095 74.7349 26.1379 74.2907 27.0504C74.879 27.0804 75.4733 27.1164 76.0736 27.1885Z" fill="#CFAA8A"/>
<path d="M79.8437 27.9272C80.516 27.1167 81.3505 26.4624 82.281 25.9941C81.7227 25.802 81.1584 25.6159 80.5821 25.4598C80.45 25.4238 80.3239 25.3938 80.1919 25.3638C79.3874 25.9581 78.6791 26.6845 78.0967 27.5189C78.6791 27.633 79.2614 27.7651 79.8437 27.9272Z" fill="#CFAA8A"/>
<path d="M83.4516 29.2295C84.244 28.5331 85.1625 28.0168 86.153 27.6927C85.6308 27.4165 85.1025 27.1464 84.5562 26.9002C84.4361 26.8462 84.3101 26.7982 84.19 26.7441C83.3015 27.2064 82.4911 27.8187 81.7887 28.5571C82.347 28.7612 82.9053 28.9833 83.4516 29.2295Z" fill="#CFAA8A"/>
<path d="M86.8254 31.0668C87.7139 30.4965 88.7044 30.1303 89.731 29.9623C89.2567 29.6081 88.7765 29.2659 88.2722 28.9357C88.1581 28.8637 88.0441 28.7976 87.93 28.7256C86.9815 29.0498 86.087 29.53 85.2826 30.1484C85.8049 30.4425 86.3212 30.7427 86.8254 31.0668Z" fill="#CFAA8A"/>
<path d="M89.8751 33.4019C90.8416 32.9757 91.8741 32.7596 92.9127 32.7536C92.4985 32.3334 92.0782 31.9191 91.628 31.5169C91.5259 31.4269 91.4239 31.3428 91.3218 31.2588C90.3373 31.4329 89.3768 31.7691 88.4883 32.2613C88.9626 32.6275 89.4248 32.9997 89.8751 33.4019Z" fill="#CFAA8A"/>
<path d="M92.5345 36.1695C93.555 35.8933 94.6056 35.8393 95.6382 35.9894C95.296 35.5091 94.9358 35.0349 94.5576 34.5726C94.4735 34.4706 94.3835 34.3745 94.2934 34.2725C93.2909 34.2965 92.2944 34.4826 91.3398 34.8308C91.7481 35.263 92.1503 35.7072 92.5345 36.1695Z" fill="#CFAA8A"/>
<path d="M94.7377 39.3153C95.7822 39.2013 96.8388 39.3093 97.8294 39.6155C97.5592 39.0872 97.2831 38.5649 96.9769 38.0487C96.9109 37.9346 96.8328 37.8265 96.7668 37.7125C95.7762 37.5804 94.7617 37.6164 93.7592 37.8145C94.1013 38.3008 94.4315 38.7991 94.7377 39.3153Z" fill="#CFAA8A"/>
<path d="M96.4366 42.7612C97.4872 42.8092 98.5137 43.0733 99.4502 43.5296C99.2641 42.9713 99.072 42.407 98.8499 41.8547C98.8019 41.7286 98.7418 41.6085 98.6938 41.4885C97.7333 41.2063 96.7248 41.0863 95.7102 41.1283C95.9623 41.6566 96.2085 42.2029 96.4366 42.7612Z" fill="#CFAA8A"/>
<path d="M97.5892 46.4231C98.6218 46.6272 99.5943 47.0475 100.447 47.6418C100.351 47.0595 100.243 46.4772 100.105 45.8948C100.075 45.7628 100.039 45.6367 100.003 45.5106C99.096 45.0904 98.1175 44.8143 97.1089 44.7002C97.289 45.2645 97.4511 45.8348 97.5892 46.4231Z" fill="#CFAA8A"/>
<path d="M98.1655 50.2169C99.1561 50.5771 100.051 51.1414 100.807 51.8558C100.801 51.2675 100.783 50.6731 100.741 50.0788C100.729 49.9468 100.711 49.8147 100.699 49.6826C99.8644 49.1243 98.946 48.7041 97.9614 48.4399C98.0515 49.0283 98.1235 49.6166 98.1655 50.2169Z" fill="#CFAA8A"/>
<path d="M98.1655 54.0591C99.09 54.5694 99.8885 55.2598 100.525 56.0822C100.609 55.4999 100.681 54.9116 100.729 54.3113C100.741 54.1792 100.741 54.0471 100.753 53.909C100.015 53.2307 99.1681 52.6724 98.2376 52.2642C98.2256 52.8645 98.2075 53.4588 98.1655 54.0591Z" fill="#CFAA8A"/>
<path d="M97.5712 57.8532C98.4057 58.4955 99.09 59.306 99.5943 60.2125C99.7684 59.6482 99.9305 59.0778 100.069 58.4955C100.099 58.3635 100.123 58.2374 100.153 58.1053C99.5283 57.3249 98.7779 56.6465 97.9194 56.0942C97.8174 56.6826 97.7093 57.2649 97.5712 57.8532Z" fill="#CFAA8A"/>
<path d="M96.4066 61.5092C97.133 62.2716 97.6853 63.1721 98.0455 64.1506C98.3036 63.6163 98.5497 63.082 98.7719 62.5237C98.8199 62.3977 98.8619 62.2716 98.9099 62.1515C98.4117 61.2871 97.7693 60.4946 97.0069 59.8223C96.8268 60.3926 96.6347 60.9509 96.4066 61.5092Z" fill="#CFAA8A"/>
<path d="M94.6956 64.9488C95.296 65.8133 95.7042 66.7918 95.9143 67.8124C96.2505 67.3261 96.5747 66.8338 96.8808 66.3176C96.9469 66.2035 97.0129 66.0834 97.0789 65.9694C96.7187 65.0389 96.2085 64.1624 95.5541 63.376C95.284 63.9043 95.0018 64.4325 94.6956 64.9488Z" fill="#CFAA8A"/>
<path d="M92.4805 68.0883C92.9427 69.0368 93.2009 70.0634 93.2429 71.1019C93.6451 70.6697 94.0473 70.2314 94.4255 69.7752C94.5096 69.6731 94.5876 69.5651 94.6716 69.463C94.4555 68.4845 94.0833 67.542 93.5611 66.6655C93.2249 67.1458 92.8647 67.62 92.4805 68.0883Z" fill="#CFAA8A"/>
<path d="M89.815 70.8501C90.1272 71.8586 90.2233 72.9092 90.1092 73.9418C90.5774 73.5816 91.0337 73.2034 91.4839 72.8071C91.586 72.7171 91.676 72.6271 91.7781 72.537C91.7181 71.5405 91.4899 70.5499 91.1057 69.6074C90.6915 70.0337 90.2653 70.4479 89.815 70.8501Z" fill="#CFAA8A"/>
<path d="M86.7594 73.1732C86.9155 74.2177 86.8494 75.2683 86.5793 76.2769C87.0956 75.9887 87.6058 75.6885 88.1101 75.3644C88.2242 75.2923 88.3322 75.2143 88.4403 75.1422C88.5303 74.1457 88.4643 73.1312 88.2242 72.1406C87.7499 72.5008 87.2637 72.843 86.7594 73.1732Z" fill="#CFAA8A"/>
<path d="M83.3856 75.0045C83.3796 76.0611 83.1515 77.0936 82.7312 78.0421C83.2835 77.838 83.8358 77.6219 84.3821 77.3758C84.5022 77.3217 84.6222 77.2617 84.7423 77.2017C84.9824 76.2291 85.0725 75.2206 84.9884 74.2061C84.4662 74.4882 83.9319 74.7584 83.3856 75.0045Z" fill="#CFAA8A"/>
<path d="M79.7656 76.2952C79.5975 77.3337 79.2193 78.3243 78.655 79.2007C79.2313 79.0807 79.8137 78.9546 80.39 78.7925C80.522 78.7565 80.6421 78.7145 80.7742 78.6785C81.1644 77.754 81.3985 76.7694 81.4705 75.7549C80.9122 75.953 80.3479 76.1331 79.7656 76.2952Z" fill="#CFAA8A"/>
<path d="M75.9956 77.0213C75.6714 78.0238 75.1431 78.9423 74.4588 79.7227C75.0471 79.6927 75.6414 79.6507 76.2357 79.5847C76.3678 79.5666 76.4999 79.5486 76.6319 79.5306C77.1542 78.6782 77.5444 77.7417 77.7665 76.7451C77.1842 76.8532 76.5959 76.9492 75.9956 77.0213Z" fill="#CFAA8A"/>
<path d="M72.1595 77.1597C71.6853 78.1022 71.0249 78.9246 70.2265 79.597C70.8148 79.657 71.4031 79.711 72.0035 79.7351C72.1355 79.7411 72.2676 79.7351 72.4057 79.7411C73.054 78.9786 73.5763 78.1082 73.9545 77.1657C73.3542 77.1777 72.7599 77.1837 72.1595 77.1597Z" fill="#CFAA8A"/>
<path d="M68.3475 76.7153C67.7352 77.5738 66.9547 78.2882 66.0663 78.8285C66.6366 78.9785 67.2129 79.1166 67.8012 79.2307C67.9333 79.2547 68.0653 79.2727 68.1974 79.2967C68.9538 78.6424 69.6082 77.862 70.1244 76.9855C69.5241 76.9134 68.9358 76.8294 68.3475 76.7153Z" fill="#CFAA8A"/>
<path d="M64.6435 75.689C63.9111 76.4454 63.0286 77.0337 62.0681 77.4299C62.6084 77.664 63.1547 77.8921 63.719 78.0963C63.8451 78.1443 63.9711 78.1803 64.0972 78.2223C64.9437 77.688 65.7061 77.0217 66.3544 76.2293C65.7781 76.0732 65.2078 75.8931 64.6435 75.689Z" fill="#CFAA8A"/>
<path d="M61.1436 74.1157C60.3031 74.7521 59.3426 75.1963 58.3341 75.4424C58.8323 75.7606 59.3426 76.0668 59.8649 76.3489C59.985 76.415 60.105 76.469 60.2191 76.529C61.1376 76.1328 61.9961 75.5865 62.7525 74.9081C62.2062 74.662 61.6719 74.4039 61.1436 74.1157Z" fill="#CFAA8A"/>
<path d="M57.9199 72.021C56.9894 72.5193 55.9748 72.8134 54.9362 72.9035C55.3805 73.2937 55.8367 73.6719 56.311 74.0381C56.419 74.1221 56.5271 74.1942 56.6352 74.2722C57.6017 74.0201 58.5322 73.6119 59.3846 73.0536C58.8924 72.7294 58.4001 72.3872 57.9199 72.021Z" fill="#CFAA8A"/>
<path d="M55.0623 69.4634C54.0658 69.8116 53.0212 69.9496 51.9827 69.8776C52.3609 70.3278 52.7511 70.7721 53.1653 71.2043C53.2554 71.3004 53.3574 71.3904 53.4475 71.4865C54.444 71.3844 55.4225 71.1263 56.353 70.706C55.9088 70.3098 55.4765 69.8956 55.0623 69.4634Z" fill="#CFAA8A"/>
<path d="M52.619 66.4975C51.5865 66.6896 50.5239 66.6656 49.5093 66.4375C49.8155 66.9418 50.1337 67.44 50.4759 67.9323C50.5539 68.0404 50.6379 68.1484 50.716 68.2565C51.7125 68.3105 52.7211 68.2025 53.7056 67.9263C53.3334 67.4641 52.9672 66.9898 52.619 66.4975Z" fill="#CFAA8A"/>
<path d="M50.662 63.1959C49.6114 63.2319 48.5668 63.0458 47.6003 62.6616C47.8284 63.2079 48.0626 63.7482 48.3267 64.2885C48.3867 64.4086 48.4528 64.5226 48.5128 64.6427C49.4913 64.8468 50.5059 64.8948 51.5144 64.7748C51.2203 64.2525 50.9321 63.7302 50.662 63.1959Z" fill="#CFAA8A"/>
<path d="M49.2332 59.6298C48.1886 59.5038 47.1861 59.1616 46.2856 58.6333C46.4237 59.2036 46.5797 59.7799 46.7598 60.3502C46.8019 60.4763 46.8499 60.6024 46.8919 60.7284C47.8284 61.0826 48.825 61.2807 49.8395 61.3167C49.6234 60.7644 49.4133 60.2061 49.2332 59.6298Z" fill="#CFAA8A"/>
<path d="M48.3627 55.8899C47.3482 55.6077 46.4117 55.1154 45.6072 54.4551C45.6613 55.0434 45.7213 55.6317 45.8113 56.226C45.8294 56.3581 45.8594 56.4902 45.8834 56.6222C46.7539 57.1145 47.7084 57.4627 48.7109 57.6548C48.5728 57.0665 48.4588 56.4842 48.3627 55.8899Z" fill="#CFAA8A"/>
<path d="M87.7379 37.436L58.6103 66.5637C58.6103 66.5637 59.5288 64.2585 59.2346 62.2474L87.0596 41.8124C87.0596 41.8124 86.6153 39.6152 87.7379 37.436Z" fill="#CFAA8A"/>
<path d="M58.6042 66.5637L87.7319 37.436C87.7319 37.436 85.4267 38.3545 83.4156 38.0604L62.9806 65.8854C62.9806 65.8914 60.7834 65.4471 58.6042 66.5637Z" fill="#DCE2EE"/>
<path d="M58.6103 37.4424L87.7379 66.5701C87.7379 66.5701 85.4327 65.6516 83.4216 65.9457L62.9806 38.1147C62.9806 38.1147 60.7834 38.559 58.6103 37.4424Z" fill="#CFAA8A"/>
<path d="M58.6103 37.436L87.7379 66.5637C87.7379 66.5637 86.8194 64.2585 87.1136 62.2474L59.2826 41.8124C59.2826 41.8124 59.7269 39.6152 58.6103 37.436Z" fill="#DCE2EE"/>
<path d="M73.1681 93.6442V10.3613L66.2224 45.054L80.1258 58.9455L73.1681 93.6442Z" fill="#DCE2EE"/>
<path d="M114.813 51.9999H31.5297L66.2223 45.0542L80.1198 58.9577L114.813 51.9999Z" fill="#CFAA8A"/>
<path d="M73.1741 93.6442V10.3613L80.1258 45.054L66.2224 58.9515L73.1741 93.6442Z" fill="#CFAA8A"/>
<path d="M114.813 52.0059H31.5297L66.2223 58.9577L80.1198 45.0542L114.813 52.0059Z" fill="#DCE2EE"/>
<path fill-rule="evenodd" clip-rule="evenodd" d="M76.1697 0.1861C75.6054 0.228123 75.3233 0.726391 75.3233 1.6749V5.31886H74.0446L70.8929 0.972524V3.50589C70.8929 4.58647 71.223 5.12676 71.8834 5.13276V5.31886H69.8303V5.13276C70.1365 5.11475 70.3526 4.97068 70.4846 4.69453C70.6107 4.41838 70.6767 4.11822 70.6767 3.78804V0.666359L70.3286 0.180097H69.8303V0H72.91L75.1191 3.04964V1.74694C75.1191 1.22466 75.0471 0.828446 74.897 0.570307C74.7469 0.312168 74.5248 0.1861 74.2247 0.1861H74.0446V0H76.1697V0.1861Z" fill="#CFAA8A"/>
<path fill-rule="evenodd" clip-rule="evenodd" d="M44.0344 24.3794C43.8183 24.6375 43.9083 24.9617 44.3045 25.3579L45.8354 26.8887L45.2951 27.429L42.1434 26.9247L43.2119 27.9933C43.6682 28.4496 44.0284 28.5336 44.3105 28.2574L44.3886 28.3355L43.5241 29.2L43.4461 29.1219C43.5661 28.9898 43.5962 28.8338 43.5361 28.6657C43.4761 28.4976 43.374 28.3415 43.236 28.2034L41.9273 26.8947L41.5731 26.8347L41.363 27.0448L41.2849 26.9668L42.5756 25.6761L44.7848 26.0302L44.2385 25.484C44.0164 25.2618 43.8243 25.1298 43.6502 25.0817C43.4821 25.0337 43.332 25.0757 43.2059 25.2018L43.1279 25.2798L43.0499 25.2018L43.9443 24.3073L44.0344 24.3794ZM48.0506 20.3632L47.9725 20.2852L47.1861 21.0716L47.2641 21.1496C47.3842 21.0476 47.4923 20.9995 47.5823 21.0115C47.6724 21.0236 47.7624 21.0776 47.8585 21.1676C47.9245 21.2337 47.9785 21.2997 48.0085 21.3657C48.0385 21.4258 48.2126 21.858 48.5368 22.6444L46.6878 21.7199L46.8679 21.5398L46.7899 21.4618L45.4331 22.8185L45.5112 22.8966L45.6733 22.7345L47 23.3948L47.2401 24.0492L45.2891 23.1187L45.4512 22.9566L45.3731 22.8786L44.0224 24.2293L44.1004 24.3073L44.2745 24.1332L47.1921 25.532L47.7204 25.0037L47.1621 23.4669L48.5608 24.1692L49.1011 23.629L48.2066 21.3837C48.0205 20.9515 47.9725 20.6093 48.0506 20.3632Z" fill="#CFAA8A"/>
<path fill-rule="evenodd" clip-rule="evenodd" d="M46.5257 80.5572C46.3096 80.7793 46.2256 81.0375 46.2736 81.3196C46.3216 81.6078 46.4357 81.8359 46.6098 82.01C46.6938 82.094 46.7839 82.1361 46.8799 82.1421C46.976 82.1481 47.06 82.112 47.1321 82.04C47.1861 81.986 47.2161 81.9199 47.2221 81.8539C47.2281 81.7879 47.2041 81.6798 47.1621 81.5357C47.018 81.0255 46.928 80.6713 46.9039 80.4852C46.8799 80.2991 46.8919 80.143 46.94 80.0109C46.988 79.8788 47.072 79.7528 47.1921 79.6327C47.3722 79.4526 47.5763 79.3446 47.7924 79.3205C48.0085 79.2965 48.2307 79.3385 48.4528 79.4526C48.6749 79.5607 48.849 79.6867 48.9871 79.8188C49.1972 80.0289 49.3232 80.2931 49.3593 80.6172L49.8936 80.6833L48.951 81.6258L48.867 81.5417L48.879 81.5297C49.0351 81.3736 49.1371 81.2176 49.1792 81.0495C49.2272 80.8874 49.2332 80.7013 49.1912 80.4912C49.1492 80.2811 49.0651 80.113 48.939 79.9869C48.825 79.8728 48.7049 79.8008 48.5848 79.7768C48.4648 79.7528 48.3687 79.7828 48.2907 79.8608C48.2427 79.9089 48.2186 79.9629 48.2066 80.0349C48.1946 80.107 48.2006 80.179 48.2187 80.263C48.2367 80.3471 48.2907 80.5272 48.3747 80.7973C48.5728 81.4337 48.5188 81.9079 48.2126 82.2141C47.9905 82.4362 47.7264 82.5383 47.4142 82.5263C47.102 82.5083 46.8259 82.3822 46.5798 82.1361C46.4957 82.052 46.4237 81.956 46.3456 81.8419C46.2736 81.7278 46.2136 81.5657 46.1655 81.3616L45.6253 81.2836L46.4537 80.4551L46.5257 80.5572ZM41.6811 76.9793L41.6031 77.0573L42.3895 77.8437L42.4676 77.7657C42.3655 77.6456 42.3175 77.5376 42.3295 77.4475C42.3415 77.3575 42.3955 77.2674 42.4856 77.1714C42.5516 77.1053 42.6176 77.0513 42.6837 77.0213C42.7437 76.9913 43.1759 76.8112 43.9624 76.493L43.0379 78.342L42.8578 78.1619L42.7797 78.24L44.1365 79.5967L44.2145 79.5186L44.0524 79.3566L44.7128 78.0298L45.3671 77.7897L44.4366 79.7408L44.2745 79.5787L44.1965 79.6567L45.5472 81.0074L45.6253 80.9294L45.4512 80.7553L46.8499 77.8377L46.3216 77.3095L44.7848 77.8678L45.4872 76.469L44.9469 75.9287L42.7017 76.8232C42.2694 77.0093 41.9273 77.0573 41.6811 76.9793Z" fill="#CFAA8A"/>
<path fill-rule="evenodd" clip-rule="evenodd" d="M100.831 78.8947C101.053 79.1108 101.311 79.1948 101.593 79.1468C101.882 79.0988 102.11 78.9847 102.284 78.8106C102.368 78.7266 102.41 78.6365 102.416 78.5405C102.422 78.4444 102.392 78.3604 102.314 78.2883C102.26 78.2343 102.194 78.2043 102.128 78.1983C102.062 78.1923 101.954 78.2163 101.81 78.2583C101.299 78.4024 100.945 78.4924 100.759 78.5165C100.573 78.5405 100.417 78.5345 100.285 78.4804C100.153 78.4324 100.027 78.3484 99.9065 78.2283C99.7264 78.0482 99.6183 77.8441 99.5943 77.628C99.5703 77.4119 99.6123 77.1898 99.7264 76.9676C99.8344 76.7455 99.9605 76.5714 100.093 76.4333C100.303 76.2232 100.567 76.0972 100.891 76.0611L100.957 75.5269L101.9 76.4694L101.816 76.5534L101.804 76.5414C101.647 76.3853 101.491 76.2833 101.323 76.2412C101.161 76.1932 100.975 76.1872 100.765 76.2292C100.555 76.2713 100.387 76.3553 100.261 76.4814C100.147 76.5954 100.075 76.7155 100.051 76.8356C100.027 76.9556 100.057 77.0517 100.135 77.1297C100.183 77.1777 100.237 77.2018 100.309 77.2138C100.381 77.2258 100.453 77.2198 100.537 77.2018C100.621 77.1838 100.801 77.1297 101.071 77.0457C101.707 76.8476 102.182 76.9016 102.488 77.2078C102.71 77.4299 102.812 77.7 102.8 78.0062C102.782 78.3184 102.656 78.5945 102.41 78.8406C102.326 78.9247 102.23 78.9967 102.116 79.0748C102.002 79.1468 101.84 79.2068 101.635 79.2549L101.557 79.7952L100.729 78.9667L100.831 78.8947ZM96.7308 79.9512L97.5592 80.7797L97.6313 80.7076C97.4392 80.4375 97.3611 80.1493 97.3971 79.8432C97.4332 79.537 97.5712 79.2669 97.8114 79.0327L98.8439 80.0653L98.7779 80.1373C98.6698 80.2454 98.5317 80.2934 98.3636 80.2814C98.1956 80.2694 98.0335 80.1794 97.8714 80.0173L97.7993 80.0893L98.9099 81.1999L98.982 81.1279C98.7959 80.9418 98.6998 80.7677 98.6998 80.6056C98.6998 80.4435 98.7479 80.3114 98.8499 80.2154L98.922 80.1493L99.8885 81.1159L99.8464 81.1579C99.5763 81.428 99.3122 81.5661 99.048 81.5661C98.7899 81.5721 98.5738 81.4941 98.4117 81.344L98.3336 81.422L99.036 82.1244L101.191 79.9693L101.113 79.8912L100.861 80.1433L98.7839 78.0662L99.042 77.8141L98.964 77.736L96.7308 79.9512Z" fill="#CFAA8A"/>
<path fill-rule="evenodd" clip-rule="evenodd" d="M101.041 23.7667C100.783 23.5506 100.459 23.6406 100.063 24.0369L98.5317 25.5677L97.9915 25.0274L98.4957 21.8757L97.4332 22.9383C96.9769 23.3885 96.8929 23.7547 97.169 24.0369L97.091 24.1149L96.2265 23.2504L96.3045 23.1724C96.4426 23.2925 96.5927 23.3225 96.7608 23.2624C96.9289 23.2024 97.085 23.1004 97.223 22.9623L98.5317 21.6536L98.5918 21.2994L98.3817 21.0893L98.4597 21.0112L99.7504 22.3019L99.3962 24.5111L99.9425 23.9648C100.165 23.7427 100.297 23.5506 100.345 23.3765C100.393 23.2084 100.351 23.0583 100.225 22.9323L100.147 22.8542L100.225 22.7762L101.119 23.6707L101.041 23.7667ZM101.263 28.2992L102.092 27.4707L102.02 27.3987C101.743 27.5908 101.455 27.6688 101.155 27.6328C100.855 27.5968 100.579 27.4587 100.345 27.2186L101.377 26.186L101.443 26.2521C101.551 26.3601 101.599 26.4982 101.587 26.6663C101.575 26.8344 101.485 26.9965 101.323 27.1585L101.395 27.2306L102.506 26.12L102.434 26.0479C102.248 26.24 102.074 26.3301 101.912 26.3301C101.749 26.3301 101.617 26.2821 101.521 26.18L101.455 26.114L102.422 25.1475L102.464 25.1895C102.734 25.4596 102.872 25.7238 102.872 25.9879C102.872 26.246 102.8 26.4622 102.65 26.6243L102.728 26.7023L103.43 25.9999L101.275 23.8448L101.197 23.9228L101.449 24.1749L99.3722 26.2521L99.1201 25.9999L99.042 26.078L101.263 28.2992Z" fill="#CFAA8A"/>
<path fill-rule="evenodd" clip-rule="evenodd" d="M21.1861 47.2996C21.3842 47.6838 21.8525 48.032 22.5849 48.3442L26.3249 49.947V51.2377L23.8275 52.0662L26.3249 53.2308V54.4915L21.1921 56.2985V56.7127H21V53.5009H21.1861V53.8791L24.6139 52.6605L23.5514 52.1622L21.1861 52.9546V53.3389H21V50.1031H21.1861V50.5414L24.4819 49.4368C23.1612 48.8785 22.4408 48.5783 22.3267 48.5423C22.2127 48.5063 22.0746 48.4882 21.9125 48.4882C21.6904 48.4882 21.5163 48.5363 21.3962 48.6263C21.2761 48.7224 21.2041 48.9025 21.1861 49.1666H21V47.2876H21.1861V47.2996Z" fill="#CFAA8A"/>
<path fill-rule="evenodd" clip-rule="evenodd" d="M71.085 102.301C71.091 102.823 71.2951 103.226 71.6973 103.508C72.0995 103.79 72.5077 103.934 72.922 103.934C73.1201 103.934 73.2822 103.88 73.4022 103.772C73.5283 103.664 73.5883 103.526 73.5883 103.352C73.5883 103.22 73.5463 103.111 73.4743 103.027C73.3962 102.943 73.2461 102.841 73.024 102.715C72.2376 102.277 71.7213 101.965 71.4692 101.773C71.217 101.581 71.043 101.383 70.9469 101.166C70.8509 100.95 70.8028 100.704 70.8028 100.422C70.8028 99.9898 70.9169 99.6296 71.151 99.3415C71.3791 99.0533 71.6973 98.8432 72.0875 98.7111C72.4837 98.579 72.8379 98.513 73.1621 98.513C73.6604 98.513 74.1226 98.6811 74.5609 99.0173L75.2752 98.459V100.698H75.0711V100.674C75.0711 100.308 74.9991 99.9958 74.861 99.7437C74.7229 99.4915 74.5068 99.2634 74.2127 99.0653C73.9185 98.8672 73.6183 98.7652 73.3062 98.7652C73.03 98.7652 72.8079 98.8252 72.6338 98.9392C72.4657 99.0533 72.3757 99.2034 72.3757 99.3895C72.3757 99.4975 72.4117 99.5996 72.4777 99.6896C72.5498 99.7857 72.6458 99.8698 72.7599 99.9478C72.8799 100.026 73.1561 100.176 73.5823 100.404C74.5789 100.926 75.0771 101.557 75.0771 102.289C75.0771 102.817 74.885 103.262 74.4948 103.61C74.1046 103.964 73.6243 104.138 73.036 104.138C72.8439 104.138 72.6338 104.114 72.4117 104.066C72.1896 104.018 71.9254 103.898 71.6193 103.712L70.8869 104.264V102.295H71.085V102.301Z" fill="#CFAA8A"/>
<path fill-rule="evenodd" clip-rule="evenodd" d="M119.675 54.5095V49.2026H119.861V49.809H124.808V49.2026H124.994V54.3354H123.325V54.1553C123.703 54.1373 124.045 53.9692 124.352 53.657C124.658 53.3449 124.814 52.8646 124.814 52.2163V52.1202H122.509V52.2823C122.509 52.5224 122.605 52.7385 122.797 52.9306C122.989 53.1227 123.307 53.2188 123.757 53.2188V53.3869H121.11V53.2188C121.494 53.2188 121.788 53.1287 122.004 52.9487C122.22 52.7686 122.323 52.5464 122.323 52.2883V52.1262H119.867C119.867 52.6905 120.023 53.1768 120.341 53.585C120.66 53.9872 121.092 54.2394 121.644 54.3354V54.5035H119.675V54.5095Z" fill="#CFAA8A"/>
</g>
<defs>
<clipPath id="clip0_275_2257">
<rect width="144" height="104" fill="white"/>
</clipPath>
</defs>
</svg>
