<svg width="121" height="170" viewBox="0 0 121 170" fill="none" xmlns="http://www.w3.org/2000/svg">
<rect width="121" height="170" rx="16.6584" fill="url(#paint0_linear_243_1879)"/>
<path d="M32.6761 26.8196H35.7264V40H32.6761V26.8196ZM26.6884 40H23.6381V26.8196H26.6884V40ZM32.902 34.5961H26.4625V32.0165H32.902V34.5961ZM44.8657 40V38.0229L44.6774 37.5899V34.05C44.6774 33.4224 44.4829 32.9328 44.0937 32.5813C43.7171 32.2299 43.1334 32.0541 42.3426 32.0541C41.8029 32.0541 41.2694 32.142 40.7422 32.3177C40.2275 32.4809 39.7881 32.7069 39.4241 32.9956L38.3697 30.9432C38.922 30.5541 39.5873 30.2528 40.3656 30.0394C41.1438 29.826 41.9347 29.7193 42.738 29.7193C44.282 29.7193 45.4808 30.0833 46.3344 30.8114C47.188 31.5395 47.6148 32.6755 47.6148 34.2195V40H44.8657ZM41.7778 40.1506C40.9869 40.1506 40.3091 40.0188 39.7442 39.7552C39.1793 39.4791 38.7463 39.1088 38.445 38.6443C38.1437 38.1799 37.9931 37.6589 37.9931 37.0815C37.9931 36.479 38.1375 35.9517 38.4262 35.4998C38.7274 35.0479 39.1982 34.6965 39.8384 34.4454C40.4785 34.1818 41.3133 34.05 42.3426 34.05H45.0352V35.7635H42.6627C41.9723 35.7635 41.4953 35.8764 41.2317 36.1024C40.9807 36.3283 40.8551 36.6108 40.8551 36.9497C40.8551 37.3263 40.9995 37.6275 41.2882 37.8535C41.5895 38.0669 41.9974 38.1736 42.5121 38.1736C43.0016 38.1736 43.441 38.0606 43.8301 37.8347C44.2193 37.5962 44.5017 37.251 44.6774 36.7991L45.1293 38.1547C44.9159 38.8075 44.5268 39.3033 43.9619 39.6422C43.3971 39.9812 42.669 40.1506 41.7778 40.1506ZM50.1664 40V29.8699H58.2817V32.2801H52.4259L53.0849 31.6399V40H50.1664ZM65.8072 40.1506C64.9536 40.1506 64.2067 39.9623 63.5665 39.5858C62.9263 39.2092 62.4242 38.638 62.0602 37.8723C61.7087 37.094 61.533 36.1149 61.533 34.935C61.533 33.7425 61.7025 32.7634 62.0414 31.9976C62.3803 31.2319 62.8699 30.6608 63.5101 30.2842C64.1502 29.9076 64.916 29.7193 65.8072 29.7193C66.7612 29.7193 67.6148 29.939 68.368 30.3783C69.1337 30.8051 69.7362 31.4077 70.1755 32.1859C70.6274 32.9642 70.8534 33.8805 70.8534 34.935C70.8534 36.002 70.6274 36.9246 70.1755 37.7029C69.7362 38.4811 69.1337 39.0837 68.368 39.5104C67.6148 39.9372 66.7612 40.1506 65.8072 40.1506ZM59.8195 43.6528V29.8699H62.6251V31.9411L62.5686 34.9538L62.7569 37.9476V43.6528H59.8195ZM65.2988 37.7405C65.7884 37.7405 66.2214 37.6275 66.598 37.4016C66.9872 37.1756 67.2947 36.8555 67.5206 36.4413C67.7591 36.0145 67.8784 35.5124 67.8784 34.935C67.8784 34.345 67.7591 33.8429 67.5206 33.4286C67.2947 33.0144 66.9872 32.6943 66.598 32.4684C66.2214 32.2424 65.7884 32.1294 65.2988 32.1294C64.8093 32.1294 64.3699 32.2424 63.9808 32.4684C63.5916 32.6943 63.2841 33.0144 63.0582 33.4286C62.8322 33.8429 62.7192 34.345 62.7192 34.935C62.7192 35.5124 62.8322 36.0145 63.0582 36.4413C63.2841 36.8555 63.5916 37.1756 63.9808 37.4016C64.3699 37.6275 64.8093 37.7405 65.2988 37.7405ZM77.8641 40.1506C76.7093 40.1506 75.6925 39.9247 74.8138 39.4728C73.9477 39.0209 73.2761 38.4058 72.7991 37.6275C72.3221 36.8367 72.0836 35.9392 72.0836 34.935C72.0836 33.9182 72.3158 33.0207 72.7803 32.2424C73.2573 31.4516 73.9038 30.8365 74.7197 30.3972C75.5356 29.9453 76.4582 29.7193 77.4876 29.7193C78.4792 29.7193 79.3705 29.9327 80.1613 30.3595C80.9647 30.7737 81.5986 31.3763 82.063 32.1671C82.5275 32.9454 82.7597 33.8805 82.7597 34.9726C82.7597 35.0856 82.7534 35.2174 82.7409 35.368C82.7283 35.5061 82.7158 35.6379 82.7032 35.7635H74.4749V34.05H81.1592L80.0295 34.5584C80.0295 34.0312 79.9228 33.573 79.7094 33.1839C79.496 32.7947 79.201 32.4935 78.8244 32.2801C78.4478 32.0541 78.0085 31.9411 77.5064 31.9411C77.0043 31.9411 76.5587 32.0541 76.1695 32.2801C75.7929 32.4935 75.498 32.801 75.2846 33.2027C75.0712 33.5918 74.9645 34.0563 74.9645 34.5961V35.0479C74.9645 35.6003 75.0837 36.0898 75.3222 36.5166C75.5733 36.9309 75.9185 37.251 76.3578 37.4769C76.8097 37.6903 77.3369 37.797 77.9395 37.797C78.4792 37.797 78.95 37.7154 79.3516 37.5522C79.7659 37.389 80.1425 37.1443 80.4814 36.8179L82.0442 38.5125C81.5797 39.0397 80.996 39.4477 80.2931 39.7364C79.5901 40.0126 78.7805 40.1506 77.8641 40.1506ZM85.0112 40V29.8699H90.1892C91.4571 29.8699 92.4487 30.1022 93.1642 30.5666C93.8797 31.0185 94.2375 31.6587 94.2375 32.4872C94.2375 33.3157 93.8986 33.9684 93.2207 34.4454C92.5554 34.9099 91.6705 35.1421 90.5658 35.1421L90.8671 34.4642C92.0973 34.4642 93.0136 34.6902 93.6161 35.1421C94.2312 35.594 94.5388 36.253 94.5388 37.1191C94.5388 38.0104 94.1998 38.7133 93.522 39.228C92.8442 39.7427 91.8086 40 90.4152 40H85.0112ZM87.7038 38.0041H90.1704C90.7102 38.0041 91.1119 37.9162 91.3755 37.7405C91.6516 37.5522 91.7897 37.2698 91.7897 36.8932C91.7897 36.5041 91.6642 36.2216 91.4131 36.0459C91.1621 35.8576 90.7667 35.7635 90.2269 35.7635H87.7038V38.0041ZM87.7038 34.0312H89.9256C90.4403 34.0312 90.8232 33.937 91.0742 33.7487C91.3378 33.5605 91.4696 33.2906 91.4696 32.9391C91.4696 32.5751 91.3378 32.3052 91.0742 32.1294C90.8232 31.9537 90.4403 31.8658 89.9256 31.8658H87.7038V34.0312ZM26.8391 63.1883C27.7931 63.1883 28.6467 63.0628 29.3998 62.8117C30.1655 62.5481 30.7681 62.1778 31.2074 61.7008C31.6593 61.2112 31.8853 60.6401 31.8853 59.9873C31.8853 59.2216 31.5652 58.6191 30.925 58.1798C30.2848 57.7279 29.4061 57.5019 28.2889 57.5019L28.2136 58.0856C28.8538 58.0856 29.4312 57.9789 29.9459 57.7655C30.4605 57.5396 30.8622 57.232 31.1509 56.8429C31.4522 56.4538 31.6028 56.0144 31.6028 55.5249C31.6028 54.9098 31.3832 54.3888 30.9438 53.962C30.517 53.5352 29.927 53.2089 29.1739 52.9829C28.4207 52.757 27.5734 52.6566 26.632 52.6817C25.9918 52.6942 25.3453 52.7821 24.6926 52.9453C24.0398 53.1085 23.3808 53.3281 22.7155 53.6043L23.431 55.6378C23.9959 55.4119 24.5482 55.2424 25.088 55.1294C25.6277 55.0039 26.1487 54.9411 26.6508 54.9411C27.0901 54.9411 27.4542 54.9851 27.7429 55.073C28.0316 55.1483 28.2513 55.2612 28.4019 55.4119C28.5525 55.5625 28.6278 55.7445 28.6278 55.9579C28.6278 56.1588 28.5651 56.3345 28.4395 56.4851C28.3266 56.6232 28.1508 56.7299 27.9123 56.8052C27.6738 56.8805 27.3851 56.9182 27.0462 56.9182H25.2198V58.7446H27.291C27.8182 58.7446 28.2199 58.8325 28.496 59.0082C28.7722 59.1714 28.9103 59.4162 28.9103 59.7426C28.9103 59.9936 28.8224 60.207 28.6467 60.3828C28.4709 60.5585 28.2136 60.6966 27.8747 60.797C27.5483 60.8849 27.1592 60.9288 26.7073 60.9288C26.0796 60.9288 25.4583 60.866 24.8432 60.7405C24.2407 60.6024 23.6821 60.4079 23.1674 60.1568L22.3766 62.2092C23.0293 62.5355 23.7386 62.7803 24.5043 62.9435C25.2825 63.1067 26.0608 63.1883 26.8391 63.1883ZM40.0481 63V61.0229L39.8598 60.5899V57.05C39.8598 56.4224 39.6653 55.9328 39.2761 55.5813C38.8995 55.2299 38.3158 55.0541 37.525 55.0541C36.9853 55.0541 36.4518 55.142 35.9246 55.3177C35.4099 55.4809 34.9705 55.7069 34.6065 55.9956L33.5521 53.9432C34.1044 53.5541 34.7697 53.2528 35.548 53.0394C36.3262 52.826 37.1171 52.7193 37.9204 52.7193C39.4644 52.7193 40.6632 53.0833 41.5168 53.8114C42.3704 54.5395 42.7972 55.6755 42.7972 57.2195V63H40.0481ZM36.9602 63.1506C36.1693 63.1506 35.4915 63.0188 34.9266 62.7552C34.3617 62.4791 33.9287 62.1088 33.6274 61.6443C33.3261 61.1799 33.1755 60.6589 33.1755 60.0815C33.1755 59.479 33.3199 58.9517 33.6086 58.4998C33.9098 58.0479 34.3806 57.6965 35.0208 57.4454C35.6609 57.1818 36.4957 57.05 37.525 57.05H40.2176V58.7635H37.8451C37.1547 58.7635 36.6777 58.8764 36.4141 59.1024C36.1631 59.3283 36.0375 59.6108 36.0375 59.9497C36.0375 60.3263 36.1819 60.6275 36.4706 60.8535C36.7719 61.0669 37.1798 61.1736 37.6945 61.1736C38.184 61.1736 38.6234 61.0606 39.0125 60.8347C39.4017 60.5962 39.6841 60.251 39.8598 59.7991L40.3117 61.1547C40.0983 61.8075 39.7092 62.3033 39.1443 62.6422C38.5795 62.9812 37.8514 63.1506 36.9602 63.1506Z" fill="white"/>
<path d="M29.4085 137.753C28.3164 137.753 27.3435 137.533 26.4899 137.094C25.6364 136.642 24.9648 136.021 24.4752 135.23C23.9982 134.439 23.7597 133.542 23.7597 132.538C23.7597 131.521 23.9982 130.623 24.4752 129.845C24.9648 129.054 25.6364 128.439 26.4899 128C27.3435 127.548 28.3164 127.322 29.4085 127.322C30.4754 127.322 31.4043 127.548 32.1952 128C32.986 128.439 33.5697 129.073 33.9463 129.901L31.6679 131.125C31.4043 130.648 31.0717 130.297 30.67 130.071C30.2809 129.845 29.8541 129.732 29.3896 129.732C28.8875 129.732 28.4356 129.845 28.0339 130.071C27.6322 130.297 27.3121 130.617 27.0736 131.031C26.8477 131.445 26.7347 131.948 26.7347 132.538C26.7347 133.127 26.8477 133.63 27.0736 134.044C27.3121 134.458 27.6322 134.778 28.0339 135.004C28.4356 135.23 28.8875 135.343 29.3896 135.343C29.8541 135.343 30.2809 135.236 30.67 135.023C31.0717 134.797 31.4043 134.439 31.6679 133.95L33.9463 135.192C33.5697 136.008 32.986 136.642 32.1952 137.094C31.4043 137.533 30.4754 137.753 29.4085 137.753ZM40.5545 137.753C39.3997 137.753 38.3829 137.527 37.5042 137.075C36.6381 136.623 35.9665 136.008 35.4895 135.23C35.0125 134.439 34.774 133.542 34.774 132.538C34.774 131.521 35.0062 130.623 35.4707 129.845C35.9477 129.054 36.5942 128.439 37.4101 128C38.226 127.548 39.1486 127.322 40.178 127.322C41.1696 127.322 42.0609 127.535 42.8517 127.962C43.6551 128.376 44.289 128.979 44.7534 129.77C45.2179 130.548 45.4501 131.483 45.4501 132.575C45.4501 132.688 45.4438 132.82 45.4313 132.971C45.4187 133.109 45.4062 133.24 45.3936 133.366H37.1653V131.653H43.8496L42.7199 132.161C42.7199 131.634 42.6132 131.176 42.3998 130.786C42.1864 130.397 41.8914 130.096 41.5148 129.883C41.1382 129.657 40.6989 129.544 40.1968 129.544C39.6947 129.544 39.2491 129.657 38.8599 129.883C38.4833 130.096 38.1883 130.404 37.975 130.805C37.7616 131.194 37.6549 131.659 37.6549 132.199V132.65C37.6549 133.203 37.7741 133.692 38.0126 134.119C38.2637 134.533 38.6089 134.853 39.0482 135.079C39.5001 135.293 40.0273 135.4 40.6299 135.4C41.1696 135.4 41.6403 135.318 42.042 135.155C42.4563 134.992 42.8329 134.747 43.1718 134.42L44.7346 136.115C44.2701 136.642 43.6864 137.05 42.9835 137.339C42.2805 137.615 41.4709 137.753 40.5545 137.753ZM54.8755 137.603L51.4863 132.801L53.8776 131.389L58.3401 137.603H54.8755ZM47.7016 137.603V127.472H50.639V137.603H47.7016ZM49.7728 133.761V131.408H53.3127V133.761H49.7728ZM54.16 132.876L51.411 132.575L54.9697 127.472H58.0953L54.16 132.876ZM60.5869 141.406C60.0597 141.406 59.5388 141.324 59.0241 141.161C58.5094 140.998 58.0889 140.772 57.7626 140.483L58.8358 138.393C59.0618 138.594 59.3191 138.751 59.6078 138.864C59.9091 138.977 60.2041 139.034 60.4928 139.034C60.907 139.034 61.2334 138.933 61.4719 138.732C61.7229 138.544 61.9489 138.224 62.1497 137.772L62.677 136.529L62.9029 136.209L66.5369 127.472H69.3613L64.7858 138.224C64.4594 139.04 64.0829 139.68 63.6561 140.144C63.2418 140.609 62.7774 140.935 62.2627 141.124C61.7606 141.312 61.202 141.406 60.5869 141.406ZM62.3192 137.998L57.8002 127.472H60.8317L64.3339 135.946L62.3192 137.998ZM70.7783 137.603V127.472H73.6968V131.427H78.1028V127.472H81.0402V137.603H78.1028V133.818H73.6968V137.603H70.7783ZM90.8188 136.285V129.883H87.5049L87.4484 131.182C87.4233 131.722 87.3919 132.236 87.3542 132.726C87.3166 133.215 87.2413 133.661 87.1283 134.063C87.0279 134.452 86.8772 134.784 86.6764 135.061C86.4755 135.324 86.2057 135.506 85.8667 135.607L82.9671 135.192C83.3311 135.192 83.6261 135.086 83.852 134.872C84.078 134.646 84.2537 134.339 84.3792 133.95C84.5048 133.548 84.5989 133.096 84.6617 132.594C84.7244 132.079 84.7684 131.54 84.7935 130.975L84.9253 127.472H93.7561V136.285H90.8188ZM82.6281 139.787V135.192H95.206V139.787H92.4757V137.603H85.3584V139.787H82.6281Z" fill="white"/>
<path d="M67.7873 118.363C63.2163 118.363 58.6767 117.769 54.1684 116.579C49.7227 115.327 45.9031 113.573 42.7097 111.319L48.7208 99.6727C51.2255 101.489 54.1058 102.929 57.3618 103.993C60.6804 105.058 64.0303 105.59 67.4116 105.59C71.2311 105.59 74.2367 104.838 76.4282 103.336C78.6198 101.833 79.7155 99.7353 79.7155 97.0428C79.7155 95.3522 79.2772 93.8494 78.4006 92.5345C77.524 91.2196 75.9586 90.2177 73.7044 89.529C71.5129 88.8402 68.4134 88.4958 64.406 88.4958H47.5938L50.975 51.49H91.0802V63.7H56.4225L64.3121 56.7497L61.964 83.1422L54.0745 76.1918H67.9751C74.4871 76.1918 79.7155 77.0998 83.6603 78.9156C87.6677 80.6689 90.5793 83.0795 92.3952 86.1477C94.211 89.2159 95.1189 92.691 95.1189 96.5732C95.1189 100.455 94.1484 104.056 92.2073 107.374C90.2662 110.63 87.2607 113.292 83.1907 115.358C79.1833 117.362 74.0488 118.363 67.7873 118.363Z" fill="white"/>
<defs>
<linearGradient id="paint0_linear_243_1879" x1="60.5" y1="0" x2="60.5" y2="170" gradientUnits="userSpaceOnUse">
<stop stop-color="#FF4E50"/>
<stop offset="1" stop-color="#C03F41"/>
</linearGradient>
</defs>
</svg>
