<svg width="775" height="898" viewBox="0 0 775 898" fill="none" xmlns="http://www.w3.org/2000/svg">
<g clip-path="url(#clip0_703_2213)">
<path d="M1276 635.99C1248.82 781.054 1172.61 912.369 1060.13 1007.92C947.647 1103.48 805.74 1157.46 658.19 1160.83C510.641 1164.2 366.417 1116.75 249.693 1026.43C132.969 936.108 50.8399 808.41 17.0708 664.737C-16.6983 521.064 -0.0544436 370.15 64.2126 237.289C128.48 104.428 236.464 -2.30367 370.065 -65.0166C503.666 -127.729 654.765 -142.612 798.034 -107.169C941.303 -71.7265 1068.03 11.8869 1156.99 129.656L999.141 248.88C937.533 167.313 849.758 109.402 750.53 84.8544C651.302 60.3069 546.651 70.6144 454.119 114.049C361.587 157.484 286.797 231.407 242.286 323.426C197.774 415.445 186.247 519.968 209.635 619.476C233.024 718.984 289.907 807.428 370.75 869.984C451.592 932.54 551.482 965.405 653.674 963.072C755.867 960.738 854.152 923.347 932.055 857.167C1009.96 790.986 1062.75 700.037 1081.57 599.566L1276 635.99Z" fill="url(#paint0_linear_703_2213)"/>
<path d="M1096.63 614.361C1078.43 711.522 1027.38 799.473 952.046 863.473C876.71 927.473 781.664 963.631 682.839 965.888C584.014 968.144 487.417 936.362 409.238 875.868C331.059 815.373 276.051 729.844 253.434 633.616C230.816 537.387 241.964 436.308 285.008 347.322C328.052 258.335 400.377 186.849 489.86 144.845C579.343 102.842 680.545 92.8738 776.503 116.612C872.461 140.351 957.343 196.353 1016.92 275.232L911.2 355.085C869.936 300.453 811.147 261.666 744.686 245.225C678.226 228.784 608.133 235.687 546.157 264.779C484.182 293.871 434.089 343.382 404.277 405.014C374.464 466.646 366.743 536.653 382.408 603.301C398.073 669.949 436.172 729.186 490.319 771.085C544.465 812.983 611.368 834.996 679.815 833.433C748.261 831.87 814.09 806.826 866.267 762.5C918.445 718.174 953.8 657.259 966.406 589.966L1096.63 614.361Z" fill="url(#paint1_linear_703_2213)"/>
<path d="M918.708 583.217C908.108 639.8 878.38 691.02 834.507 728.292C790.634 765.563 735.282 786.62 677.73 787.935C620.178 789.249 563.923 770.74 518.394 735.51C472.865 700.28 440.83 650.471 427.659 594.43C414.487 538.39 420.979 479.525 446.046 427.702C471.114 375.879 513.234 334.248 565.345 309.787C617.457 285.325 676.394 279.52 732.277 293.345C788.159 307.17 837.592 339.783 872.288 385.72L810.719 432.223C786.689 400.408 752.452 377.82 713.748 368.245C675.043 358.67 634.224 362.69 598.131 379.632C562.039 396.574 532.866 425.408 515.505 461.301C498.143 497.193 493.646 537.963 502.769 576.776C511.892 615.59 534.079 650.088 565.613 674.488C597.146 698.888 636.108 711.707 675.969 710.797C715.829 709.887 754.166 695.303 784.552 669.488C814.939 643.674 835.528 608.2 842.87 569.01L918.708 583.217Z" fill="url(#paint2_linear_703_2213)"/>
</g>
<defs>
<linearGradient id="paint0_linear_703_2213" x1="643.5" y1="-126" x2="643.5" y2="1161" gradientUnits="userSpaceOnUse">
<stop stop-color="#44232E"/>
<stop offset="1" stop-opacity="0"/>
</linearGradient>
<linearGradient id="paint1_linear_703_2213" x1="673" y1="104" x2="673" y2="966" gradientUnits="userSpaceOnUse">
<stop stop-color="#44232E"/>
<stop offset="1" stop-opacity="0"/>
</linearGradient>
<linearGradient id="paint2_linear_703_2213" x1="672" y1="286" x2="672" y2="788" gradientUnits="userSpaceOnUse">
<stop stop-color="#44232E"/>
<stop offset="1" stop-opacity="0"/>
</linearGradient>
<clipPath id="clip0_703_2213">
<rect width="775" height="898" fill="white"/>
</clipPath>
</defs>
</svg>
