<svg width="104" height="32" viewBox="0 0 104 32" fill="none" xmlns="http://www.w3.org/2000/svg">
<path d="M99.8333 31.6548L3.85251 31.6548C1.73929 31.6548 0.015625 29.9235 0.015625 27.8128L0.015625 4.74517C0.015625 2.62916 1.74462 0.903229 3.85251 0.903229L99.8333 0.903229C101.946 0.903229 103.67 2.63451 103.67 4.74517L103.67 27.8128C103.675 29.9235 101.946 31.6548 99.8333 31.6548Z" fill="#000204"/>
<path d="M99.8334 1.51171C101.61 1.51171 103.057 2.95978 103.057 4.73915L103.057 27.8068C103.057 29.5862 101.61 31.0342 99.8334 31.0342L3.85263 31.0342C2.0756 31.0342 0.629431 29.5862 0.629431 27.8068L0.629431 4.7445C0.629431 2.96513 2.0756 1.51705 3.85263 1.51705L99.8334 1.51705V1.51171ZM99.8334 0.897217L3.85263 0.897217C1.73941 0.897217 0.0157471 2.62849 0.0157471 4.73915L0.0157471 27.8068C0.0157471 29.9228 1.74475 31.6487 3.85263 31.6487L99.8334 31.6487C101.947 31.6487 103.67 29.9175 103.67 27.8068L103.67 4.7445C103.676 2.62849 101.947 0.897217 99.8334 0.897217Z" fill="#A6A6A6"/>
<path d="M52.334 17.6223C50.5303 17.6223 49.0575 18.9955 49.0575 20.8925C49.0575 22.7734 50.5303 24.1627 52.334 24.1627C54.1377 24.1627 55.6106 22.7734 55.6106 20.8925C55.6106 18.9955 54.1377 17.6223 52.334 17.6223ZM52.334 22.8749C51.3468 22.8749 50.493 22.0573 50.493 20.8925C50.493 19.7169 51.3468 18.91 52.334 18.91C53.3213 18.91 54.1751 19.7169 54.1751 20.8925C54.1751 22.0573 53.3213 22.8749 52.334 22.8749ZM45.1832 17.6223C43.3795 17.6223 41.9067 18.9955 41.9067 20.8925C41.9067 22.7734 43.3795 24.1627 45.1832 24.1627C46.9869 24.1627 48.4598 22.7734 48.4598 20.8925C48.4598 18.9955 46.9869 17.6223 45.1832 17.6223ZM45.1832 22.8749C44.196 22.8749 43.3422 22.0573 43.3422 20.8925C43.3422 19.7169 44.196 18.91 45.1832 18.91C46.1705 18.91 47.0243 19.7169 47.0243 20.8925C47.0243 22.0573 46.1705 22.8749 45.1832 22.8749ZM36.6717 18.6268L36.6717 20.0161L39.9856 20.0161C39.8842 20.7963 39.628 21.368 39.2331 21.7634C38.7529 22.2444 37.9951 22.7787 36.6717 22.7787C34.6331 22.7787 33.0322 21.1329 33.0322 19.0864C33.0322 17.0452 34.6278 15.3941 36.6717 15.3941C37.771 15.3941 38.5768 15.8269 39.1691 16.3826L40.1457 15.4047C39.3185 14.6139 38.2139 14.0048 36.6717 14.0048C33.8754 14.0048 31.5273 16.2864 31.5273 19.081C31.5273 21.881 33.8754 24.1573 36.6717 24.1573C38.1819 24.1573 39.3185 23.6604 40.2097 22.7306C41.1276 21.8115 41.4104 20.5238 41.4104 19.4871C41.4104 19.1665 41.3837 18.8673 41.3357 18.6215L36.6717 18.6215V18.6268ZM71.4651 19.7062C71.1929 18.9742 70.3658 17.6276 68.6688 17.6276C66.9878 17.6276 65.5897 18.9528 65.5897 20.8978C65.5897 22.7306 66.9771 24.168 68.8289 24.168C70.3231 24.168 71.1929 23.2489 71.5505 22.7199L70.4351 21.9772C70.0616 22.5222 69.5546 22.8802 68.8289 22.8802C68.0978 22.8802 67.5802 22.5436 67.244 21.8917L71.6092 20.0856L71.4651 19.7062ZM67.0092 20.7963C66.9718 19.5352 67.9857 18.8887 68.7168 18.8887C69.2878 18.8887 69.7681 19.1719 69.9282 19.5833L67.0092 20.7963ZM63.4604 23.9649H64.8959L64.8959 14.3521L63.4604 14.3521L63.4604 23.9649ZM61.1124 18.3543H61.0644C60.7442 17.9696 60.1252 17.6223 59.3461 17.6223C57.7131 17.6223 56.2189 19.0597 56.2189 20.9031C56.2189 22.7359 57.7131 24.1627 59.3461 24.1627C60.1252 24.1627 60.7442 23.8153 61.0644 23.4199H61.1124V23.8901C61.1124 25.1405 60.4454 25.8084 59.3674 25.8084C58.4869 25.8084 57.9426 25.1779 57.7238 24.6436L56.4751 25.1619C56.8326 26.0275 57.7878 27.0962 59.3674 27.0962C61.0484 27.0962 62.4732 26.1077 62.4732 23.6924L62.4732 17.82L61.1124 17.82V18.3543ZM59.4635 22.8749C58.4762 22.8749 57.6438 22.0466 57.6438 20.9031C57.6438 19.749 58.4709 18.91 59.4635 18.91C60.44 18.91 61.2085 19.7543 61.2085 20.9031C61.2085 22.0466 60.44 22.8749 59.4635 22.8749ZM78.1836 14.3521L74.7523 14.3521L74.7523 23.9649L76.1825 23.9649V20.3207H78.1836C79.7739 20.3207 81.3321 19.1719 81.3321 17.3337C81.3321 15.4956 79.7739 14.3521 78.1836 14.3521ZM78.221 18.9849H76.1825V15.6879L78.221 15.6879C79.2936 15.6879 79.9019 16.575 79.9019 17.3337C79.9019 18.0818 79.2936 18.9849 78.221 18.9849ZM87.0794 17.6062C86.0442 17.6062 84.9662 18.0658 84.5233 19.0757L85.7933 19.61C86.0655 19.0757 86.5725 18.9047 87.1008 18.9047C87.8425 18.9047 88.595 19.3482 88.6056 20.139L88.6056 20.2406C88.3442 20.0909 87.7892 19.8719 87.1114 19.8719C85.74 19.8719 84.3472 20.6253 84.3472 22.036C84.3472 23.3237 85.4732 24.152 86.7326 24.152C87.6984 24.152 88.2267 23.7191 88.5629 23.2115H88.611V23.9543H89.9931V20.2673C89.9931 18.5574 88.7177 17.6062 87.0794 17.6062ZM86.9033 22.8749C86.4337 22.8749 85.7773 22.6398 85.7773 22.0573C85.7773 21.3146 86.5938 21.0314 87.2982 21.0314C87.9279 21.0314 88.2268 21.165 88.6056 21.352C88.4989 22.2444 87.7305 22.8749 86.9033 22.8749ZM95.0307 17.8146L93.3871 21.9825H93.339L91.6367 17.8146L90.0945 17.8146L92.6506 23.639L91.1938 26.8771L92.688 26.8771L96.6263 17.8146H95.0307ZM82.1272 23.9649L83.5574 23.9649L83.5574 14.3521L82.1272 14.3521L82.1272 23.9649Z" fill="white"/>
<path d="M8.02575 6.69489C7.80162 6.93 7.66821 7.2987 7.66821 7.77426L7.66821 24.7771C7.66821 25.2527 7.80162 25.6214 8.02575 25.8565L8.08445 25.9099L17.5993 16.3826V16.2703V16.1581L8.08445 6.63077L8.02575 6.69489Z" fill="url(#paint0_linear_2126_17311)"/>
<path d="M20.7688 19.5672L17.599 16.3932V16.281V16.1688L20.7688 12.9948L20.8382 13.0375L24.5951 15.1749C25.6677 15.784 25.6677 16.7832 24.5951 17.3977L20.8382 19.5351L20.7688 19.5672Z" fill="url(#paint1_linear_2126_17311)"/>
<path d="M20.8385 19.5244L17.5939 16.2756L8.02576 25.8564C8.37796 26.2305 8.96497 26.2786 9.62135 25.9045L20.8385 19.5244Z" fill="url(#paint2_linear_2126_17311)"/>
<path d="M20.8385 13.0269L9.62135 6.64686C8.96497 6.27282 8.37796 6.32091 8.02576 6.69495L17.5939 16.2758L20.8385 13.0269Z" fill="url(#paint3_linear_2126_17311)"/>
<path opacity="0.2" d="M20.769 19.4551L9.62122 25.7978C8.99686 26.1505 8.44188 26.1291 8.08434 25.8085L8.02563 25.8673L8.08434 25.9207C8.44188 26.2413 8.99686 26.268 9.62122 25.91L20.8384 19.5299L20.769 19.4551Z" fill="#181818"/>
<path opacity="0.12" d="M8.02563 25.7445C7.8015 25.5094 7.66809 25.1407 7.66809 24.6651V24.7773C7.66809 25.2529 7.8015 25.6216 8.02563 25.8567L8.08434 25.7979L8.02563 25.7445Z" fill="#181818"/>
<path opacity="0.12" d="M24.5951 17.2749L20.7689 19.455L20.8383 19.5244L24.5951 17.3871C25.1341 17.0825 25.4009 16.6817 25.4009 16.2756C25.3582 16.639 25.0807 16.997 24.5951 17.2749Z" fill="#181818"/>
<path opacity="0.25" d="M9.62134 6.75884L24.5953 15.2763C25.0809 15.5541 25.3531 15.9122 25.4011 16.2755C25.4011 15.8748 25.1343 15.4687 24.5953 15.1641L9.62134 6.64663C8.54872 6.03748 7.66821 6.5451 7.66821 7.77409V7.88631C7.67355 6.65731 8.54872 6.14969 9.62134 6.75884Z" fill="white"/>
<path d="M32.349 11.873H31.7833L31.7833 10.3287H32.2316C32.6318 9.98673 32.8239 9.39895 32.8186 8.56538L32.8186 6.28372L35.8924 6.28372L35.8924 10.3287H36.4047V11.873H35.839V10.8951L32.3436 10.8951V11.873H32.349ZM33.4109 8.56003C33.4216 9.29208 33.2722 9.87987 32.9733 10.3234L35.3 10.3234L35.3 6.84479L33.4056 6.84479L33.4056 8.56003H33.4109Z" fill="white" stroke="white" stroke-width="0.059883" stroke-miterlimit="10"/>
<path d="M41.026 10.2965C40.5724 10.7614 40.0121 10.9965 39.3344 10.9965C38.662 10.9965 38.0963 10.7614 37.6481 10.2965C37.1945 9.83164 36.9703 9.2599 36.9703 8.58662C36.9703 7.91335 37.1945 7.3416 37.6481 6.87672C38.1017 6.41184 38.662 6.17673 39.3344 6.17673C40.0014 6.17673 40.5671 6.41184 41.0207 6.87672C41.4743 7.34694 41.7037 7.91335 41.7037 8.58662C41.7091 9.2599 41.4796 9.83164 41.026 10.2965ZM38.0856 9.91179C38.4272 10.2591 38.8434 10.4301 39.3397 10.4301C39.8307 10.4301 40.2522 10.2591 40.5938 9.91179C40.9353 9.56447 41.1061 9.12631 41.1061 8.58662C41.1061 8.05228 40.9353 7.60877 40.5938 7.26145C40.2522 6.91412 39.836 6.74313 39.3397 6.74313C38.8488 6.74313 38.4272 6.91412 38.0856 7.26145C37.7441 7.60877 37.5733 8.04693 37.5733 8.58662C37.5733 9.12631 37.7495 9.56447 38.0856 9.91179Z" fill="white" stroke="white" stroke-width="0.059883" stroke-miterlimit="10"/>
<path d="M44.6867 10.9965C44.009 10.9965 43.438 10.7667 42.979 10.3072C42.5201 9.84767 42.2906 9.27593 42.2906 8.58662C42.2906 7.89732 42.5201 7.32557 42.979 6.86603C43.438 6.4065 44.009 6.17673 44.6867 6.17673C45.3804 6.17673 45.9461 6.42787 46.3783 6.93015L45.9674 7.33091C45.6526 6.94084 45.2257 6.74313 44.6867 6.74313C44.1851 6.74313 43.7582 6.91412 43.4166 7.25076C43.0698 7.59274 42.899 8.03625 42.899 8.58662C42.899 9.137 43.0698 9.5805 43.4166 9.92248C43.7635 10.2645 44.1851 10.4301 44.6867 10.4301C45.2417 10.4301 45.7113 10.2057 46.1009 9.76218L46.5118 10.1736C46.3036 10.4248 46.0368 10.6278 45.722 10.7774C45.4071 10.9217 45.0602 10.9965 44.6867 10.9965Z" fill="white" stroke="white" stroke-width="0.059883" stroke-miterlimit="10"/>
<path d="M48.9078 10.8949L48.3155 10.8949L48.3155 6.84986L47.0294 6.84986V6.28345L50.1939 6.28345V6.84986L48.9078 6.84986L48.9078 10.8949Z" fill="white" stroke="white" stroke-width="0.059883" stroke-miterlimit="10"/>
<path d="M54.2604 6.27823L52.5154 10.1683C52.2753 10.7186 51.9178 10.9911 51.4428 10.9911C51.2987 10.9911 51.1493 10.9591 50.9839 10.8896L51.1386 10.3392C51.24 10.3927 51.3414 10.4247 51.4482 10.4247C51.5869 10.4247 51.6936 10.398 51.7683 10.3446C51.8431 10.2912 51.9124 10.195 51.9765 10.0507L52.1419 9.682L50.589 6.27289L51.2827 6.27289L52.4194 8.92323H52.4461L53.5614 6.27289L54.2604 6.27289V6.27823Z" fill="white" stroke="white" stroke-width="0.059883" stroke-miterlimit="10"/>
<path d="M54.9326 10.8949L54.9326 6.28345L58.2679 6.28345L58.2679 10.8949L57.6755 10.8949L57.6755 6.84986L55.525 6.84986L55.525 10.8949H54.9326Z" fill="white" stroke="white" stroke-width="0.059883" stroke-miterlimit="10"/>
<path d="M59.3191 10.8949L59.3191 6.28345L59.9114 6.28345V8.26053L62.2168 8.26053V6.28345L62.8091 6.28345L62.8091 10.8949L62.2168 10.8949V8.8109L59.9114 8.8109V10.8949H59.3191Z" fill="white" stroke="white" stroke-width="0.059883" stroke-miterlimit="10"/>
<path d="M67.6281 10.2965C67.1745 10.7614 66.6141 10.9965 65.9364 10.9965C65.264 10.9965 64.6984 10.7614 64.2501 10.2965C63.7965 9.83164 63.5724 9.2599 63.5724 8.58662C63.5724 7.91335 63.7965 7.3416 64.2501 6.87672C64.7037 6.41184 65.264 6.17673 65.9364 6.17673C66.6035 6.17673 67.1691 6.41184 67.6227 6.87672C68.0763 7.34694 68.3058 7.91335 68.3058 8.58662C68.3058 9.2599 68.0817 9.83164 67.6281 10.2965ZM64.6877 9.91179C65.0292 10.2591 65.4455 10.4301 65.9418 10.4301C66.4381 10.4301 66.8543 10.2591 67.1958 9.91179C67.5373 9.56447 67.7081 9.12631 67.7081 8.58662C67.7081 8.05228 67.5373 7.60877 67.1958 7.26145C66.8543 6.91412 66.4381 6.74313 65.9418 6.74313C65.4455 6.74313 65.0292 6.91412 64.6877 7.26145C64.3462 7.60877 64.1754 8.04693 64.1754 8.58662C64.1754 9.12631 64.3462 9.56447 64.6877 9.91179Z" fill="white" stroke="white" stroke-width="0.059883" stroke-miterlimit="10"/>
<path d="M70.7284 10.8948L70.7284 6.28345L72.3934 6.28345C72.7562 6.28345 73.0657 6.40101 73.3325 6.64146C73.594 6.88192 73.7275 7.18115 73.7275 7.53916C73.7275 7.75824 73.6688 7.95061 73.5567 8.1216C73.4446 8.28724 73.2899 8.41549 73.1031 8.50098V8.5277C73.3326 8.60251 73.5193 8.73609 73.6634 8.92846C73.8075 9.11548 73.8822 9.33456 73.8822 9.5857C73.8822 9.96509 73.7435 10.275 73.466 10.5261C73.1885 10.7773 72.8629 10.9002 72.4841 10.9002L70.7284 10.9002V10.8948ZM71.3207 8.26053L72.3934 8.26053C72.6175 8.26053 72.7936 8.18572 72.9323 8.0361C73.0657 7.88649 73.1351 7.72618 73.1351 7.54985C73.1351 7.37351 73.0711 7.21321 72.9377 7.06894C72.8096 6.92466 72.6335 6.84986 72.42 6.84986L71.3207 6.84986V8.26053ZM71.3207 10.3284L72.5108 10.3284C72.7402 10.3284 72.9216 10.2483 73.0657 10.088C73.2098 9.92768 73.2792 9.75669 73.2792 9.56433C73.2792 9.37731 73.2045 9.20098 73.0604 9.04602C72.9163 8.89106 72.7242 8.8109 72.4894 8.8109L71.3261 8.8109V10.3284H71.3207Z" fill="white" stroke="white" stroke-width="0.059883" stroke-miterlimit="10"/>
<defs>
<linearGradient id="paint0_linear_2126_17311" x1="16.7531" y1="7.59521" x2="3.8498" y2="20.4815" gradientUnits="userSpaceOnUse">
<stop stop-color="#4699D0"/>
<stop offset="0.00657445" stop-color="#459AD1"/>
<stop offset="0.2601" stop-color="#1BBAEB"/>
<stop offset="0.5122" stop-color="#4EC3ED"/>
<stop offset="0.7604" stop-color="#6AC8E7"/>
<stop offset="1" stop-color="#72CAE5"/>
</linearGradient>
<linearGradient id="paint1_linear_2126_17311" x1="25.9936" y1="16.2769" x2="7.41401" y2="16.2769" gradientUnits="userSpaceOnUse">
<stop stop-color="#FFE103"/>
<stop offset="0.4087" stop-color="#FDBD00"/>
<stop offset="0.7754" stop-color="#F8A500"/>
<stop offset="1" stop-color="#F69B00"/>
</linearGradient>
<linearGradient id="paint2_linear_2126_17311" x1="19.0775" y1="18.0412" x2="1.57962" y2="35.5161" gradientUnits="userSpaceOnUse">
<stop stop-color="#E93A3D"/>
<stop offset="1" stop-color="#C41463"/>
</linearGradient>
<linearGradient id="paint3_linear_2126_17311" x1="5.61744" y1="1.03421" x2="13.431" y2="8.83748" gradientUnits="userSpaceOnUse">
<stop stop-color="#33A071"/>
<stop offset="0.0685" stop-color="#30A772"/>
<stop offset="0.4762" stop-color="#54B867"/>
<stop offset="0.8009" stop-color="#6BBE66"/>
<stop offset="1" stop-color="#72C066"/>
</linearGradient>
</defs>
</svg>
