<svg width="104" height="32" viewBox="0 0 104 32" fill="none" xmlns="http://www.w3.org/2000/svg">
<path d="M95.4044 0.897217L8.25544 0.897217C7.93525 0.897217 7.62574 0.897217 7.30555 0.897217C7.03873 0.897217 6.77725 0.90256 6.51043 0.907904C5.93409 0.918591 5.35242 0.950651 4.77609 1.04149C4.19442 1.13233 3.65545 1.28729 3.12714 1.5224C2.60951 1.75751 2.13456 2.06209 1.72366 2.42544C1.30742 2.7888 0.965887 3.21093 0.704403 3.67046C0.437582 4.13534 0.261483 4.61625 0.165428 5.12922C0.0586993 5.63685 0.0266762 6.14982 0.010667 6.66814C-5.86252e-06 6.90325 0 7.13836 0 7.37347C0 7.65133 0 7.92919 0 8.21239L0 24.2801C0 24.5633 0 24.8412 0 25.119C0.00533642 25.3595 0.00533055 25.5893 0.010667 25.8244C0.0266762 26.3374 0.0640357 26.8503 0.165428 27.3633C0.266819 27.8763 0.437582 28.3572 0.704403 28.8274C0.965887 29.2869 1.31276 29.7037 1.72366 30.0671C2.13456 30.4358 2.60951 30.7404 3.12714 30.9701C3.65545 31.2106 4.19442 31.3602 4.77609 31.4564C5.35242 31.5472 5.93409 31.5793 6.51043 31.59C6.77725 31.5953 7.03873 31.6006 7.30555 31.6006C7.6204 31.6006 7.93525 31.6006 8.25544 31.6006L95.3991 31.6006C95.7086 31.6006 96.0288 31.6006 96.3383 31.6006C96.5998 31.6006 96.872 31.5953 97.1388 31.59C97.7204 31.5739 98.3021 31.5472 98.8731 31.4564C99.4548 31.3655 99.9938 31.2106 100.527 30.9701C101.045 30.735 101.52 30.4304 101.931 30.0671C102.342 29.7091 102.689 29.2869 102.955 28.8274C103.222 28.3625 103.393 27.8816 103.489 27.3633C103.596 26.8557 103.628 26.3427 103.649 25.8244C103.655 25.5839 103.655 25.3542 103.655 25.119C103.66 24.8412 103.66 24.5633 103.66 24.2801L103.66 8.21774C103.66 7.93453 103.66 7.65667 103.655 7.37881C103.655 7.1437 103.655 6.90859 103.649 6.67348C103.628 6.16051 103.596 5.64754 103.489 5.13457C103.393 4.6216 103.217 4.14069 102.955 3.67581C102.689 3.21627 102.347 2.79414 101.931 2.43079C101.52 2.06743 101.045 1.76285 100.527 1.52774C99.9938 1.29263 99.4548 1.13767 98.8731 1.04683C98.3021 0.955995 97.7204 0.923934 97.1388 0.913247C96.8773 0.907904 96.6051 0.90256 96.3383 0.90256C96.0288 0.897217 95.714 0.897217 95.4044 0.897217Z" fill="#B7B7B7"/>
<path d="M7.31626 30.9326C7.05478 30.9326 6.79329 30.9273 6.53181 30.9219C6.0462 30.9112 5.4752 30.8845 4.91488 30.799C4.38657 30.7135 3.91697 30.5746 3.47938 30.3769C3.02578 30.1738 2.62022 29.912 2.26802 29.5967C1.91048 29.2868 1.61697 28.9288 1.38217 28.5227C1.15804 28.1326 1.00328 27.7212 0.912565 27.251C0.805837 26.7327 0.77916 26.209 0.768488 25.8136C0.763151 25.6533 0.757812 25.1136 0.757812 25.1136L0.757812 7.3787C0.757812 7.3787 0.763151 6.8497 0.768488 6.6894C0.77916 6.28864 0.805837 5.76498 0.912565 5.25201C1.00328 4.78179 1.15804 4.365 1.38217 3.97493C1.61164 3.57417 1.90514 3.21082 2.26268 2.9009C2.62022 2.58563 3.03112 2.31846 3.47938 2.11541C3.9223 1.9177 4.39191 1.77877 4.90954 1.69862C5.49121 1.60778 6.08355 1.58107 6.53181 1.57038L7.31093 1.55969L96.333 1.55969L97.1228 1.57038C97.5657 1.58107 98.1581 1.60244 98.7344 1.69328C99.2574 1.77343 99.727 1.91236 100.181 2.11541C100.623 2.31846 101.029 2.58029 101.387 2.89555C101.739 3.20547 102.038 3.56883 102.272 3.97493C102.497 4.365 102.646 4.78179 102.737 5.24132C102.838 5.72758 102.87 6.22452 102.886 6.6894C102.886 6.90848 102.886 7.13825 102.886 7.37336C102.891 7.6619 102.891 7.93442 102.891 8.21228L102.891 24.28C102.891 24.5579 102.891 24.8304 102.886 25.1029C102.886 25.354 102.886 25.5838 102.881 25.8189C102.865 26.2731 102.833 26.7701 102.731 27.2403C102.641 27.7105 102.491 28.1273 102.262 28.5227C102.027 28.9235 101.733 29.2815 101.381 29.5861C101.024 29.9067 100.618 30.1685 100.17 30.3715C99.7216 30.5746 99.2627 30.7082 98.7237 30.7937C98.1687 30.8845 97.5924 30.9059 97.1068 30.9166C96.8507 30.9219 96.5892 30.9273 96.3277 30.9273H95.3885L7.31626 30.9326Z" fill="#000001"/>
<path d="M21.1429 16.0831C21.1216 13.5717 23.1975 12.348 23.2935 12.2892C22.1195 10.5687 20.2945 10.3389 19.6541 10.3175C18.1225 10.1572 16.639 11.2366 15.8546 11.2366C15.0594 11.2366 13.8587 10.3335 12.562 10.3603C10.897 10.387 9.3388 11.3541 8.47964 12.8503C6.71329 15.9068 8.03138 20.4059 9.72303 22.8799C10.5662 24.0929 11.5588 25.4448 12.8502 25.3967C14.1149 25.3433 14.5898 24.5899 16.116 24.5899C17.6316 24.5899 18.0745 25.3967 19.3926 25.37C20.748 25.3486 21.6072 24.1517 22.4237 22.9334C23.4002 21.5441 23.7951 20.1762 23.8111 20.1067C23.7738 20.096 21.1696 19.0968 21.1429 16.0831Z" fill="white"/>
<path d="M18.6509 8.69321C19.3286 7.83826 19.7982 6.67873 19.6701 5.50317C18.6829 5.54592 17.4502 6.18713 16.7458 7.02071C16.1161 7.75276 15.5558 8.96038 15.6998 10.0932C16.8045 10.1733 17.9411 9.53213 18.6509 8.69321Z" fill="white"/>
<path d="M39.3614 22.2118L35.2844 22.2118L34.3079 25.108L32.5789 25.108L36.4424 14.3997L38.2355 14.3997L42.099 25.108H40.3433L39.3614 22.2118ZM35.706 20.8759L38.9399 20.8759L37.3443 16.1791H37.3016L35.706 20.8759Z" fill="white"/>
<path d="M50.4345 21.2073C50.4345 23.6332 49.1378 25.1935 47.1793 25.1935C46.0694 25.1935 45.1835 24.6966 44.7246 23.8256H44.6872L44.6872 27.6943L43.0863 27.6943L43.0863 17.3013L44.6339 17.3013V18.5997H44.6659C45.1088 17.7608 46.0587 17.2211 47.1473 17.2211C49.1325 17.2211 50.4345 18.7867 50.4345 21.2073ZM48.7909 21.2073C48.7909 19.6256 47.9745 18.589 46.7311 18.589C45.509 18.589 44.6872 19.6524 44.6872 21.2073C44.6872 22.7783 45.509 23.8363 46.7311 23.8363C47.9745 23.8309 48.7909 22.7997 48.7909 21.2073Z" fill="white"/>
<path d="M59.0207 21.2073C59.0207 23.6332 57.724 25.1935 55.7655 25.1935C54.6555 25.1935 53.7697 24.6966 53.3108 23.8256H53.2734L53.2734 27.6943L51.6725 27.6943L51.6725 17.3013L53.22 17.3013V18.5997H53.2521C53.695 17.7608 54.6449 17.2211 55.7335 17.2211C57.7133 17.2211 59.0207 18.7867 59.0207 21.2073ZM57.3718 21.2073C57.3718 19.6256 56.5553 18.589 55.3119 18.589C54.0899 18.589 53.2681 19.6524 53.2681 21.2073C53.2681 22.7783 54.0899 23.8363 55.3119 23.8363C56.5553 23.8309 57.3718 22.7997 57.3718 21.2073Z" fill="white"/>
<path d="M64.6933 22.1265C64.8107 23.1898 65.8407 23.8845 67.2495 23.8845C68.5996 23.8845 69.5708 23.1845 69.5708 22.228C69.5708 21.3944 68.9838 20.8975 67.6017 20.5555L66.2142 20.2189C64.2504 19.7433 63.3379 18.8242 63.3379 17.3334C63.3379 15.4846 64.9441 14.2182 67.2281 14.2182C69.4908 14.2182 71.0383 15.4899 71.0917 17.3334L69.4748 17.3334C69.3787 16.2647 68.4982 15.6182 67.2068 15.6182C65.9154 15.6182 65.0349 16.2701 65.0349 17.2212C65.0349 17.98 65.6005 18.4235 66.9773 18.7654L68.1567 19.054C70.3499 19.5723 71.2625 20.454 71.2625 22.0249C71.2625 24.0287 69.6669 25.2844 67.1321 25.2844C64.7574 25.2844 63.1564 24.0608 63.0551 22.1211L64.6933 22.1211V22.1265Z" fill="white"/>
<path d="M74.7151 15.4525V17.3013L76.1986 17.3013V18.5731L74.7151 18.5731L74.7151 22.8799C74.7151 23.5478 75.0139 23.8577 75.665 23.8577C75.8304 23.8577 76.0865 23.8363 76.1933 23.8203V25.0814C76.0172 25.1241 75.6596 25.1562 75.3021 25.1562C73.7225 25.1562 73.1088 24.5631 73.1088 23.0455L73.1088 18.5677H71.9722V17.296L73.1035 17.296V15.4471L74.7151 15.4471V15.4525Z" fill="white"/>
<path d="M77.0577 21.2074C77.0577 18.7494 78.5039 17.2052 80.7559 17.2052C83.0185 17.2052 84.454 18.7494 84.454 21.2074C84.454 23.6707 83.0239 25.2097 80.7559 25.2097C78.4879 25.2043 77.0577 23.6707 77.0577 21.2074ZM82.8211 21.2074C82.8211 19.5242 82.0473 18.525 80.7506 18.525C79.4538 18.525 78.6853 19.5296 78.6853 21.2074C78.6853 22.9013 79.4538 23.8845 80.7506 23.8845C82.0473 23.8845 82.8211 22.8959 82.8211 21.2074Z" fill="white"/>
<path d="M85.7721 17.3013L87.2983 17.3013V18.6318H87.3357C87.5811 17.7501 88.2909 17.2211 89.2141 17.2211C89.4435 17.2211 89.6356 17.2532 89.7637 17.2799V18.7814C89.6356 18.7279 89.3582 18.6852 89.0433 18.6852C88.0134 18.6852 87.373 19.3852 87.373 20.4806L87.373 25.1134L85.7721 25.1134L85.7721 17.3013Z" fill="white"/>
<path d="M97.1441 22.8158C96.9307 24.2318 95.5485 25.2043 93.7875 25.2043C91.5195 25.2043 90.1107 23.6815 90.1107 21.2395C90.1107 18.7922 91.5249 17.1999 93.7181 17.1999C95.874 17.1999 97.2348 18.6853 97.2348 21.0525L97.2348 21.6029L91.7276 21.6029V21.699C91.7276 23.0349 92.5655 23.9112 93.8249 23.9112C94.7161 23.9112 95.4098 23.4891 95.6232 22.8105L97.1441 22.8105V22.8158ZM91.733 20.4861L95.6339 20.4861C95.5966 19.2891 94.8335 18.5037 93.7235 18.5037C92.6135 18.5037 91.813 19.3052 91.733 20.4861Z" fill="white"/>
<path d="M34.2598 7.96659L34.9268 7.96659C35.4818 7.96659 35.866 7.64064 35.866 7.17042C35.866 6.71088 35.5192 6.41165 34.9322 6.41165C34.3505 6.41165 33.9716 6.70554 33.9289 7.19179L33.1978 7.19179C33.2512 6.29409 33.9182 5.73303 34.9588 5.73303C35.9407 5.73303 36.6291 6.28341 36.6291 7.07424C36.6291 7.62461 36.2609 8.08949 35.722 8.21239V8.27117C36.3677 8.33529 36.8319 8.78414 36.8319 9.47879C36.8319 10.3337 36.0261 10.9643 34.9695 10.9643C33.8862 10.9643 33.1445 10.3765 33.0964 9.48947L33.8382 9.48947C33.8809 9.96504 34.3185 10.275 34.9642 10.275C35.6099 10.275 36.0315 9.92764 36.0315 9.44138C36.0315 8.94444 35.6366 8.64521 34.9428 8.64521L34.2544 8.64521V7.96659H34.2598Z" fill="white"/>
<path d="M37.6752 9.78341C37.6752 9.10479 38.1821 8.71472 39.0733 8.66129L40.0926 8.60251V8.27656C40.0926 7.88114 39.8311 7.65672 39.3241 7.65672C38.9079 7.65672 38.6251 7.80634 38.5397 8.07351L37.8193 8.07351C37.894 7.42695 38.5023 7.01016 39.3561 7.01016C40.3007 7.01016 40.829 7.48039 40.829 8.27656L40.829 10.8468L40.1139 10.8468V10.3178H40.0552C39.8311 10.6971 39.4202 10.9109 38.9239 10.9109C38.2035 10.9109 37.6752 10.4674 37.6752 9.78341ZM40.0926 9.45746L40.0926 9.1422L39.1747 9.20097C38.6571 9.23304 38.4223 9.40937 38.4223 9.74601C38.4223 10.0826 38.7158 10.2804 39.1213 10.2804C39.6817 10.2804 40.0926 9.92768 40.0926 9.45746Z" fill="white"/>
<path d="M42.8033 7.7049L42.8033 10.8415L42.0615 10.8415L42.0615 7.07971L44.5376 7.07971V7.7049L42.8033 7.7049Z" fill="white"/>
<path d="M49.0309 8.96049C49.0309 10.1574 48.4279 10.9055 47.478 10.9055C46.9444 10.9055 46.5174 10.6704 46.32 10.275H46.2613V12.0971H45.5195L45.5195 7.07959L46.2346 7.07959V7.69943L46.288 7.69943C46.5174 7.27196 46.955 7.01547 47.4673 7.01547C48.4279 7.02082 49.0309 7.76355 49.0309 8.96049ZM48.2678 8.96049C48.2678 8.16431 47.8942 7.6834 47.2645 7.6834C46.6402 7.6834 46.2506 8.175 46.2506 8.96049C46.2506 9.74597 46.6402 10.2376 47.2645 10.2376C47.8942 10.2429 48.2678 9.762 48.2678 8.96049Z" fill="white"/>
<path d="M50.0181 12.1934V11.5521C50.0768 11.5628 50.1889 11.5682 50.2582 11.5682C50.6104 11.5682 50.8079 11.4239 50.936 11.0445L50.9893 10.8628L49.6285 7.08502L50.4343 7.08502L51.3789 10.0774H51.4376L52.3768 7.08502L53.1612 7.08502L51.7578 11.0071C51.4376 11.9208 51.08 12.2147 50.3169 12.2147C50.2636 12.2094 50.0875 12.204 50.0181 12.1934Z" fill="white"/>
<path d="M53.7484 9.77803L54.4848 9.77803C54.5595 10.1093 54.8691 10.2803 55.3013 10.2803C55.7976 10.2803 56.0964 10.0612 56.0964 9.7246C56.0964 9.36124 55.8243 9.19025 55.3013 9.19025L54.741 9.19025L54.741 8.61316L55.296 8.61316C55.7442 8.61316 55.9737 8.44217 55.9737 8.12691C55.9737 7.84905 55.7549 7.64066 55.296 7.64066C54.8797 7.64066 54.5756 7.81699 54.5275 8.11622L53.8124 8.11622C53.8872 7.44295 54.4421 7.01547 55.296 7.01547C56.1872 7.01547 56.6995 7.42157 56.6995 8.05744C56.6995 8.43683 56.4593 8.7414 56.1071 8.8269V8.88568C56.5927 8.99789 56.8435 9.31315 56.8435 9.72994C56.8435 10.446 56.2352 10.9215 55.3067 10.9215C54.4848 10.9162 53.8178 10.5368 53.7484 9.77803Z" fill="white"/>
<path d="M57.9106 10.8468L57.9106 7.08502L58.6471 7.08502L58.6471 9.67659H58.7058L60.4401 7.08502L61.1765 7.08502L61.1765 10.8468L60.4401 10.8468L60.4401 8.24455H60.3867L58.6524 10.8468L57.9106 10.8468Z" fill="white"/>
<path d="M65.2215 7.7049L64.0368 7.7049V10.8415L63.295 10.8415L63.295 7.7049L62.1104 7.7049V7.07971L65.2215 7.07971V7.7049Z" fill="white"/>
<path d="M69.2186 9.8315C69.0479 10.5048 68.4502 10.9216 67.591 10.9216C66.5131 10.9216 65.8567 10.1842 65.8567 8.97655C65.8567 7.77428 66.5291 7.01016 67.591 7.01016C68.637 7.01016 69.2667 7.72618 69.2667 8.90709V9.16891L66.6145 9.16891V9.21166C66.6358 9.87425 67.02 10.291 67.6177 10.291C68.066 10.291 68.3755 10.1307 68.5089 9.83684L69.2186 9.83684V9.8315ZM66.6091 8.61854L68.5089 8.61854C68.4929 8.02542 68.1353 7.64603 67.5857 7.64603C67.036 7.64069 66.6518 8.03076 66.6091 8.61854Z" fill="white"/>
<path d="M72.3671 7.07971L74.0641 7.07971C74.8005 7.07971 75.2327 7.45375 75.2327 8.03619C75.2327 8.41557 74.9659 8.7629 74.5977 8.83236V8.89114C75.0833 8.94457 75.4035 9.30259 75.4035 9.75678C75.4035 10.414 74.9125 10.8415 74.0854 10.8415L72.3724 10.8415V7.07971H72.3671ZM73.0982 7.65146V8.62397H73.8346C74.2828 8.62397 74.4963 8.45298 74.4963 8.13237C74.4963 7.83848 74.3095 7.64612 73.9146 7.64612L73.0982 7.64612V7.65146ZM73.0982 9.17434V10.2751L73.9787 10.2751C74.4163 10.2751 74.651 10.0827 74.651 9.72472C74.651 9.34533 74.3842 9.169 73.8826 9.169L73.0982 9.169V9.17434Z" fill="white"/>
</svg>
